<svg xmlns="http://www.w3.org/2000/svg" viewBox="0 0 53.93 53.93"><defs><style>.cls-1{fill:#f6f6f6;}</style></defs><g id="Layer_2" data-name="Layer 2"><g id="Layer_1-2" data-name="Layer 1"><rect class="cls-1" width="53.93" height="53.93" rx="14.02"/><path d="M26.8,8A19.65,19.65,0,0,1,46.63,27.24,19.84,19.84,0,0,1,27,47.15,19.53,19.53,0,0,1,7.49,27.6,19.31,19.31,0,0,1,26.8,8ZM43.67,27.5A16.7,16.7,0,1,0,27.08,44.22,16.66,16.66,0,0,0,43.67,27.5Z"/><path d="M26.91,12.06A15.45,15.45,0,1,1,11.53,27.67,15.53,15.53,0,0,1,26.91,12.06Zm-.05,2.63c-5.79.07-11.53,4.82-12.18,9.64A7.59,7.59,0,0,0,15.32,27c.67-.54,1.74-.95,1.95-1.63,1.5-4.69,4.65-7.16,9.48-7.8.69-.09,1.25-1.1,1.87-1.68ZM37.74,34.63c-1.08-.65-2-1.38-2.11-1.25A31.21,31.21,0,0,0,33,36.22c.52.42,1.33,1.29,1.49,1.18A33.23,33.23,0,0,0,37.74,34.63Z"/></g></g></svg>