<?xml version="1.0" standalone="no"?>
<svg viewBox="0 0 200 200" xmlns="http://www.w3.org/2000/svg">
  <path fill="#0F62FE" d="M32.3,-58.2C39.8,-51.6,42.4,-38.8,52.1,-28.1C61.7,-17.4,78.3,-8.7,84.9,3.8C91.6,16.3,88.3,32.7,79.6,45.1C70.9,57.4,56.9,65.9,42.7,73.1C28.6,80.3,14.3,86.4,2.7,81.7C-9,77.1,-17.9,61.9,-29.4,53.1C-40.8,44.3,-54.7,42,-61.4,34.2C-68,26.4,-67.3,13.2,-65.8,0.9C-64.3,-11.4,-61.9,-22.9,-56.8,-33.3C-51.7,-43.7,-43.8,-53,-33.9,-58.2C-24,-63.5,-12,-64.6,0.2,-64.9C12.4,-65.2,24.8,-64.8,32.3,-58.2Z" transform="translate(100 100)" />
</svg>
