<svg xmlns="http://www.w3.org/2000/svg" viewBox="0 0 1034.01 776.72"><defs><style>.cls-1{fill:#3f3d56;}.cls-2{fill:none;stroke:#3f3d56;stroke-miterlimit:10;stroke-width:4px;}.cls-3{fill:#57b793;}.cls-4{opacity:0.1;}.cls-4,.cls-6,.cls-8{isolation:isolate;}.cls-5{fill:#656380;}.cls-6{opacity:0.2;}.cls-7{fill:#6c63ff;}.cls-8{opacity:0.05;}.cls-9{fill:#ffc0c6;}.cls-10{fill:#605d82;}.cls-11{fill:#535070;}.cls-12{fill:#3e74ff;}.cls-13{fill:#fff;}.cls-14{fill:#999;}.cls-15{fill:#f6f6f6;}</style></defs><g id="Layer_2" data-name="Layer 2"><g id="Layer_1-2" data-name="Layer 1"><ellipse class="cls-1" cx="578.51" cy="755.72" rx="455.5" ry="21"/><path class="cls-2" d="M946.5,747.89c3-5.51-.4-12.26-4.28-17.18s-8.61-10-8.51-16.29c.14-9,9.69-14.31,17.33-19.08a85.22,85.22,0,0,0,15.55-12.51,23.08,23.08,0,0,0,4.79-6.4c1.57-3.52,1.53-7.52,1.43-11.38q-.49-19.26-1.9-38.48"/><path class="cls-3" d="M985.42,625.89a14,14,0,0,0-7-11.5l-3.14,6.22.09-7.52a14,14,0,1,0,10,12.8h0Z"/><path class="cls-3" d="M960.39,720.89a14,14,0,1,1,.67-11.3l-8.76,7.13,9.64-2.24A14,14,0,0,1,960.39,720.89Z"/><path class="cls-3" d="M953.46,693.6a14,14,0,0,1-14.66-13.31v-.06a13.89,13.89,0,0,1,1.21-6.39,14,14,0,0,1,9-7.78l-.07,5.79,3.18-6.3h0a14,14,0,0,1,1.31,28.05Z"/><path class="cls-3" d="M987.53,670.89a14,14,0,0,1-1.32-28,13.82,13.82,0,0,1,7.52,1.78l-2.48,6.8,5.1-4.9a14,14,0,0,1,4.54,9.69,13.6,13.6,0,0,1-.36,3.86A14,14,0,0,1,987.53,670.89Z"/><path class="cls-4" d="M983.53,629.59c-3.24.36-6.39,1.37-9.64,1.57s-6.82-.58-8.88-3.11c-1.11-1.36-1.66-3.08-2.6-4.56a9.88,9.88,0,0,0-3.53-3.33,14,14,0,1,0,25.26,12.08,14.16,14.16,0,0,0,1-2.76C984.58,629.5,984.05,629.54,983.53,629.59Z"/><path class="cls-4" d="M987.53,670.89a14,14,0,0,1-13.35-20,10.27,10.27,0,0,1,2.82,2.83c1,1.51,1.6,3.25,2.78,4.64,2.18,2.57,5.92,3.41,9.31,3.25s6.65-1.11,10-1.42c.46,0,.94-.08,1.41-.09A14,14,0,0,1,987.53,670.89Z"/><path class="cls-4" d="M953.46,693.6a14,14,0,0,1-14.66-13.31v-.06a13.89,13.89,0,0,1,1.21-6.39,11.3,11.3,0,0,1,3,2.85c1.09,1.54,1.77,3.31,3,4.73,2.37,2.64,6.35,3.57,9.94,3.48s6.82-.93,10.28-1.19A14.07,14.07,0,0,1,953.46,693.6Z"/><path class="cls-4" d="M960.39,720.89a14,14,0,0,1-25.59-11.5,14.39,14.39,0,0,1,3.08,2.75c1.33,1.63,2.21,3.47,3.76,5,2.87,2.81,7.5,4,11.62,4.08A60.67,60.67,0,0,0,960.39,720.89Z"/><path class="cls-5" d="M925.34,741.54s11.07-.34,14.41-2.72,17-5.22,17.87-1.4,16.65,19,4.14,19.06-29.06-2-32.39-4S925.34,741.54,925.34,741.54Z"/><path class="cls-6" d="M962,755.15c-12.5.1-29.06-2-32.39-4-2.53-1.54-3.55-7.09-3.88-9.65h-.37s.7,8.93,4,11,19.88,4.08,32.39,4c3.61,0,4.86-1.32,4.79-3.22C966.05,754.41,964.67,755.13,962,755.15Z"/><path class="cls-2" d="M317.42,717c-7.26-13.44,1-29.9,10.44-41.88s21-24.44,20.75-39.71c-.36-21.94-23.64-34.89-42.24-46.52a207,207,0,0,1-37.93-30.49c-4.57-4.67-9-9.65-11.66-15.61-3.84-8.58-3.74-18.33-3.49-27.73q1.2-47,4.64-93.82"/><path class="cls-3" d="M222.56,419.57a34.19,34.19,0,0,1,17.08-28l7.66,15.15-.23-18.34a34.21,34.21,0,1,1-24.51,31.22Z"/><path class="cls-3" d="M283.58,651.13a34.2,34.2,0,0,0,64.59-14,33.68,33.68,0,0,0-2.23-13.88,34.21,34.21,0,0,0-64,.37L303.31,641l-23.51-5.47A33.92,33.92,0,0,0,283.58,651.13Z"/><path class="cls-3" d="M300.47,584.71a34.22,34.22,0,0,0,10.85-67.12l.18,14.09-7.7-15.33h-.09a34.22,34.22,0,0,0-3.19,68.37h0Z"/><path class="cls-3" d="M217.41,529.44a34.22,34.22,0,1,0-15.12-64l6,16.57L195.9,470a34,34,0,0,0-11.1,23.62,33.59,33.59,0,0,0,.87,9.42A34.23,34.23,0,0,0,217.41,529.44Z"/><path class="cls-4" d="M227.16,428.69c7.9.87,15.58,3.32,23.5,3.81s16.63-1.4,21.64-7.56c2.7-3.32,4.05-7.52,6.33-11.14a24.19,24.19,0,0,1,8.62-8.11,34.22,34.22,0,0,1-61.16,30.72,34.58,34.58,0,0,1-2.84-8C224.58,428.46,225.88,428.55,227.16,428.69Z"/><path class="cls-4" d="M217.41,529.44A34.24,34.24,0,0,0,250,480.64a25.17,25.17,0,0,0-6.88,6.88c-2.44,3.68-3.91,7.93-6.78,11.31-5.33,6.26-14.43,8.31-22.69,7.94s-16.23-2.73-24.45-3.48c-1.14-.1-2.3-.18-3.45-.21A34.21,34.21,0,0,0,217.41,529.44Z"/><path class="cls-4" d="M300.47,584.71a34.21,34.21,0,0,0,32.82-48.17,27.51,27.51,0,0,0-7.23,7c-2.66,3.75-4.32,8.07-7.43,11.53-5.77,6.43-15.47,8.7-24.22,8.49-8.47-.18-16.63-2.26-25.05-2.91A34.24,34.24,0,0,0,300.47,584.71Z"/><path class="cls-4" d="M283.58,651.13a34.2,34.2,0,0,0,64.59-14,33.68,33.68,0,0,0-2.23-13.88,34.37,34.37,0,0,0-7.5,6.69c-3.25,4-5.4,8.46-9.16,12.16-7,6.86-18.29,9.7-28.34,10A148.06,148.06,0,0,1,283.58,651.13Z"/><polygon class="cls-7" points="554.23 737.02 422.23 764.02 419.23 763.72 303.23 752.02 303.23 605.02 445.23 581.02 548.23 593.02 548.26 593.67 548.27 593.99 554.23 737.02"/><polygon class="cls-4" points="554.23 737.02 422.23 764.02 419.23 763.72 419.23 613.02 548.26 593.67 554.23 737.02"/><polygon class="cls-8" points="548.27 593.99 548.23 594.02 419.23 613.02 303.23 605.02 445.23 581.02 548.23 593.02 548.26 593.67 548.27 593.99"/><polygon class="cls-1" points="699.23 743.02 567.23 770.02 564.23 769.72 448.23 758.02 448.23 611.02 590.23 587.02 693.23 599.02 693.26 599.67 693.27 599.99 699.23 743.02"/><polygon class="cls-4" points="699.23 743.02 567.23 770.02 564.23 769.72 564.23 619.02 693.26 599.67 699.23 743.02"/><polygon class="cls-8" points="693.27 599.99 693.23 600.02 564.23 619.02 448.23 611.02 590.23 587.02 693.23 599.02 693.26 599.67 693.27 599.99"/><polygon class="cls-1" points="608.23 599.02 476.23 626.02 473.23 625.72 357.23 614.02 357.23 467.02 499.23 443.02 602.23 455.02 602.26 455.67 602.27 455.99 608.23 599.02"/><polygon class="cls-4" points="608.23 599.02 476.23 626.02 473.23 625.72 473.23 475.02 602.26 455.67 608.23 599.02"/><polygon class="cls-8" points="602.27 455.99 602.23 456.02 473.23 475.02 357.23 467.02 499.23 443.02 602.23 455.02 602.26 455.67 602.27 455.99"/><polygon class="cls-1" points="683.23 605.18 614.34 619.28 612.77 619.12 552.23 613.01 552.23 536.29 626.34 523.76 680.1 530.03 680.12 530.37 680.12 530.53 683.23 605.18"/><polygon class="cls-4" points="683.23 605.18 614.34 619.28 612.77 619.12 612.77 540.47 680.12 530.37 683.23 605.18"/><polygon class="cls-8" points="680.12 530.53 680.1 530.55 612.77 540.47 552.23 536.29 626.34 523.76 680.1 530.03 680.12 530.37 680.12 530.53"/><polygon class="cls-1" points="498.23 456.18 429.34 470.27 427.77 470.12 367.23 464.01 367.23 387.29 441.34 374.76 495.1 381.03 495.12 381.37 495.12 381.53 498.23 456.18"/><polygon class="cls-4" points="498.23 456.18 429.34 470.27 427.77 470.12 427.77 391.47 495.12 381.37 498.23 456.18"/><polygon class="cls-8" points="495.12 381.53 495.1 381.55 427.77 391.47 367.23 387.29 441.34 374.76 495.1 381.03 495.12 381.37 495.12 381.53"/><polygon class="cls-7" points="619.23 453.18 550.34 467.27 548.77 467.12 488.23 461.01 488.23 384.29 562.34 371.76 616.1 378.03 616.12 378.37 616.12 378.53 619.23 453.18"/><polygon class="cls-4" points="619.23 453.18 550.34 467.27 548.77 467.12 548.77 388.47 616.12 378.37 619.23 453.18"/><polygon class="cls-8" points="616.12 378.53 616.1 378.55 548.77 388.47 488.23 384.29 562.34 371.76 616.1 378.03 616.12 378.37 616.12 378.53"/><polygon class="cls-1" points="655.23 376.18 586.34 390.27 584.77 390.12 524.23 384.01 524.23 307.29 598.34 294.76 652.1 301.03 652.12 301.37 652.12 301.53 655.23 376.18"/><polygon class="cls-4" points="655.23 376.18 586.34 390.27 584.77 390.12 584.77 311.47 652.12 301.37 655.23 376.18"/><polygon class="cls-8" points="652.12 301.53 652.1 301.55 584.77 311.47 524.23 307.29 598.34 294.76 652.1 301.03 652.12 301.37 652.12 301.53"/><path class="cls-9" d="M702.15,219.34c-.73,6.5-5.69,11.74-7.53,18-2.76,9.45,2,19.6,8.56,27a59.83,59.83,0,0,0,41.62,19.74,18,18,0,0,0,6.88-.75,15.07,15.07,0,0,0,5.23-3.58c4.92-4.95,7.57-11.8,8.62-18.71s.65-13.94.24-20.91a11.65,11.65,0,0,0-.78-4.22,10.54,10.54,0,0,0-2.71-3.33,62.5,62.5,0,0,0-11.65-8.47c-1.8-1-3.73-2-4.88-3.73a12.27,12.27,0,0,1-1.51-4.47L743,209.35a12.78,12.78,0,0,0-1.89-5.32c-2.27-3.06-6.62-3.48-10.43-3.63l-14-.55c-4.35-.17-10.07-1.42-14.32-.56-4,.79-2.65,4.45-1.93,7.77A55.9,55.9,0,0,1,702.15,219.34Z"/><path class="cls-4" d="M702.15,219.34c-.73,6.5-5.69,11.74-7.53,18-2.76,9.45,2,19.6,8.56,27a59.83,59.83,0,0,0,41.62,19.74,18,18,0,0,0,6.88-.75,15.07,15.07,0,0,0,5.23-3.58c4.92-4.95,7.57-11.8,8.62-18.71s.65-13.94.24-20.91a11.65,11.65,0,0,0-.78-4.22,10.54,10.54,0,0,0-2.71-3.33,62.5,62.5,0,0,0-11.65-8.47c-1.8-1-3.73-2-4.88-3.73a12.27,12.27,0,0,1-1.51-4.47L743,209.35a12.78,12.78,0,0,0-1.89-5.32c-2.27-3.06-6.62-3.48-10.43-3.63l-14-.55c-4.35-.17-10.07-1.42-14.32-.56-4,.79-2.65,4.45-1.93,7.77A55.9,55.9,0,0,1,702.15,219.34Z"/><path class="cls-10" d="M791.06,512.1l-5.94,65.12c-1.55,17.08-3.13,34.23-6.17,51.09-1,5.81-2.28,11.59-3.74,17.32-4.06,15.91-10,31.46-11.85,47.77-.06.47-.11,1-.16,1.43-.39,3.6-.73,7.24-2,10.6-1,2.49-2.41,4.76-3.44,7.22-2,4.92-2.32,10.36-2.57,15.69a67.43,67.43,0,0,0-23.29-8c-4-.59-8.35-1-11-4-3-3.26-2.65-8.25-2.15-12.63q2.37-20.4,4.7-40.78a106.9,106.9,0,0,1,3-17.32c.54-1.89,1.19-3.75,1.85-5.61.91-2.56,1.83-5.12,2.52-7.75a92.94,92.94,0,0,0,2-12.83c1.61-13.68,3.55-27.33,5.25-41l.09-.72c2.55-20.72,4.49-41.54,3.93-62.41-.08-3.09-.21-6.18-.41-9.28-.28-4.49-.69-6.87,3-9.68,4.11-3.1,9.52-5.27,14.22-7.3,2.53-1.1,30.39-11,31-8.82a53.83,53.83,0,0,1,2,14.22A158,158,0,0,1,791.06,512.1Z"/><path class="cls-4" d="M779,628.31c-1,5.81-2.28,11.59-3.74,17.32-4.06,15.91-10,31.46-11.85,47.77-.06.47-.11,1-.16,1.43-12.42-17.74-22.88-36.82-35-54.75.91-2.56,1.83-5.12,2.52-7.75a92.56,92.56,0,0,0,2.08-12.91c1.61-13.68,3.55-27.33,5.25-41l.09-.72a42.55,42.55,0,0,0,3,8.41c8.14,16.54,27.48,24.9,36.94,40.73C778.4,627.33,778.68,627.82,779,628.31Z"/><path class="cls-10" d="M678.17,482.89c.41,13.26,2.53,26.41,4.65,39.51l4.37,27c2.39,14.8,4.89,29.89,11.89,43.14,5.24,9.92,12.78,18.38,19.61,27.27,16.78,21.86,29.39,46.63,45.3,69.13,4.63,6.54,11.24,13.62,19.13,12.25,5.18-.89,8.94-5.21,13-8.53,4.8-3.92,10.58-6.79,14.36-11.71s4.52-13.08-.6-16.58c-1.75-1.19-3.88-1.64-5.86-2.4-7.93-3-13.07-10.76-16.33-18.6s-5.25-16.25-9.6-23.54c-9.46-15.83-28.81-24.19-37-40.74-4.56-9.26-5-20-5.34-30.27l-.89-26.31c-.1-2.88-.17-5.87,1-8.5,3.11-7,12.51-7.66,20.13-8.55a68.82,68.82,0,0,0,24.67-7.78c4.39-2.37,8.67-5.39,11-9.79,2.14-4,2.43-8.71,2.68-13.25L797,427c.23-4.1.43-8.35-1-12.19-3.63-9.66-15.83-12.82-26.14-12.36-19.18.86-36.88,9.11-55,14.69a140.56,140.56,0,0,1-13.63,3.55c-4,.81-9,.48-12.84,1.78-6.88,2.32-6.71,17.38-7.68,23.62A198.51,198.51,0,0,0,678.17,482.89Z"/><path class="cls-11" d="M780.52,703.21c1.69,1.71,2.24,4.21,2.68,6.57a223.13,223.13,0,0,1,3.8,39.71,6.61,6.61,0,0,0,.71,3.6,4.72,4.72,0,0,0,1.87,1.5c4.89,2.33,10.56-.92,14.64-4.49,7.55-6.61,13.94-15.49,14.37-25.52.11-2.58-.18-5.19.27-7.74.66-3.78,2.87-7.07,4.81-10.37a88.48,88.48,0,0,0,8-17.82c.74-2.34,1.24-5.28-.6-6.91a6.17,6.17,0,0,0-2.17-1.13l-22.1-8.2c-1.92-.71-6.68,11.52-7.43,12.86-1.85,3.27-3.69,5.12-7.4,5.88s-8.29-.34-11.83,1.55C774.14,695.89,777.13,699.8,780.52,703.21Z"/><path class="cls-11" d="M746.44,710.76a6.59,6.59,0,0,0-1.68-2.13,7.45,7.45,0,0,0-3.39-1.15c-4.2-.72-9.18-1.19-12.09,1.94-2.72,2.93-2.25,7.7-4.52,11a34.2,34.2,0,0,0-2.32,3,11.3,11.3,0,0,0-1,5.38c-.12,5.09-.24,10.2.12,15.28.29,4.26,1,8.73,3.67,12.07,4.28,5.36,12,6.13,18.84,6.47l5.55.29a11.24,11.24,0,0,0,4.54-.42,7.46,7.46,0,0,0,3.92-4.31c2.89-7.18-1.68-14.91-4.5-22.11C750.33,727.78,750.91,718.59,746.44,710.76Z"/><path class="cls-1" d="M700.55,182.69a4.58,4.58,0,0,1,.31-2.14c.81-1.43,2.93-1,4.53-.64,6.43,1.62,13.21.15,19.84.53s14.09,3.69,15.42,10.19a48.36,48.36,0,0,0,12.23-12.56c1.84-2.75,3.44-5.9,3.19-9.2-.36-4.76-4.35-8.32-8-11.34l-11-9a16.53,16.53,0,0,0-4.94-3.14c-2.54-.87-5.32-.45-8-.45-8,0-16.58-3.65-23.71,0-3,1.53-5.23,4.16-7.39,6.72L683.2,163.3a6.21,6.21,0,0,0-1.58,2.67c-.28,1.42.45,2.82.71,4.25.46,2.6-.66,5.38.2,7.88,1.43,4.14,6.47,4.73,9.55,7.11,1.14.88,2.94,3.89,4.31,3.85C698.8,189,700.48,184.61,700.55,182.69Z"/><circle class="cls-9" cx="717.23" cy="185.52" r="31.5"/><path class="cls-12" d="M724.61,254.45a15.24,15.24,0,0,0-14.81-10.22,4.53,4.53,0,0,1-2.74-.35,3.85,3.85,0,0,1-1.13-1.4,55.73,55.73,0,0,1-4.59-10.86c-.5-1.67-1.19-3.64-2.88-4.07-1.36-.35-2.75.53-3.66,1.6a35.64,35.64,0,0,1-2.62,3.29c-4,3.54-11,.31-15.19,3.56-.69.53-1.26,1.21-2,1.7a9.67,9.67,0,0,1-2.31,1A219.89,219.89,0,0,0,648.8,248c2.8,16.84,5.66,34,12.22,49.75,3.12,7.5,6.65,14.85,9.15,22.58,5.54,17.13,5.78,35.46,5.85,53.47,0,12.32,0,24.9-4,36.56-.9,2.64-2,5.26-2.25,8s.57,5.84,2.82,7.48a9.56,9.56,0,0,0,4.35,1.53c6.91,1,13.87-.82,20.67-2.4,18.23-4.22,36.83-6.64,55.38-9l31.1-4a18.42,18.42,0,0,0,6.44-1.67c5.69-3.11,6.23-11.67,2.69-17.11-1.69-2.61-4.08-4.75-5.51-7.51s-1.54-6.64.91-8.55c5-3.9,3.5-11.13,3.74-17.45q1-26.52-.27-53a106.3,106.3,0,0,1-.18-11c.35-6.22,1.89-12.31,3.43-18.36l9.45-37.2c-2.47-3.9-7.2-6.38-11.67-7.5s-9.14-1.45-13.55-2.82c-9-2.8-17.08-9.9-26.51-9.24a4.77,4.77,0,0,0-2.06.5c-2.12,1.21-1.79,4.27-1.92,6.71-.3,5.41-4.28,9.92-8.66,13.09S731,246.36,727,250A6,6,0,0,0,724.61,254.45Z"/><path class="cls-9" d="M599.8,289.74a37.65,37.65,0,0,1-6.62,3.41c-2.2.87-4.55,1.56-6.35,3.08a9.9,9.9,0,0,0-2.21,2.73A12.13,12.13,0,0,0,595.8,317c2.89-.15,5.62-1.32,8.27-2.47l22.22-9.67c3.76-1.63,7.82-3.53,9.6-7.23a1.73,1.73,0,0,0,.22-1.15,1.84,1.84,0,0,0-.92-1,49.71,49.71,0,0,1-12.93-12.2c-.91-1.24-2-4.16-3.32-4.91C614.24,275.79,603.57,287.3,599.8,289.74Z"/><path class="cls-9" d="M837.32,281.89l8.19,9.36c1.76,2,3.52,4,5.12,6.16A71.36,71.36,0,0,1,860,315.08c1.78,4.67,3.26,9.65,2.64,14.61a35.61,35.61,0,0,1-2,7.43,92.13,92.13,0,0,1-5.57,13.4,75.81,75.81,0,0,1-6.23,9.37A219,219,0,0,1,828,383.64c-2.8,2.77-4,7.26-5.19,11-2.25,6.91-7.6,12.3-12.77,17.4a35.34,35.34,0,0,1-5.49,4.72,17.79,17.79,0,0,1-10,2.84,11.22,11.22,0,0,1-4.49-.93c-3.54-1.68-5.34-5.77-5.71-9.67a20.69,20.69,0,0,1,1.72-10.36c4.7-10.41,16.77-14.92,25.3-22.52,5-4.45,8.83-10.05,12.61-15.58a54.18,54.18,0,0,0,6.37-11.17c1.9-5.09,1.16-11.11,2.83-16.27.7-2.19,2-4.16,2.71-6.33s1-4.74-.38-6.61a9.45,9.45,0,0,0-3.71-2.72c-5.45-2.76-11.55-6.32-12.59-12.35a13.26,13.26,0,0,1,2.44-9.43,38.43,38.43,0,0,1,6.87-7.2C830.92,286.32,834.93,284,837.32,281.89Z"/><path class="cls-9" d="M594.54,302.8c-1.44-2.92-3.25-5.9-6.17-7.35a11.35,11.35,0,0,0-9,0,33.84,33.84,0,0,0-7.88,4.76l-7.06,5.21a17.33,17.33,0,0,0-4.19,3.87,16.06,16.06,0,0,0-2.18,6c-1,4.87-1.81,9.88-1.11,14.81,1.12,8,5.92,14.92,11.2,21,3.3,3.78,7.38,7.6,12.4,7.77,2.17.07,4.58-.79,5.48-2.76a6.74,6.74,0,0,0,.49-2.46c.54-8.88-2.64-17.55-6.34-25.64-1-2.2-2.08-4.48-2-6.89a1.89,1.89,0,0,1,.3-1.16,1.86,1.86,0,0,1,1.2-.59c5.07-1,13.81,2.94,17.36-2.69C599.34,313,596.18,306.11,594.54,302.8Z"/><path class="cls-1" d="M698.89,172.78a4.72,4.72,0,0,1,.32-2.14c.81-1.44,2.93-1,4.53-.64,6.43,1.62,13.21.15,19.84.53s14.08,3.69,15.42,10.19a48.52,48.52,0,0,0,12.23-12.56c1.84-2.76,3.44-5.91,3.19-9.21-.36-4.76-4.36-8.32-8-11.33l-11-9a16.36,16.36,0,0,0-4.93-3.14c-2.55-.87-5.32-.45-8-.45-8,0-16.58-3.65-23.71,0-3,1.53-5.23,4.16-7.39,6.72l-9.84,11.64a6.19,6.19,0,0,0-1.57,2.67c-.28,1.42.45,2.82.71,4.25.46,2.6-.66,5.38.2,7.87,1.43,4.15,6.47,4.74,9.55,7.12,1.14.88,2.94,3.89,4.31,3.85C697.12,179.1,698.8,174.7,698.89,172.78Z"/><path class="cls-12" d="M632,259.1a13,13,0,0,0-3.3,3.07c-1.15,1.75-1.39,4-2.38,5.8-2.12,3.94-7.09,5.35-10.18,8.58a3.16,3.16,0,0,0-1,1.68,3.74,3.74,0,0,0,.83,2.42l14.94,23.48c5,.44,9.74-2.68,14.72-2.26,1.85.15,3.76.79,5.54.24a16.32,16.32,0,0,0,3.55-2.17c3-1.88,6.92-2.1,9.41-4.57s2.7-6.1,2.67-9.47a36.84,36.84,0,0,0-.89-8.7c-2.2-9-9.09-15.94-13.41-23.92-2.11-3.89-3.25-6.16-7.7-3.49S636.2,256,632,259.1Z"/><path class="cls-12" d="M813.4,247.23a34.7,34.7,0,0,1,7.52,6.58c2.27,2.93,3.56,6.53,5.75,9.53s5,5.16,7.4,7.84c3.65,4.06,6.12,9,8.54,13.91a209.19,209.19,0,0,1-19.32,21.8,6.2,6.2,0,0,1-2.94,1.92,4.73,4.73,0,0,1-4.14-1.69c-1.08-1.12-1.84-2.52-2.87-3.69a14.67,14.67,0,0,0-9.13-4.41,61.68,61.68,0,0,0-10.35-.15,4,4,0,0,1-2.21-.37,3.71,3.71,0,0,1-1.2-1.38c-4-6.88-2.75-15.52-1.32-23.38l3.27-18a40.72,40.72,0,0,1,2.73-10c1.24-2.65,4-7.15,7.42-6.35S810.51,245.15,813.4,247.23Z"/><polygon class="cls-7" points="528.23 379.18 459.34 393.27 457.77 393.12 397.23 387.01 397.23 310.29 471.34 297.76 525.1 304.03 525.12 304.37 525.12 304.53 528.23 379.18"/><polygon class="cls-4" points="528.23 379.18 459.34 393.27 457.77 393.12 457.77 314.47 525.12 304.37 528.23 379.18"/><polygon class="cls-8" points="525.12 304.53 525.1 304.55 457.77 314.47 397.23 310.29 471.34 297.76 525.1 304.03 525.12 304.37 525.12 304.53"/><polygon class="cls-1" points="564.23 303.18 495.34 317.28 493.77 317.12 433.23 311.01 433.23 234.29 507.34 221.76 561.1 228.03 561.12 228.37 561.12 228.53 564.23 303.18"/><polygon class="cls-4" points="564.23 303.18 495.34 317.28 493.77 317.12 493.77 238.47 561.12 228.37 564.23 303.18"/><polygon class="cls-8" points="561.12 228.53 561.1 228.55 493.77 238.47 433.23 234.29 507.34 221.76 561.1 228.03 561.12 228.37 561.12 228.53"/><path class="cls-13" d="M314.14.15,420.87,29.61l1.39.38a3.94,3.94,0,0,1,3,4.4A3,3,0,0,1,424,36.26L351.36,86.09a3.91,3.91,0,0,1-3.45.39,4.22,4.22,0,0,1-2.62-2.43L330.57,46a2.4,2.4,0,0,0-1.22-1.31,2.45,2.45,0,0,0-2.35,0L317.09,51a4,4,0,0,1-4.6-.35h0a3.5,3.5,0,0,1-1.32-4.19l9-21.13a1.78,1.78,0,0,0,.15-.85,2.13,2.13,0,0,0-.26-.87L310,4.81A3.14,3.14,0,0,1,311.65.24a4.06,4.06,0,0,1,2.49-.09Zm-2.78,4.14,10.06,18.77a4.09,4.09,0,0,1,.31.75l98.42,7.72a1.27,1.27,0,0,1,.26,0,1.6,1.6,0,0,1,1.28,1.72,1.29,1.29,0,0,1-1.19,1L331.39,44.62a3.68,3.68,0,0,1,.62,1.06l14.72,38a2.58,2.58,0,0,0,2.94,1.52,2.09,2.09,0,0,0,.7-.3L423,35.1a2,2,0,0,0,.24-3,2.74,2.74,0,0,0-1.29-.81L420.55,31,313.85,1.5a2.09,2.09,0,0,0-2.7,1.41,2,2,0,0,0,.21,1.38Z"/><path d="M314.14.15,420.87,29.61l1.39.38a3.94,3.94,0,0,1,3,4.4A3,3,0,0,1,424,36.26L351.36,86.09a3.91,3.91,0,0,1-3.45.39,4.22,4.22,0,0,1-2.62-2.43L330.57,46a2.4,2.4,0,0,0-1.22-1.31,2.45,2.45,0,0,0-2.35,0L317.09,51a4,4,0,0,1-4.6-.35h0a3.5,3.5,0,0,1-1.32-4.19l9-21.13a1.78,1.78,0,0,0,.15-.85,2.13,2.13,0,0,0-.26-.87L310,4.81A3.14,3.14,0,0,1,311.65.24a4.06,4.06,0,0,1,2.49-.09Zm-2.78,4.14,10.06,18.77a3.43,3.43,0,0,1,.43,1.45,4.1,4.1,0,0,1,0,.7h0a2.83,2.83,0,0,1-.21.7l-9,21.13a2.07,2.07,0,0,0,.79,2.51h0a2.39,2.39,0,0,0,2.76.21l9.91-6.22a4,4,0,0,1,3.67-.18h0l.24.11a4.36,4.36,0,0,1,1.42,1.13,3.68,3.68,0,0,1,.62,1.06l14.72,38a2.58,2.58,0,0,0,2.94,1.52,2.09,2.09,0,0,0,.7-.3L423,35.1a2,2,0,0,0,.24-3,2.74,2.74,0,0,0-1.29-.81L420.55,31,313.85,1.5a2.09,2.09,0,0,0-2.7,1.41,2,2,0,0,0,.21,1.38Z"/><path d="M321.35,23.78l0,1.4.43,0h0l98.34,7.72L329.73,43.38h0l-.24,0,.34,1.39,1.57-.18L420.5,34.33a1.27,1.27,0,0,0,1.17-1.56,1.69,1.69,0,0,0-1.26-1.2,1.27,1.27,0,0,0-.26,0l-98.42-7.72Z"/><path class="cls-14" d="M3.37,250.18c-8.54,18.36,1.85,40.57,1.85,40.57Z"/><path class="cls-14" d="M20.7,210C4.6,222.34,3.51,246.83,3.51,246.83Z"/><path class="cls-14" d="M50.72,175.38c-19,7-27.24,30.11-27.24,30.11Z"/><path class="cls-14" d="M86.54,145.52c-20,2.95-32.88,23.83-32.88,23.83Z"/><path class="cls-14" d="M8.2,295.76C12.37,315.58,34,327.12,34,327.12Z"/><path class="cls-14" d="M34.18,328.07C47.51,343.32,72,342.81,72,342.81Z"/><path class="cls-14" d="M76.8,342.85c17.68,9.89,40.6,1.18,40.6,1.18Z"/><path class="cls-14" d="M124.41,343.64c20.24.93,36.83-17.12,36.83-17.12Z"/><path class="cls-14" d="M164.77,326.11c17.64-10,22.11-34.06,22.11-34.06Z"/><path class="cls-14" d="M185,290.37c10.1-17.56,1.65-40.58,1.65-40.58Z"/><path class="cls-14" d="M187.49,246.7c-2.64-20.08-23.33-33.24-23.33-33.24Z"/><path class="cls-14" d="M157.57,212.34c-19.64-4.92-39.49,9.48-39.49,9.48Z"/><path class="cls-14" d="M117.14,227.24c-13,15.56-8.62,39.68-8.62,39.68Z"/><path class="cls-14" d="M108.44,271.59c-1.12,20.22,16.77,37,16.77,37Z"/><path class="cls-14" d="M127,311.39c8.17,18.54,31.71,25.38,31.71,25.38Z"/><path class="cls-14" d="M158,337.37c11.29,16.82,35.67,19.42,35.67,19.42Z"/><path class="cls-14" d="M197.3,358.77c12.55,15.9,37,16.62,37,16.62Z"/><path class="cls-14" d="M244.05,72.91C224,69.81,205.6,86,205.6,86Z"/><path class="cls-14" d="M125.61,123.64C105.36,124.09,90,143.23,90,143.23Z"/><path class="cls-14" d="M163.2,104.79c-20.24-.83-36.74,17.3-36.74,17.3Z"/><path class="cls-14" d="M202.28,86.19c-20.23-1-36.9,17-36.9,17Z"/><path class="cls-14" d="M285.48,61.55c-19.74-4.54-39.3,10.24-39.3,10.24Z"/><g id="Layer_2-2" data-name="Layer 2"><g id="Layer_1-2-2" data-name="Layer 1-2"><rect class="cls-15" x="749.89" y="264.59" width="27.21" height="27.21" rx="7.07" transform="matrix(0.99, -0.15, 0.15, 0.99, -32.8, 116.22)"/><path d="M762,268.74A9.88,9.88,0,1,1,753.83,280h0a9.74,9.74,0,0,1,8-11.2Zm9.88,8.47a8.43,8.43,0,1,0-7.08,9.59h.05A8.41,8.41,0,0,0,771.88,277.21Z"/><path d="M762.36,270.76a7.8,7.8,0,1,1-6.51,8.94A7.79,7.79,0,0,1,762.36,270.76Zm.17,1.31c-2.89.47-5.39,3.27-5.36,5.72a3.93,3.93,0,0,0,.52,1.29c.29-.32.8-.6.85-1a5.34,5.34,0,0,1,4.15-4.6c.34-.1.54-.64.81-1Zm6.92,9.14c-.59-.24-1.1-.54-1.15-.47a17.74,17.74,0,0,0-1.1,1.62c.29.17.76.54.83.48A18.21,18.21,0,0,0,769.45,281.21Z"/></g></g></g></g></svg>