<?xml version="1.0" encoding="utf-8"?>
<!-- Generator: Adobe Illustrator 25.2.3, SVG Export Plug-In . SVG Version: 6.00 Build 0)  -->
<svg version="1.1" id="f1a3512c-954b-43cd-b4a7-b2a657bfa049"
	 xmlns="http://www.w3.org/2000/svg" xmlns:xlink="http://www.w3.org/1999/xlink" x="0px" y="0px" viewBox="0 0 1135.2 814.2"
	 style="enable-background:new 0 0 1135.2 814.2;" xml:space="preserve">
<style type="text/css">
	.st0{fill:#6C63FF;}
	.st1{opacity:0.7;}
	.st2{fill:url(#SVGID_1_);}
	.st3{opacity:0.2;enable-background:new    ;}
	.st4{fill:#FFFFFF;}
	.st5{fill:url(#SVGID_2_);}
	.st6{fill:url(#SVGID_3_);}
	.st7{fill:#535461;}
	.st8{opacity:0.1;}
	.st9{fill:#E0E0E0;}
	.st10{fill:url(#SVGID_4_);}
	.st11{fill:url(#SVGID_5_);}
	.st12{fill:url(#SVGID_6_);}
	.st13{fill:url(#SVGID_7_);}
	.st14{fill:#EEEEEE;}
	.st15{fill:url(#SVGID_8_);}
	.st16{opacity:0.1;enable-background:new    ;}
	.st17{fill:url(#SVGID_9_);}
	.st18{fill:none;}
	.st19{fill:#F90000;}
</style>
<path class="st0" d="M991,708.4c-9.2,0.8-18.5,0.7-27.7-0.4c-101.1-11.2-238.8-8-351.1,61.5c-155.2,96.2-398.5,13.8-505.8-31
	c-82-34.2-124.6-118-99-196.7c0.4-1.1,0.7-2.2,1.1-3.3c16.1-46.7,47.9-83.3,87.2-102.7c34.3-16.9,84.3-52.2,106.6-120
	c9.2-28,21.8-54.3,38.2-77.3c43.9-61.5,135.8-153.1,293.8-152.5c27.7,0.1,55.2,4.8,81.4,13.8c57.7,19.7,109.9,59.7,149.6,115.1
	c25.4,35.4,63.4,68.2,117.8,70.9c75.5,3.7,147.6,38.9,201.7,101.5c1.6,1.8,3.1,3.6,4.6,5.4C1185.8,507.5,1118.9,697.2,991,708.4z"/>
<g class="st1">
	
		<linearGradient id="SVGID_1_" gradientUnits="userSpaceOnUse" x1="277.46" y1="118.89" x2="277.46" y2="146.49" gradientTransform="matrix(1 0 0 -1 0 816)">
		<stop  offset="0" style="stop-color:#808080;stop-opacity:0.25"/>
		<stop  offset="0.54" style="stop-color:#808080;stop-opacity:0.12"/>
		<stop  offset="1" style="stop-color:#808080;stop-opacity:0.1"/>
	</linearGradient>
	<circle class="st2" cx="277.5" cy="683.3" r="13.8"/>
</g>
<circle class="st3" cx="277.5" cy="683.3" r="13.2"/>
<circle class="st4" cx="203.1" cy="414.1" r="5.1"/>
<circle class="st4" cx="567.1" cy="710.1" r="5.1"/>
<circle class="st4" cx="352.1" cy="736.1" r="2.8"/>
<circle class="st4" cx="983.1" cy="598.1" r="2.8"/>
<circle class="st4" cx="820.1" cy="342.1" r="2.8"/>
<circle class="st4" cx="1051.1" cy="467.1" r="2.8"/>
<circle class="st4" cx="293.1" cy="247.1" r="5.1"/>
<polygon class="st4" points="152.9,592.2 148.4,592.2 148.4,587.7 146.6,587.7 146.6,592.2 142,592.2 142,594.1 146.6,594.1 
	146.6,598.6 148.4,598.6 148.4,594.1 152.9,594.1 "/>
<polygon class="st4" points="266.9,590.2 262.4,590.2 262.4,585.7 260.5,585.7 260.5,590.2 256,590.2 256,592.1 260.5,592.1 
	260.5,596.6 262.4,596.6 262.4,592.1 266.9,592.1 "/>
<polygon class="st4" points="429.9,682.2 425.4,682.2 425.4,677.7 423.5,677.7 423.5,682.2 419,682.2 419,684.1 423.5,684.1 
	423.5,688.6 425.4,688.6 425.4,684.1 429.9,684.1 "/>
<polygon class="st4" points="657,130.7 654.9,130.7 654.9,128.6 654.1,128.6 654.1,130.7 652,130.7 652,131.6 654.1,131.6 
	654.1,133.6 654.9,133.6 654.9,131.6 657,131.6 "/>
<polygon class="st4" points="952,320.7 949.9,320.7 949.9,318.6 949.1,318.6 949.1,320.7 947,320.7 947,321.5 949.1,321.5 
	949.1,323.6 949.9,323.6 949.9,321.5 952,321.5 "/>
<polygon class="st4" points="778,444.7 775.9,444.7 775.9,442.6 775.1,442.6 775.1,444.7 773,444.7 773,445.5 775.1,445.5 
	775.1,447.6 775.9,447.6 775.9,445.5 778,445.5 "/>
<polygon class="st4" points="70,522.7 67.9,522.7 67.9,520.6 67.1,520.6 67.1,522.7 65,522.7 65,523.5 67.1,523.5 67.1,525.6 
	67.9,525.6 67.9,523.5 70,523.5 "/>
<polygon class="st4" points="155,692.7 152.9,692.7 152.9,690.6 152.1,690.6 152.1,692.7 150,692.7 150,693.5 152.1,693.5 
	152.1,695.6 152.9,695.6 152.9,693.5 155,693.5 "/>
<polygon class="st4" points="422,155.7 419.9,155.7 419.9,153.6 419.1,153.6 419.1,155.7 417,155.7 417,156.6 419.1,156.6 
	419.1,158.6 419.9,158.6 419.9,156.6 422,156.6 "/>
<polygon class="st4" points="296,454.7 293.9,454.7 293.9,452.6 293.1,452.6 293.1,454.7 291,454.7 291,455.5 293.1,455.5 
	293.1,457.6 293.9,457.6 293.9,455.5 296,455.5 "/>
<polygon class="st4" points="323,368.7 320.9,368.7 320.9,366.6 320.1,366.6 320.1,368.7 318,368.7 318,369.5 320.1,369.5 
	320.1,371.6 320.9,371.6 320.9,369.5 323,369.5 "/>
<g class="st1">
	
		<linearGradient id="SVGID_2_" gradientUnits="userSpaceOnUse" x1="748.15" y1="248.83" x2="748.15" y2="271.87" gradientTransform="matrix(1 0 0 -1 0 816)">
		<stop  offset="0" style="stop-color:#808080;stop-opacity:0.25"/>
		<stop  offset="0.54" style="stop-color:#808080;stop-opacity:0.12"/>
		<stop  offset="1" style="stop-color:#808080;stop-opacity:0.1"/>
	</linearGradient>
	<circle class="st5" cx="748.2" cy="555.7" r="11.5"/>
</g>
<circle class="st3" cx="748.2" cy="555.7" r="10.7"/>
<circle class="st3" cx="776.9" cy="630.8" r="11.9"/>
<g class="st1">
	
		<linearGradient id="SVGID_3_" gradientUnits="userSpaceOnUse" x1="556.95" y1="108.87" x2="556.95" y2="773.0962" gradientTransform="matrix(1 0 0 -1 -32.41 773.11)">
		<stop  offset="0" style="stop-color:#808080;stop-opacity:0.25"/>
		<stop  offset="0.54" style="stop-color:#808080;stop-opacity:0.12"/>
		<stop  offset="1" style="stop-color:#808080;stop-opacity:0.1"/>
	</linearGradient>
	<path class="st6" d="M670,307c0.1-25.1-5.9-49.8-17.5-72c-5.5-10.4-10.5-16.9-14.4-20.9c-3-3.2-7.7-4.1-11.7-2.3
		c-1.6,0.6-3,1.5-4.1,2.7c-5.2,5.4-9.9,12.5-14,20.1c-12.2,22.8-18.5,48.2-18.4,74v15.5H580v-180c0-37.7-8.4-74.9-25-107.9
		c-7.8-15.6-15-25.4-20.5-31.3c-5.2-5.9-14.1-6.5-20-1.3c-0.5,0.4-0.9,0.8-1.3,1.3c-7.4,8.1-14.2,18.8-20,30.2
		c-17.4,33.7-26.2,72-26.2,110.8V324h-8.6v-16.2c0.1-25.8-6.2-51.2-18.4-73.9c-4.1-7.6-8.8-14.7-14-20.1c-3.1-3.3-8-4.2-12-2.2
		l0.4,0.2c-1.3,0.6-2.4,1.4-3.4,2.3c-3.9,4-8.9,10.5-14.4,20.9c-11.6,22.2-17.6,46.9-17.5,72v269h30.6l-3.4,22.1v66.1h25.1v-66.1
		l-3.4-22.1h30.2V331h8.6v243.9h24.5l-3.5,23.2v66.1h25.1v-66.1l-3.5-23.2h33l-3.5,23.2v66.1h25.1v-66.1l-3.5-23.2h19.5V331h9.9
		v245.4h8V576h26.6l-3.3,22.1v66.1h25.1v-66.1l-3.3-22.1H670V307z"/>
</g>
<polygon class="st7" points="436.4,585.2 412.7,585.2 416.9,556.4 432.2,556.4 "/>
<g class="st8">
	<polygon points="415.7,567.9 433.3,567.9 432.2,559.8 416.9,559.8 	"/>
</g>
<polygon class="st7" points="639.8,585.2 616,585.2 620.3,556.4 635.5,556.4 "/>
<g class="st8">
	<polygon points="619.1,567.9 636.7,567.9 635.5,559.8 620.3,559.8 	"/>
</g>
<polygon class="st7" points="513.5,585.2 489.8,585.2 494,556.4 509.3,556.4 "/>
<g class="st8">
	<polygon points="492.8,567.9 510.5,567.9 509.3,559.8 494,559.8 	"/>
</g>
<polygon class="st7" points="561.8,585.2 538.1,585.2 542.3,556.4 557.6,556.4 "/>
<g class="st8">
	<polygon points="541.1,567.9 558.8,567.9 557.6,559.8 542.3,559.8 	"/>
</g>
<rect x="436.4" y="318.4" class="st7" width="169.5" height="6.8"/>
<path class="st9" d="M632.1,211.3c-3.5-3.9-9.6-4.2-13.5-0.7c-0.2,0.2-0.5,0.4-0.7,0.7c-4.9,5.3-9.4,12.2-13.3,19.6
	c-11.5,22.2-17.5,46.9-17.4,72v260.8h75V301.8c0.1-24.4-5.6-48.4-16.6-70.1C640.4,221.5,635.7,215.1,632.1,211.3z"/>
<path class="st9" d="M417,211.3c3.5-3.9,9.6-4.2,13.5-0.7c0.2,0.2,0.5,0.4,0.7,0.7c4.9,5.3,9.4,12.2,13.3,19.6
	c11.5,22.2,17.5,46.9,17.4,72v260.8h-75V301.8c-0.1-24.4,5.6-48.4,16.6-70.1C408.6,221.5,413.3,215.1,417,211.3z"/>
<polygon class="st7" points="386.8,307.3 404.6,307.4 404.6,329.4 386.8,329.4 "/>
<polygon class="st7" points="444,307.3 461.8,307.4 461.8,329.4 444,329.4 "/>
<polygon class="st7" points="587.2,307.3 605,307.4 605,329.4 587.2,329.4 "/>
<polygon class="st7" points="644.4,307.3 662.2,307.4 662.2,329.4 644.4,329.4 "/>
<g class="st8">
	<path d="M444.4,230.5c-3.9-7.4-8.4-14.3-13.3-19.6c-2.9-3.2-7.5-4.1-11.3-2.1c1.1,0.5,2,1.3,2.9,2.1c4.9,5.3,9.4,12.2,13.3,19.6
		c11.5,22.2,17.5,46.9,17.4,72v260.8h8.5V302.5C461.9,277.5,456,252.8,444.4,230.5z"/>
</g>
<g class="st8">
	<path d="M611.4,231.3c3.9-7.4,8.3-14.3,13.3-19.6c0.9-1,2-1.8,3.3-2.3c-3.8-1.6-8.1-0.7-10.9,2.3c-4.9,5.3-9.4,12.2-13.3,19.6
		c-11.5,22.2-17.5,46.9-17.4,72v260.9h7.6V303.3C593.9,278.2,599.8,253.5,611.4,231.3z"/>
</g>
<linearGradient id="SVGID_4_" gradientUnits="userSpaceOnUse" x1="456.945" y1="187.86" x2="456.945" y2="123.46" gradientTransform="matrix(1 0 0 -1 -32.41 773.11)">
	<stop  offset="0" style="stop-color:#E0E0E0"/>
	<stop  offset="0.31" style="stop-color:#FCCC63"/>
	<stop  offset="0.77" style="stop-color:#F55F44"/>
</linearGradient>
<path class="st10" d="M424.9,649.6h-0.6c-6.4,0-11.5-5.2-11.5-11.5v-52.9h23.7v52.9C436.4,644.5,431.2,649.6,424.9,649.6z"/>
<linearGradient id="SVGID_5_" gradientUnits="userSpaceOnUse" x1="534.05" y1="187.86" x2="534.05" y2="123.46" gradientTransform="matrix(1 0 0 -1 -32.41 773.11)">
	<stop  offset="0" style="stop-color:#E0E0E0"/>
	<stop  offset="0.31" style="stop-color:#FCCC63"/>
	<stop  offset="0.77" style="stop-color:#F55F44"/>
</linearGradient>
<path class="st11" d="M502,649.6h-0.7c-6.4,0-11.5-5.2-11.5-11.5v-52.9h23.7v52.9C513.5,644.5,508.3,649.6,502,649.6z"/>
<linearGradient id="SVGID_6_" gradientUnits="userSpaceOnUse" x1="582.35" y1="187.86" x2="582.35" y2="123.46" gradientTransform="matrix(1 0 0 -1 -32.41 773.11)">
	<stop  offset="0" style="stop-color:#E0E0E0"/>
	<stop  offset="0.31" style="stop-color:#FCCC63"/>
	<stop  offset="0.77" style="stop-color:#F55F44"/>
</linearGradient>
<path class="st12" d="M550.3,649.6h-0.7c-6.4,0-11.5-5.2-11.5-11.5v-52.9h23.7v52.9C561.8,644.5,556.6,649.6,550.3,649.6z"/>
<linearGradient id="SVGID_7_" gradientUnits="userSpaceOnUse" x1="660.3" y1="187.86" x2="660.3" y2="123.46" gradientTransform="matrix(1 0 0 -1 -32.41 773.11)">
	<stop  offset="0" style="stop-color:#E0E0E0"/>
	<stop  offset="0.31" style="stop-color:#FCCC63"/>
	<stop  offset="0.77" style="stop-color:#F55F44"/>
</linearGradient>
<path class="st13" d="M628.2,649.6h-0.6c-6.4,0-11.5-5.1-11.6-11.5c0,0,0,0,0,0v-52.9h23.7v52.9
	C639.8,644.5,634.6,649.6,628.2,649.6z"/>
<path class="st14" d="M533.9,6.8c-4.7-5.6-13-6.3-18.6-1.6c-0.6,0.5-1.1,1-1.6,1.6c-7,7.9-13.4,18.3-19,29.4
	C478.3,69,469.9,106.2,469.9,144v418.6h107V142.4c0-36.7-8-73-23.6-105.1C545.9,22,539.1,12.6,533.9,6.8z"/>
<path class="st7" d="M505.5,52.8h34.5c6.2,0,11.2,5,11.2,11.2v3.7c0,6.2-5,11.2-11.2,11.2h-34.5c-6.2,0-11.2-5-11.2-11.2V64
	C494.3,57.8,499.3,52.8,505.5,52.8z"/>
<g class="st8">
	<rect x="470.5" y="158.4" width="105.9" height="4.1"/>
</g>
<linearGradient id="SVGID_8_" gradientUnits="userSpaceOnUse" x1="766.0677" y1="406.71" x2="766.0677" y2="475.3757" gradientTransform="matrix(1 0 0 -1 -32.41 773.11)">
	<stop  offset="0" style="stop-color:#808080;stop-opacity:0.25"/>
	<stop  offset="0.54" style="stop-color:#808080;stop-opacity:0.12"/>
	<stop  offset="1" style="stop-color:#808080;stop-opacity:0.1"/>
</linearGradient>
<path class="st15" d="M761,311.3L761,311.3c-2.8-3.6-6.3-6.7-10.2-9l0,0c-16.4-9.5-37.4-3.8-46.9,12.6c-9.5,16.4-3.8,37.4,12.6,46.9
	c5.2,3,11.1,4.6,17.1,4.6c0.7,0,1.5,0,2.2-0.1c18.9-1.2,33.3-17.5,32.1-36.4C767.5,323.2,765.1,316.8,761,311.3L761,311.3z"/>
<path class="st3" d="M766.1,332c0,17.1-13.3,31.3-30.4,32.4c-0.7,0-1.4,0.1-2,0.1c-17.9,0-32.5-14.5-32.5-32.4
	c0-17.9,14.5-32.5,32.4-32.5c5.7,0,11.3,1.5,16.3,4.4l0,0c3.8,2.2,7,5.1,9.7,8.6l0,0C763.8,318.1,766.1,325,766.1,332z"/>
<path class="st16" d="M725.7,311.4c-1.7,0.7-3.3,1.6-4.8,2.5c-1,0.6-1.9,1.4-2.6,2.3c-0.7,1-0.7,2.3-0.1,3.3
	c0.8,1.1,2.3,1.2,3.7,1.3c1.4,0.2,2.8,0,4.2-0.4c0.9-0.4,1.7-1,2.4-1.8l2.8-2.5c1-0.9,2-2.1,1.6-3.3c-0.5-0.9-1.4-1.5-2.4-1.6
	c-2.4-0.5-4.9,0-7,1.2"/>
<g class="st8">
	<circle cx="714" cy="344.8" r="1.7"/>
</g>
<g class="st8">
	<circle cx="748.7" cy="334" r="6.3"/>
</g>
<g class="st8">
	<path d="M759.6,312.5L759.6,312.5c-0.1,4.7-3.9,8.5-8.6,8.4c-4.7-0.1-8.5-3.9-8.4-8.6c0-4.2,3.2-7.8,7.4-8.4l0,0
		C753.7,306.1,757,309,759.6,312.5z"/>
</g>
<g class="st8">
	<path d="M760.2,350.7c-5.7,8-14.7,13.1-24.5,13.7c0-0.5-0.1-0.9-0.1-1.4c0-8.5,6.9-15.4,15.4-15.4
		C754.3,347.7,757.5,348.7,760.2,350.7L760.2,350.7z"/>
</g>
<linearGradient id="SVGID_9_" gradientUnits="userSpaceOnUse" x1="330.9103" y1="238.1496" x2="330.9103" y2="286.0596" gradientTransform="matrix(1 0 0 -1 -32.41 773.11)">
	<stop  offset="0" style="stop-color:#808080;stop-opacity:0.25"/>
	<stop  offset="0.54" style="stop-color:#808080;stop-opacity:0.12"/>
	<stop  offset="1" style="stop-color:#808080;stop-opacity:0.1"/>
</linearGradient>
<path class="st17" d="M317.8,496.6L317.8,496.6c-1.9-2.6-4.4-4.7-7.1-6.3l0,0c-11.4-6.7-26.1-2.9-32.8,8.6s-2.9,26.1,8.6,32.8
	c3.7,2.2,8,3.3,12.3,3.3c0.5,0,1,0,1.5,0c13.2-0.9,23.2-12.3,22.3-25.6C322.2,504.7,320.5,500.3,317.8,496.6L317.8,496.6z"/>
<path class="st3" d="M321.3,511c0,11.9-9.3,21.8-21.2,22.6c-0.5,0-1,0-1.4,0c-12.5,0-22.6-10.1-22.6-22.6s10.1-22.6,22.6-22.6
	c4,0,7.9,1,11.3,3l0,0c2.6,1.5,4.9,3.6,6.7,6l0,0C319.7,501.3,321.3,506.1,321.3,511z"/>
<path class="st16" d="M293.1,496.6c-1.2,0.5-2.3,1.1-3.4,1.8c-0.7,0.4-1.3,1-1.8,1.6c-0.5,0.7-0.5,1.6,0,2.3c0.7,0.7,1.6,1,2.5,0.9
	c1,0.1,2,0,2.9-0.3c0.6-0.3,1.2-0.7,1.7-1.2l1.9-1.8c0.7-0.6,1.4-1.5,1.1-2.3c-0.3-0.6-0.9-1.1-1.6-1.1c-1.7-0.3-3.4,0-4.9,0.9"/>
<g class="st8">
	<circle cx="284.9" cy="519.9" r="1.2"/>
</g>
<g class="st8">
	<circle cx="309.2" cy="512.4" r="4.4"/>
</g>
<g class="st8">
	<path d="M316.7,497.4L316.7,497.4c0,3.3-2.7,6-6,6c-3.3,0-6-2.7-6-6c0-3,2.3-5.5,5.2-5.9l0,0C312.6,492.9,314.9,494.9,316.7,497.4z
		"/>
</g>
<g class="st8">
	<path d="M317.1,524c-3.9,5.6-10.2,9.1-17.1,9.6c0-0.3,0-0.6,0-1c0-5.9,4.8-10.7,10.7-10.7C313.1,521.9,315.3,522.6,317.1,524
		L317.1,524z"/>
</g>
<polyline class="st18" points="837.7,539.4 859.5,551 842.5,570.1 "/>
<circle class="st4" cx="954.9" cy="428.2" r="1.8"/>
<path d="M504.2,52.9h37.1c1,0,1.8,0.8,1.8,1.8c0,1.1-1,2-2.2,1.8c-1.8-0.3-3.7-0.3-5.7,0.5c-3.5,1.4-3.7,4.5-8.1,6.3
	c-3.8,1.6-7.7,0.1-8.1,0c-4.6-1.8-4.4-5.8-8.3-6.3c-2.5-0.4-3.9-0.5-6.6-0.3c-1.1,0.1-2-0.8-2-1.8v-0.2c0-0.1-0.2-0.7,0.2-1.3
	C502.9,52.9,503.6,52.6,504.2,52.9z"/>
<circle class="st4" cx="523.4" cy="58.9" r="4.4"/>
<path class="st19" d="M523.2,0c1.3-0.1,3.2,0,5.4,0.8c2.4,0.9,3.9,2.2,5.3,3.4c1.8,1.6,3.2,3.4,5.9,7c1.4,1.8,2.4,3.3,3.6,5
	c1.4,2-26,3.7-41.2,3.1c0.7-1,5-7.2,8.1-11.3c0.5-0.6,1.3-1.7,2.5-2.9c1.2-1.3,2.2-2.2,3.7-3.1C519.2,0.4,521.9,0.1,523.2,0z"/>
<polyline class="st19" points="502.2,19.3 545.5,19.4 543.4,16.2 "/>
<polygon class="st19" points="497.8,26.4 549.7,26.4 551.9,30.3 495.6,30.3 "/>
</svg>
