<?xml version="1.0" encoding="UTF-8" standalone="no"?>
<!DOCTYPE svg PUBLIC "-//W3C//DTD SVG 1.1//EN" "http://www.w3.org/Graphics/SVG/1.1/DTD/svg11.dtd">
<svg version="1.1" xmlns="http://www.w3.org/2000/svg" xmlns:xlink="http://www.w3.org/1999/xlink" preserveAspectRatio="xMidYMid meet" viewBox="0 0 1200 1200" width="1200" height="1200"><defs><path d="M424.63 49.27C367.27 31.56 310.43 11.84 249.13 3.17C209.71 -2.39 164.78 -2.22 133.59 16.73C103.57 34.97 94.46 65.41 89.86 93.57C86.38 114.76 84.58 137.01 95.97 156.5C103.87 170.02 117.58 181.22 127.2 194.12C160.65 239.02 139.19 295.91 105.23 341.36C89.25 362.69 70.71 383.11 58.56 405.69C46.42 428.26 41.17 453.94 52.82 476.39C64.37 498.64 91 514.92 119.68 526.14C177.95 548.9 246.1 554.17 312.46 556.47C459.4 561.59 606.82 554.26 753.84 546.93C808.25 544.22 862.9 541.48 916.28 532.95C945.92 528.2 976.48 521.03 997.69 505.04C1024.66 484.73 1030.65 451.31 1011.68 427.13C979.87 386.57 894.43 378.37 871.84 334.56C859.39 310.44 870.9 282.96 887.58 259.91C923.36 210.46 984.26 166.35 986.18 110.77C987.49 72.6 956.79 35.14 910.31 18.22C861.53 0.42 794.71 4.41 759.83 36.58C723.95 69.69 659.86 83.65 604.56 83.33C541.97 82.97 481.98 66.98 424.63 49.27Z" id="b2U4LgJMIE"></path><path d="M568.97 243.66C568.97 243.66 541.52 195.02 500.17 181.01C482.79 175.24 467.75 163.99 457.31 148.95C452.41 141.77 448.17 134.16 444.66 126.2" id="a5RvJRFaHz"></path><path d="M445.32 126.51C445.32 126.51 439.94 104.73 435.24 100.15C430.52 95.58 423 95.69 418.42 100.4C413.85 105.11 413.96 112.64 418.67 117.21C423.38 121.79 439.99 124.65 445.32 126.51Z" id="i4pR4Y1Uhj"></path><path d="M458.57 149.99C458.57 149.99 442.12 134.6 435.71 133.33C429.27 132.06 423.02 136.26 421.75 142.7C420.48 149.15 424.68 155.4 431.13 156.67C437.57 157.95 453.08 151.32 458.57 149.99Z" id="awmL4FQqO"></path><path d="M496.58 179.7C496.58 179.7 474.71 174.71 468.51 176.84C462.27 178.9 458.89 185.63 460.95 191.86C463.01 198.09 469.73 201.48 475.96 199.42C476.07 199.38 476.17 199.35 476.28 199.31C482.48 197.16 492.52 183.62 496.58 179.7Z" id="ah8f6yiRL"></path><path d="M541.07 208C541.07 208 520.36 199.37 513.87 200.44C507.39 201.51 503.01 207.63 504.08 214.11C505.15 220.59 511.27 224.97 517.75 223.9C517.75 223.9 517.75 223.9 517.75 223.9C524.22 222.83 536.41 211.18 541.07 208Z" id="c1Bu7TQKsg"></path><path d="M464.93 158.55C464.93 158.55 453.03 139.52 453.03 132.95C453.03 126.38 458.36 121.06 464.92 121.06C471.49 121.06 476.81 126.38 476.81 132.95C476.81 139.51 467.31 153.43 464.93 158.55Z" id="dssn5skfF"></path><path d="M505.96 183.19C505.96 183.19 500.31 161.46 502.27 155.22C504.23 148.95 510.9 145.46 517.17 147.42C523.43 149.38 526.92 156.05 524.96 162.32C522.94 168.57 509.76 179.01 505.96 183.19Z" id="b375Ss5mVf"></path><path d="M552.61 221.06C552.61 221.06 543.37 200.61 544.24 194.09C545.11 187.59 551.1 183.02 557.6 183.9C564.11 184.77 568.68 190.75 567.8 197.26C567.8 197.26 567.8 197.26 567.8 197.26C566.93 203.77 555.65 216.3 552.61 221.06Z" id="a10LtGpKsl"></path><path d="M445.32 126.51C445.32 126.51 439.94 104.73 435.24 100.15C430.52 95.58 423 95.69 418.42 100.4C413.85 105.11 413.96 112.64 418.67 117.21C423.38 121.79 439.99 124.65 445.32 126.51Z" id="a12WyzINMY"></path><path d="M458.57 149.99C458.57 149.99 442.12 134.6 435.71 133.33C429.27 132.06 423.02 136.26 421.75 142.7C420.48 149.15 424.68 155.4 431.13 156.67C437.57 157.95 453.08 151.32 458.57 149.99Z" id="c2colZaMBW"></path><path d="M541.07 208C541.07 208 520.36 199.37 513.87 200.44C507.39 201.51 503.01 207.63 504.08 214.11C505.15 220.59 511.27 224.97 517.75 223.9C517.75 223.9 517.75 223.9 517.75 223.9C524.22 222.83 536.41 211.18 541.07 208Z" id="fo6Exfz2v"></path><path d="M464.93 158.55C464.93 158.55 453.03 139.52 453.03 132.95C453.03 126.38 458.36 121.06 464.92 121.06C471.49 121.06 476.81 126.38 476.81 132.95C476.81 139.51 467.31 153.43 464.93 158.55Z" id="a1GTLgqJqG"></path><path d="M505.96 183.19C505.96 183.19 500.31 161.46 502.27 155.22C504.23 148.95 510.9 145.46 517.17 147.42C523.43 149.38 526.92 156.05 524.96 162.32C522.94 168.57 509.76 179.01 505.96 183.19Z" id="bLn5HWqb6"></path><path d="M552.61 221.06C552.61 221.06 543.37 200.61 544.24 194.09C545.11 187.59 551.1 183.02 557.6 183.9C564.11 184.77 568.68 190.75 567.8 197.26C567.8 197.26 567.8 197.26 567.8 197.26C566.93 203.77 555.65 216.3 552.61 221.06Z" id="adywZyxxr"></path><path d="M567.4 242.7C567.4 242.7 562.01 187.1 529.9 157.54C516.34 145.22 507.15 128.84 503.7 110.86C502.13 102.31 501.34 93.63 501.36 84.94" id="a11ER2zOih"></path><path d="M501.83 85.49C501.83 85.49 505.73 63.39 503.28 57.29C500.92 51.17 494.04 48.11 487.91 50.47C481.79 52.83 478.73 59.7 481.09 65.83C481.14 65.95 481.18 66.07 481.23 66.18C483.68 72.28 497.71 81.63 501.83 85.49Z" id="f17dwlFSV"></path><path d="M504.37 112.26C504.37 112.26 495.65 91.58 490.28 87.81C484.91 84.03 477.49 85.32 473.72 90.69C469.94 96.06 471.23 103.48 476.6 107.26C476.6 107.26 476.6 107.26 476.6 107.26C481.97 111.04 498.82 111.26 504.37 112.26Z" id="czLpM50Vp"></path><path d="M527.14 154.88C527.14 154.88 509.16 141.45 502.62 140.9C496.07 140.34 490.32 145.2 489.77 151.74C489.22 158.29 494.08 164.04 500.62 164.59C500.62 164.59 500.62 164.59 500.62 164.59C507.17 165.14 521.83 156.82 527.14 154.88Z" id="a3O8butYW"></path><path d="M556.34 198.78C556.34 198.78 540.89 182.5 534.54 180.8C528.28 178.82 521.6 182.3 519.63 188.56C517.65 194.82 521.13 201.5 527.39 203.47C527.77 203.59 528.16 203.69 528.55 203.77C534.93 205.51 550.78 199.78 556.34 198.78Z" id="cR8U4XwB"></path><path d="M506.78 122.72C506.78 122.72 503.62 100.5 506.27 94.5C508.93 88.5 515.95 85.78 521.95 88.44C527.96 91.09 530.67 98.11 528.02 104.12C525.36 110.11 511.03 119 506.78 122.72Z" id="aPdJxab1q"></path><path d="M534.28 161.86C534.28 161.86 537.91 139.72 542.27 134.78C546.6 129.85 554.12 129.36 559.05 133.69C563.99 138.03 564.47 145.54 560.14 150.48C555.78 155.4 539.45 159.58 534.28 161.86Z" id="a4XXEiMHS7"></path><path d="M561.6 215.4C561.6 215.4 561.43 192.96 564.86 187.35C568.46 181.85 575.83 180.31 581.33 183.91C586.61 187.36 588.28 194.33 585.13 199.8C581.7 205.39 566.3 212.28 561.6 215.4Z" id="cBnHLXXwq"></path><path d="M782.42 610.5C759.29 612.17 740.27 609.45 737.86 604.58C735.46 599.7 750.19 593.79 772.82 591.12C798.08 588.17 823.19 590.27 826.14 596.21C829.09 602.2 808.24 608.64 782.42 610.5Z" id="am1bsBoLx"></path><path d="M537.3 166.53L537.3 555.86L219.09 549.23L219.09 279.23L219.09 279.23L537.3 166.53Z" id="b19NZwbpT"></path><path d="M537.3 166.53L537.3 555.86L219.09 549.23L219.09 279.23L219.09 279.23L537.3 166.53Z" id="bmLamydsy"></path><path d="M182.13 279.23L182.13 549.23L0.59 549.23L0.59 343.52L0.59 343.52L182.13 279.23Z" id="f1WwAPAGH9"></path><path d="M182.13 279.23L182.13 549.23L0.59 549.23L0.59 343.52L0.59 343.52L182.13 279.23Z" id="feRY6nDaF"></path><path d="M855.5 279.23L855.5 549.23L537.3 555.86L537.3 166.53L537.3 166.53L855.5 279.23Z" id="aLlr7CER"></path><path d="M855.5 279.23L855.5 549.23L537.3 555.86L537.3 166.53L537.3 166.53L855.5 279.23Z" id="aFhCOwyTI"></path><path d="M893.45 279.23L893.45 549.23L1077.28 549.23L1077.28 344.33L1077.28 344.33L893.45 279.23Z" id="b2nWhJc9Mh"></path><path d="M893.45 279.23L893.45 549.23L1077.28 549.23L1077.28 344.33L1077.28 344.33L893.45 279.23Z" id="dOnu0tL7C"></path><path d="M496.58 179.7C496.58 179.7 474.71 174.71 468.51 176.84C462.27 178.9 458.89 185.63 460.95 191.86C463.01 198.09 469.73 201.48 475.96 199.42C476.07 199.38 476.17 199.35 476.28 199.31C482.48 197.16 492.52 183.62 496.58 179.7Z" id="b18VzInoE6"></path><path d="M554.77 501.63C565.13 513.81 570.66 525.18 560.69 525.47C551.4 525.74 540.26 542.34 537.6 546.53C537.68 546.87 537.78 547.21 537.91 547.53C537.91 547.53 550.97 525.81 561.6 525.56C572.23 525.31 565.24 512.25 553.56 499.19C554.07 499.94 554.48 500.76 554.77 501.63Z" id="c15cjhMhdn"></path><path d="M563.88 514C563.5 514 563.2 511.8 563.2 509.07C563.2 506.34 563.58 507.62 563.96 507.62C564.34 507.62 564.56 506.34 564.56 509.07C564.56 511.8 564.26 514 563.88 514Z" id="k6AkYjKUM"></path><path d="M563.69 514.08C563.51 513.75 565.29 512.42 567.68 511.09C570.07 509.75 569.13 510.74 569.31 511.09C569.49 511.44 570.74 511.02 568.34 512.32C565.95 513.62 563.87 514.41 563.69 514.08Z" id="a16iMqpqgJ"></path><path d="M525 518.64C533.66 530.33 540.79 540.22 537.91 547.49C537.91 547.49 524.85 525.77 514.21 525.52C503.58 525.27 510.57 512.25 522.26 499.19C522.81 503.08 516.34 506.94 525 518.64Z" id="az4agmpY"></path><path d="M550.82 518.64C542.16 530.33 535.01 540.22 537.91 547.49C537.91 547.49 550.97 525.77 561.6 525.52C572.23 525.27 565.24 512.25 553.56 499.19C553.01 503.08 559.48 506.94 550.82 518.64Z" id="bjZUVcTOY"></path><path d="M521.06 501.63C510.68 513.81 505.15 525.18 515.13 525.47C524.41 525.74 535.56 542.34 538.23 546.53C538.14 546.87 538.03 547.21 537.91 547.53C537.91 547.53 524.85 525.81 514.21 525.56C503.58 525.31 510.57 512.25 522.26 499.19C521.75 499.94 521.34 500.76 521.06 501.63Z" id="a5Mryg9IV"></path><path d="M511.94 514C512.32 514 512.63 511.8 512.63 509.07C512.63 506.34 512.24 507.62 511.87 507.62C511.5 507.62 511.26 506.34 511.26 509.07C511.26 511.8 511.56 514 511.94 514Z" id="anJxGY5Aw"></path><path d="M512.14 514.08C512.32 513.75 510.53 512.42 508.14 511.09C505.75 509.75 506.69 510.74 506.51 511.09C506.33 511.44 505.04 511.02 507.47 512.32C509.87 513.62 511.96 514.41 512.14 514.08Z" id="cx5b6OE9"></path><path d="M599.83 597.25C599.83 602.49 572.11 606.74 537.91 606.74C503.7 606.74 475.98 602.49 475.98 597.25C475.98 592 503.7 587.75 537.91 587.75C572.11 587.75 599.83 592 599.83 597.25Z" id="f2xQetfuwk"></path><path d="M569.49 539.47L569.07 542.89L568.9 544.31L568.48 547.73L568.3 549.15L567.89 552.57C565.04 575.88 563.46 588.83 563.15 591.42C562.73 594.89 557.06 597.6 550.22 597.6C547.76 597.6 528.06 597.6 525.6 597.6C518.76 597.6 513.1 594.89 512.68 591.42C512.36 588.83 510.78 575.88 507.93 552.57L507.51 549.15L507.34 547.73L506.92 544.31L506.74 542.89L506.33 539.47C506.15 538.02 506.05 537.22 506.03 537.06C505.79 535.06 508.86 533.43 512.74 533.43C517.77 533.43 558.06 533.43 563.1 533.43C566.97 533.43 570.03 535.09 569.79 537.06C569.75 537.38 569.65 538.18 569.49 539.47Z" id="b1CYXooAcH"></path><path d="M569.07 542.89L506.74 542.89L506.33 539.47L569.49 539.47L569.49 539.47L569.07 542.89Z" id="evHQRZcJU"></path><path d="M568.48 547.73L507.34 547.73L506.92 544.32L568.9 544.32L568.9 544.32L568.48 547.73Z" id="eYxRXK7k9"></path><path d="M567.89 552.58L507.93 552.58L507.51 549.16L568.3 549.16L568.3 549.16L567.89 552.58Z" id="a5TBdRedyx"></path><path d="M407.97 338.75C407.8 338.99 407.51 339.11 407.23 339.06C406.24 338.82 398.36 336.93 397.37 336.7C396.99 336.55 396.72 336.21 396.69 335.8C396.51 334.49 395.11 324.05 394.93 322.74C394.88 322.39 394.96 322.04 395.16 321.75C396.11 320.48 403.73 310.36 404.68 309.09C405.41 308.04 405.32 306.63 404.46 305.68C402.66 303.89 400.25 302.82 397.71 302.69C397.57 302.67 397.43 302.67 397.29 302.69C394.63 302.89 388.94 304.86 384.54 311.04C380.28 317.03 375.81 328.08 379.77 340.42C380.24 341.91 380.77 343.88 379.19 345.97C377.61 348.06 336.79 398.91 336.79 398.91C332.96 403.27 333.24 411.34 336.79 416.04C338.32 418.21 340.78 419.54 343.43 419.63C346.03 419.58 348.41 418.19 349.71 415.95C349.71 415.95 387.81 362.21 389.67 359.76C390.18 358.93 391.05 358.4 392.03 358.33C392.69 358.37 393.32 358.6 393.84 359C395.87 360.39 398.27 361.12 400.73 361.09C406.42 361.09 412.4 357.59 416.06 352.76C419.83 347.9 422.02 342 422.34 335.86C422.47 332.51 421.68 329.18 420.07 326.24C419.75 325.5 418.88 325.16 418.14 325.49C417.88 325.6 417.66 325.79 417.51 326.02C417.51 326.03 408.92 337.48 407.97 338.75ZM342.09 410.65C341.8 410.46 341.55 410.21 341.36 409.92C340.22 408.23 340.22 406.02 341.36 404.33C342.13 403.16 343.7 402.84 344.86 403.6C345.15 403.79 345.4 404.04 345.59 404.33C346.73 406.02 346.74 408.23 345.6 409.92C344.82 411.09 343.26 411.42 342.09 410.65Z" id="cMHy3dsmA"></path><path d="M706.78 296.34C690.14 296.34 675.49 306.71 666.69 322.57C663.99 321.16 660.99 320.43 657.95 320.42C645.24 320.42 634.97 334.4 634.74 350.16C621.76 355.32 613.21 371.14 613.21 387.74C613.21 408.09 626.43 426.04 642.73 426.04C653.47 426.04 739.32 426.04 750.05 426.04C766.36 426.04 779.59 408.07 779.59 387.74C779.59 369.62 769.06 353.65 755.22 350.57C752.59 320.09 731.92 296.34 706.78 296.34ZM687.54 398.02C687.54 398.02 687.54 398.02 687.54 398.02C686.98 398.71 685.54 400.24 683.77 400.24C682.23 400.07 680.84 399.22 679.97 397.94C678.15 395.67 663.56 377.49 661.74 375.21C661.22 374.53 661.22 373.59 661.74 372.91C662.32 372.19 666.95 366.42 667.53 365.7C667.74 365.4 668.07 365.22 668.43 365.21C668.8 365.22 669.13 365.4 669.34 365.7C670.31 366.89 675.12 372.89 683.78 383.67C707.56 353.79 720.77 337.18 723.41 333.86C723.62 333.57 723.96 333.39 724.32 333.37C724.68 333.37 725.03 333.56 725.23 333.86C725.8 334.6 730.34 340.47 730.91 341.2C731.49 341.87 731.51 342.85 730.98 343.55C730.98 343.55 716.5 361.71 687.54 398.02Z" id="b19kSdJClt"></path><path d="M1074.89 551.07C1074.74 551.91 1075.14 552.76 1075.89 553.18C1075.89 553.18 1075.89 552.57 1077.09 552.78C1077.51 552.85 1077.93 552.87 1078.36 552.84C1078.93 552.79 1079.47 552.57 1079.91 552.2C1079.91 552.2 1079.91 552.2 1079.91 552.2C1079.91 552.2 1083.18 550.84 1084.46 545.48C1084.46 545.48 1085.41 544.31 1085.37 544.01C1085.17 544.09 1083.57 544.76 1083.37 544.85C1083.75 545.67 1083.8 546.6 1083.51 547.45C1083.51 547.45 1083.45 544.9 1083.07 544.96C1082.99 544.96 1082.07 545.46 1082.07 545.46C1082.07 545.46 1083.23 547.92 1082.36 549.72C1082.36 549.72 1082.69 546.72 1081.71 545.64C1081.58 545.72 1080.46 546.36 1080.33 546.45C1080.33 546.45 1081.68 548.99 1080.77 551.08C1080.77 551.08 1081 547.88 1080.04 546.63C1079.91 546.73 1078.9 547.53 1078.78 547.63C1078.78 547.63 1080.06 550.16 1079.28 551.89C1079.28 551.89 1079.18 548.16 1078.51 547.89C1078.03 548.3 1077.61 548.76 1077.24 549.26C1077.24 549.26 1078.11 551.09 1077.57 552.05C1077.57 552.05 1077.24 549.57 1076.97 549.56C1076.4 550.4 1075.99 551.34 1075.76 552.33C1075.82 551.29 1076.14 550.28 1076.71 549.4C1076.08 549.52 1075.49 549.82 1075.03 550.27C1075.03 550.27 1075.2 549.11 1077.03 549C1077.36 548.52 1077.74 548.08 1078.17 547.68C1077.21 547.6 1076.25 547.71 1075.33 548.01C1075.33 548.01 1076.33 546.91 1078.5 547.41C1078.62 547.31 1079.61 546.51 1079.74 546.42C1078.64 546.24 1077.52 546.24 1076.42 546.42C1076.42 546.42 1077.56 545.42 1080.07 546.16C1080.2 546.07 1081.29 545.43 1081.42 545.35C1080.39 545.12 1079.32 545.02 1078.26 545.07C1079.41 544.64 1080.68 544.66 1081.81 545.13C1081.91 545.08 1082.71 544.74 1082.81 544.7C1082.81 544.7 1081.35 544.41 1080.93 544.37C1080.93 544.37 1080.49 544.2 1080.49 544.2C1081.41 544.05 1082.35 544.15 1083.21 544.51C1083.9 544.26 1084.56 543.96 1085.19 543.6C1085.19 543.6 1073.51 542.9 1074.89 551.07Z" id="a4fEYf91Rz"></path><path d="M1085.41 553.89C1085.41 554.66 1081.71 555.28 1077.15 555.28C1072.59 555.28 1068.89 554.66 1068.89 553.89C1068.89 553.11 1072.59 552.49 1077.15 552.49C1081.71 552.49 1085.41 553.11 1085.41 553.89Z" id="cpTyDSQ7D"></path><path d="M892.93 552.93C892.76 553.95 893.26 554.98 894.18 555.46C894.18 555.46 894.18 554.74 895.63 554.99C896.13 555.07 896.65 555.09 897.16 555.06C897.85 555.01 898.51 554.74 899.04 554.29C899.04 554.29 899.04 554.29 899.04 554.29C899.04 554.29 903.03 552.65 904.53 546.18C904.53 546.18 905.68 544.77 905.63 544.4C905.39 544.5 903.49 545.3 903.25 545.4C903.7 546.38 903.77 547.5 903.42 548.53C903.42 548.53 903.35 545.46 902.89 545.54C902.8 545.54 901.65 546.13 901.65 546.13C901.65 546.13 903.05 549.12 902 551.29C902 551.29 902.4 547.6 901.21 546.3C901.05 546.4 899.71 547.19 899.55 547.29C899.55 547.29 901.17 550.38 900.08 552.91C900.08 552.91 900.35 549.04 899.2 547.53C899.04 547.65 897.83 548.6 897.68 548.72C897.68 548.72 899.22 551.72 898.28 553.85C898.28 553.85 898.16 549.35 897.35 549.01C896.77 549.5 896.26 550.05 895.82 550.66C895.82 550.66 896.82 552.87 896.22 554.04C896.22 554.04 895.82 551.04 895.49 551.04C894.8 552.06 894.31 553.19 894.03 554.39C894.1 553.13 894.49 551.91 895.17 550.85C894.42 550.99 893.73 551.33 893.17 551.85C893.17 551.85 893.38 550.44 895.53 550.32C895.93 549.74 896.39 549.2 896.91 548.72C895.75 548.62 894.59 548.76 893.48 549.12C893.48 549.12 894.62 547.79 897.3 548.39C897.45 548.27 898.65 547.3 898.8 547.17C897.47 546.96 896.12 546.96 894.8 547.17C894.8 547.17 896.17 546.01 899.21 546.85C899.37 546.75 900.67 545.96 900.83 545.86C899.58 545.58 898.29 545.47 897.01 545.53C897.01 545.53 898.52 544.71 901.31 545.59C901.43 545.53 902.36 545.12 902.47 545.07C902.47 545.07 900.72 544.73 900.2 544.67C900.2 544.67 899.67 544.47 899.67 544.47C900.78 544.28 901.92 544.41 902.96 544.84C903.79 544.61 904.59 544.31 905.36 543.94C905.36 543.94 891.28 543.09 892.93 552.93Z" id="bgiwa5kh9"></path><path d="M905.63 556.36C905.63 557.3 901.17 558.05 895.66 558.05C890.15 558.05 885.69 557.3 885.69 556.36C885.69 555.43 890.15 554.68 895.66 554.68C901.17 554.68 905.63 555.43 905.63 556.36Z" id="adaikbTKi"></path><path d="M817.77 443.61C817.55 443.14 817.55 442.6 817.77 442.13C817.77 442.13 815.19 432 814.23 430.98C813.61 430.24 813.12 429.38 812.81 428.46C812.91 428.26 812.95 428.04 812.95 427.82C812.9 426.8 812.56 425.82 811.95 425C811.2 423.89 810.79 422.59 810.76 421.25C810.75 421.08 810.75 420.92 810.76 420.75C810.76 420.75 810.76 420.75 810.76 420.75C810.76 420.75 810.76 420.75 810.76 420.75C810.18 419.23 808.89 418.08 807.3 417.68C807.63 415.54 808.08 413.39 808.22 411.23C808.67 404.47 806.15 397.91 803.68 391.57C803.14 390.01 802.41 388.51 801.51 387.11C799.27 384.16 795.87 382.31 792.18 382.02C790.84 381.85 789.47 381.98 788.19 382.41C786.92 382.98 785.75 383.76 784.74 384.71C783.67 385.61 782.6 386.53 781.61 387.51C781.6 387.52 781.56 387.56 781.49 387.63L781.14 388L781 388.14L780.67 388.51C780.6 388.59 780.56 388.63 780.55 388.64C780.41 388.81 780.26 388.98 780.12 389.16C780.12 389.16 780.12 389.16 780.12 389.16C779.99 389.33 779.86 389.49 779.74 389.66C779.74 389.67 779.7 389.73 779.63 389.83L779.37 390.2C779.29 390.31 779.25 390.37 779.25 390.39C779.16 390.52 779.09 390.65 779.01 390.78C778.99 390.79 778.91 390.94 778.9 390.96C778.8 391.15 778.69 391.34 778.59 391.54C778.56 391.59 778.44 391.85 778.23 392.33L778.23 392.44C778.1 392.76 778.03 392.94 778.02 392.97C777.75 393.61 777.49 394.25 777.16 394.86C777.16 394.86 777.16 394.86 777.16 394.86L777.1 394.96C776.67 395.48 776.43 395.77 776.38 395.83C776.05 396.26 775.78 396.73 775.56 397.23C775.55 397.24 775.5 397.37 775.49 397.39C775.49 397.46 775.44 397.54 775.41 397.61C775.4 397.63 775.35 397.77 775.34 397.79C775.32 397.87 775.3 397.94 775.27 398.02C775.27 398.08 775.27 398.14 775.27 398.21C775.26 398.23 775.22 398.41 775.21 398.43C775.21 398.5 775.21 398.56 775.21 398.63C775.21 398.7 775.21 398.78 775.16 398.85C775.16 398.86 775.16 398.93 775.16 399.06C775.16 399.19 775.16 399.26 775.16 399.28C775.16 399.36 775.16 399.44 775.16 399.53C775.16 399.62 775.16 399.65 775.16 399.7C775.16 399.75 775.16 399.98 775.16 400.12C775.16 400.25 775.16 400.22 775.16 400.28C775.16 400.37 775.16 400.46 775.16 400.55C775.16 400.61 775.16 400.67 775.16 400.73C775.16 400.82 775.16 400.9 775.16 400.98C775.16 401 775.16 401.15 775.16 401.16C775.16 401.25 775.16 401.33 775.16 401.41C775.16 401.47 775.16 401.53 775.16 401.59C775.17 401.62 775.21 401.83 775.22 401.85C775.22 401.85 775.22 401.96 775.22 402.01C775.23 402.04 775.3 402.26 775.31 402.29C775.31 402.29 775.31 402.38 775.36 402.42C775.36 402.42 775.46 402.7 775.52 402.83C775.83 403.5 776.2 404.14 776.64 404.73C776.93 405.13 777.23 405.52 777.53 405.92C777.57 405.98 777.91 406.46 777.96 406.52C778.25 406.92 778.51 407.33 778.75 407.77C780.17 410.49 780.06 413.76 778.44 416.38C778.4 416.43 778.11 416.87 778.08 416.93C777.88 417.23 777.74 417.57 777.67 417.92C777.6 418.55 777.8 419.17 778.24 419.63C778.15 419.66 777.44 419.84 777.35 419.86C776.62 420.06 776.12 420.22 776.12 420.22C775.51 420.17 774.91 420.17 774.3 420.22C773.46 420.49 772.71 420.97 772.11 421.62C772.11 421.62 768.3 422.08 767.05 420.97C767.05 420.97 761.43 419.48 761.43 419.48C761.43 419.48 760.19 417.07 758.85 416.32C758.85 416.32 754.27 414.18 754.17 413.44C753.9 412.66 753.48 411.93 752.94 411.3C752.28 411.16 751.61 411.08 750.94 411.06C750.92 411.04 750.85 410.92 750.73 410.7C749.13 407.94 748.24 406.41 748.06 406.1C748.06 406.1 744.72 402.19 742.91 401.82C742.91 401.82 745.45 405.97 745.66 406.18C744.38 405.26 742.59 405.55 741.67 406.84C740.25 408.42 744.02 412.12 746.35 414.17C746.39 414.2 746.7 414.47 746.73 414.5C746.75 414.7 746.78 414.91 746.82 415.11C747.87 420.59 753.69 425.34 753.69 425.34C753.69 425.34 754.35 428.4 756.55 429.15C758.3 429.74 767.69 434 772.58 434.84C772.17 435.9 771.69 438.36 773.72 441.98C773.72 441.98 774.2 448.39 773.15 449.23C772.1 450.07 772.15 459.36 772.15 459.36C772.15 459.36 768.16 475.53 772.15 478.96C772.41 479.18 772.69 479.36 773 479.48C773 479.73 773.07 479.99 773.1 480.26C773.28 481.88 773.34 483.56 772.91 484.26C771.91 485.84 773.24 490.11 773.24 490.11C773.24 490.11 769.39 511.96 771.1 519.67C772.19 525.43 772.7 531.28 772.62 537.15C772.62 537.15 772.05 543.93 775.01 548.02C775.34 548.99 775.53 550 775.58 551.02C775.77 552.98 776.29 554.89 777.11 556.68C777.78 557.98 779.11 563.48 777.97 564.95C776.83 566.43 779.21 582.62 779.21 582.62C779.21 582.62 777.3 587.62 779.21 590.24C779.21 590.25 779.26 590.31 779.27 590.31C778.13 590.3 777.01 590.14 775.92 589.83C773.78 589.12 775.38 591.83 777.92 593.69C776.81 596.21 775.29 599.58 774.78 600.68C772.57 601.06 768.2 601.68 765.63 601.07C762.11 600.24 767.16 605.91 771.92 606.93C775.29 607.56 778.71 607.81 782.13 607.67C782.44 607.33 784.9 604.62 785.21 604.28C787.69 604.61 790.21 604.71 792.71 604.56C792.69 604.77 792.6 605.82 792.44 607.71L794.25 607.71C794.25 605.75 794.25 604.66 794.25 604.44C795.39 604.33 796.57 604.18 797.78 603.96C797.78 603.96 797.85 600.5 797.63 597.24C797.71 597.24 798.08 597.28 798.74 597.34L798.91 595.53L802.84 596.24C804.95 578.86 806.13 569.2 806.36 567.27C806.36 567.27 806.75 556.49 807.61 550.45C807.61 550.45 805.79 524.14 805.79 524.14C805.79 524.14 805.6 523.14 805.42 521.26C805.42 521.26 805.42 508.43 805.42 508.43C805.42 508.43 806.84 502.44 806.56 501.93C806.56 501.93 806.65 498.86 806.65 498.86C812.65 486.64 805.28 475.61 802.71 472.33C802.86 472.19 802.95 472 802.96 471.8C802.97 471.73 802.97 471.66 802.96 471.59C802.55 470.56 802.07 469.56 801.52 468.6C801.67 468.4 802.87 466.88 803.02 466.69C803.54 467.44 803.91 468 803.91 468C803.91 468 805.52 464.37 807.15 463C808.78 461.63 816.59 448.6 816.59 448.6C816.59 448.6 818.41 447.38 817.45 446.36C816.49 445.34 817 445.47 817 445.47C817.16 445.1 818.15 444.36 817.77 443.61ZM792.97 548.27C792.84 547.85 792.61 547.47 792.29 547.16C792.29 547.16 792.01 545.17 791.91 542.6C792.48 544.6 793.06 546.05 793.06 546.05C793.04 546.49 792.99 547.83 792.97 548.27ZM797.46 595.79C797.46 595.61 797.46 595.43 797.46 595.26C797.47 595.26 797.52 595.26 797.6 595.26C797.53 595.54 797.48 595.72 797.46 595.79ZM798.64 463.56C798.64 463.49 798.64 463.45 798.64 463.44C798.6 462.92 798.84 462.42 799.26 462.11C799.48 461.98 799.61 461.72 799.59 461.46C799.55 461.04 799.39 460.64 799.13 460.31C799.32 460.44 799.91 460.76 800.31 459.61C800.37 459.43 800.4 459.24 800.4 459.05C800.31 458.08 799.91 457.16 799.27 456.43C799.7 455.52 803.16 448.25 803.59 447.34C804.06 447.48 804.54 447.59 805.03 447.67C805.03 447.67 805.03 447.67 805.03 447.67C803.9 451.17 802.97 455.33 802.97 455.33C802.63 456.07 799.97 461.94 799.63 462.67C799.86 462.76 800.06 462.9 800.21 463.09C800 463.15 799.48 463.31 798.64 463.56Z" id="f3LMP27zRe"></path><linearGradient id="gradientaBZV6F5R6" gradientUnits="userSpaceOnUse" x1="779.59" y1="607.71" x2="779.59" y2="381.93"><stop style="stop-color: #808080;stop-opacity: 0.25" offset="0%"></stop><stop style="stop-color: #808080;stop-opacity: 0.12" offset="54%"></stop><stop style="stop-color: #808080;stop-opacity: 0.1" offset="100%"></stop></linearGradient><path d="M784.29 590.08C784.29 590.08 778.69 590.77 775.96 589.83C775.96 589.83 776.8 593.83 780.48 595.04C783.09 595.8 785.77 596.26 788.47 596.4C788.76 596.13 790.2 594.77 792.8 592.32L797.39 592.68L796.6 597.19L798.02 597.32L798.57 591.42C790.96 590.71 786.19 590.26 784.29 590.08Z" id="a1lnPZ2Zha"></path><path d="M784.29 590.08C784.29 590.08 778.69 590.77 775.96 589.83C775.96 589.83 776.8 593.83 780.48 595.04C783.09 595.8 785.77 596.26 788.47 596.4C788.76 596.13 790.2 594.77 792.8 592.32L797.39 592.68L796.6 597.19L798.02 597.32L798.57 591.42C790.96 590.71 786.19 590.26 784.29 590.08Z" id="f2qlajGvyF"></path><path d="M776.2 600.38C776.2 600.38 769.47 601.85 766.06 601.02C766.06 601.02 767.54 605.82 772.14 606.82C775.39 607.45 778.7 607.7 782 607.56C782.32 607.2 783.92 605.39 786.8 602.13L792.41 602.04L791.95 607.6L793.71 607.6L793.71 600.38C784.37 600.38 778.53 600.38 776.2 600.38Z" id="bBWFeCzwk"></path><path d="M776.2 600.38C776.2 600.38 769.47 601.85 766.06 601.02C766.06 601.02 767.54 605.82 772.14 606.82C775.39 607.45 778.7 607.7 782 607.56C782.32 607.2 783.92 605.39 786.8 602.13L792.41 602.04L791.95 607.6L793.71 607.6L793.71 600.38C784.37 600.38 778.53 600.38 776.2 600.38Z" id="b1ISMajq92"></path><path d="M801.07 472.4C801.07 472.4 812.59 485.21 805.68 499.67C805.68 499.67 805.32 502.26 805.58 502.72C805.85 503.18 804.49 509.17 804.49 509.17C804.49 509.17 804.3 520.04 804.49 521.88C804.68 523.73 804.86 524.73 804.86 524.73C804.86 524.73 807.43 544.82 806.6 550.81C805.77 556.8 805.41 567.49 805.41 567.49C805.18 569.41 804.04 578.99 802 596.24L784.31 592.92L792.3 553.48C792.47 549.28 792.56 546.95 792.58 546.48C792.58 546.48 789.26 537.92 790.73 533.59C790.73 533.59 790.36 474.07 790.36 474.07C792.5 473.74 798.93 472.73 801.07 472.4Z" id="i1SgXY2RgA"></path><path d="M801.07 472.4C801.07 472.4 812.59 485.21 805.68 499.67C805.68 499.67 805.32 502.26 805.58 502.72C805.85 503.18 804.49 509.17 804.49 509.17C804.49 509.17 804.3 520.04 804.49 521.88C804.68 523.73 804.86 524.73 804.86 524.73C804.86 524.73 807.43 544.82 806.6 550.81C805.77 556.8 805.41 567.49 805.41 567.49C805.18 569.41 804.04 578.99 802 596.24L784.31 592.92L792.3 553.48C792.47 549.28 792.56 546.95 792.58 546.48C792.58 546.48 789.26 537.92 790.73 533.59C790.73 533.59 790.36 474.07 790.36 474.07C792.5 473.74 798.93 472.73 801.07 472.4Z" id="b9ecA4kAiA"></path><path d="M791.86 547.58C794.53 549.89 793.06 569.98 793.06 569.98C793.06 569.98 794.9 589.78 796.06 592.09C797.21 594.4 797.05 603.88 797.05 603.88C783.51 606.37 774.66 601.02 774.66 601.02C774.66 601.02 779 591.16 779.09 590.7C779.14 590.44 779.71 591.14 779.88 591.35C779.8 591.24 779.17 590.35 779.09 590.24C777.24 587.67 779.09 582.69 779.09 582.69C779.09 582.69 776.78 566.71 777.89 565.18C779 563.66 777.71 558.27 777.06 556.98C776.26 555.2 775.77 553.3 775.58 551.36C775.53 550.36 775.34 549.37 775.03 548.41C772.17 544.36 772.72 537.64 772.72 537.64C772.8 531.83 772.31 526.03 771.25 520.32C769.6 512.66 773.32 491.01 773.32 491.01C773.32 491.01 772.08 486.77 773 485.21C773.42 484.51 773.36 482.85 773.18 481.21C772.96 479.21 772.54 477.36 772.54 477.36C775.06 476.91 795.19 473.36 797.7 472.92C798.23 473.8 798.7 474.65 799.16 475.47C807.48 490.84 801.87 496.54 801.87 496.54C801.33 498.18 797.06 511.3 796.53 512.94C796.53 512.94 794.63 530.44 792.6 534.32C790.6 538.18 792.01 544.93 791.86 547.58Z" id="br4wrbDH"></path><path d="M752.76 414.08C750.6 415.88 749.4 416.88 749.16 417.08C749.16 417.08 748.45 416.52 747.51 415.67C745.25 413.67 741.62 409.96 742.99 408.41C743.84 407.17 745.53 406.85 746.76 407.7C746.79 407.72 746.82 407.74 746.84 407.76C746.64 407.54 742.47 403.07 744.19 403.43C745.9 403.79 749.18 407.67 749.18 407.67C749.35 407.97 750.21 409.49 751.76 412.23L752.76 414.08Z" id="a1IXGzq24X"></path><path d="M796.66 465.13L799.87 470.74L803.56 465.96L800.89 463.84L800.89 463.84L796.66 465.13Z" id="d2r14jTB7V"></path><path d="M790.94 386.91C784.28 386.91 778.88 392.31 778.88 398.98C778.88 405.64 784.28 411.04 790.94 411.04C797.61 411.04 803.01 405.64 803.01 398.98C803.01 392.31 797.61 386.91 790.94 386.91Z" id="dej4kWrXQ"></path><path d="M784.4 422.27C784.4 422.27 798.38 434.34 798.38 434.34C799.3 433.41 806.59 426.05 807.5 425.13C807.5 425.13 798.01 408.73 799.51 402.46C801.01 396.2 783.84 403.38 783.84 403.38C783.95 407.16 794.83 420.79 784.4 422.27Z" id="aEg5y6z0A"></path><path d="M791.77 477.2C791.77 477.2 778.19 483.19 773.24 481.19C773.02 479.19 772.6 477.34 772.6 477.34C775.11 476.89 795.19 473.36 797.7 472.92C798.26 473.8 798.75 474.65 799.19 475.47C796.76 476.21 794.28 476.79 791.77 477.2Z" id="b14kor1vzK"></path><path d="M809.23 435L806.46 440.72L806.06 441.54L802.78 448.64C800.27 454.03 798.88 457.03 798.6 457.63C798.6 457.63 800.08 459.38 799.6 460.76C799.6 460.76 798.49 461.49 798.41 461.41C798.48 461.52 799.41 462.72 798.58 463.25C798.08 463.68 797.87 464.36 798.03 465C798.03 465 801.44 470.62 802.09 472.65C802.09 472.65 791.77 476.43 791.77 476.43C791.77 476.43 776.2 483.34 772.32 479.92C772.32 479.92 772.32 460.48 772.32 460.48C772.32 460.48 772.32 451.28 773.32 450.45C773.32 450.45 773.87 443.25 773.87 443.25C771.2 438.37 773.04 435.6 773.04 435.6C772.97 434.35 772.38 424.33 772.3 423.08C772.3 423.08 773.5 421.79 774.42 421.7C775.01 421.64 775.59 421.64 776.18 421.7C776.18 421.7 776.66 421.53 777.37 421.34C778.85 420.92 781.29 420.34 782.16 420.77C783.45 421.42 791.75 419.77 791.75 419.77C795.32 419.25 798.92 418.92 802.53 418.77C803.76 418.7 805 418.84 806.18 419.17C807.81 419.54 809.14 420.71 809.71 422.28C809.57 423.78 809.96 425.28 810.82 426.51C812.32 428.91 811.69 429.92 811.69 429.92C811.36 430.6 810.54 432.29 809.23 435Z" id="ecjH17ogO"></path><path d="M752.76 414.08C750.6 415.88 749.4 416.88 749.16 417.08C749.16 417.08 748.45 416.52 747.51 415.67C747.22 412.56 749.87 412.15 751.74 412.23C751.87 412.48 752.21 413.09 752.76 414.08Z" id="g2PCd2yFK"></path><path d="M772.32 423.11C772.32 423.11 768.64 423.57 767.44 422.46C767.44 422.46 762.01 420.99 762.01 420.99C762.01 420.99 760.81 418.59 759.52 417.85C759.52 417.85 755.09 415.74 755 415C754.74 414.22 754.33 413.51 753.81 412.88C753.81 412.88 746.89 411.22 747.91 416.66C747.91 416.66 754.54 426.79 754.54 426.79C754.54 426.79 755.19 429.79 757.31 430.57C757.31 430.57 773.15 437.76 775.37 436.1C777.59 434.45 773.89 423.02 773.89 423.02C773.58 423.04 772.48 423.1 772.32 423.11Z" id="a1UqjjWFG3"></path><path d="M809.73 422.25C809.16 420.68 807.83 419.51 806.2 419.14C805.62 418.97 805.02 418.85 804.42 418.79C806.02 419.17 807.33 420.33 807.89 421.88C807.75 423.38 808.14 424.88 809 426.11C810.47 428.51 809.83 429.53 809.83 429.53C809.67 429.87 808.85 431.56 807.37 434.6L804.6 440.34L804.21 441.16L800.92 448.26C798.42 453.65 797.02 456.65 796.75 457.25C796.75 457.25 798.21 459 797.74 460.39C797.74 460.39 796.65 461.11 796.56 461.03C796.64 461.14 797.55 462.34 796.74 462.87C796.24 463.3 796.02 463.98 796.18 464.62C796.18 464.62 799.59 470.24 800.23 472.27C800.23 472.27 789.91 476.05 789.91 476.05C789.91 476.05 779.1 480.84 773.25 480.47C778.25 482.42 791.76 476.42 791.76 476.42C791.76 476.42 802.75 474.67 802.08 472.64C801.41 470.61 798.02 464.99 798.02 464.99C797.86 464.35 798.07 463.67 798.57 463.24C799.37 462.71 798.47 461.51 798.4 461.4C798.48 461.48 799.16 462.04 799.59 460.75C800.02 459.47 798.59 457.62 798.59 457.62C798.87 457.02 800.26 454.02 802.77 448.63L806.05 441.53L806.45 440.71L809.22 434.99C810.69 431.94 811.51 430.25 811.68 429.91C811.68 429.91 812.32 428.88 810.84 426.48C809.98 425.25 809.59 423.75 809.73 422.25Z" id="abdyMwQ2TY"></path><path d="M810.01 428.54C811 429.37 811.56 429.83 811.67 429.92C811.97 430.83 812.44 431.68 813.06 432.42C813.98 433.42 816.46 443.46 816.46 443.46C816.25 443.93 816.25 444.47 816.46 444.94C816.83 445.68 815.72 446.79 815.72 446.79C815.72 446.79 815.17 446.6 816.09 447.62C817.01 448.64 815.26 449.83 815.26 449.83C815.26 449.83 807.71 462.72 806.14 464.11C804.58 465.5 803.01 469.1 803.01 469.1C803.01 469.1 799.73 463.95 798.95 463.85C799.28 463.12 801.86 457.3 802.18 456.57C802.18 456.57 804.39 446.44 806.04 444.58C806.04 444.58 805.22 436.38 805.22 436.38C805.85 435.34 807.45 432.72 810.01 428.54Z" id="daEihRwFc"></path><path d="M805.08 449.1C804.76 449.1 804.45 449.02 804.13 448.96C803.66 448.87 803.19 448.76 802.73 448.63C801.08 448.15 799.53 447.39 798.15 446.38C797.86 446.12 797.52 445.92 797.15 445.79C796.26 445.69 795.39 446.15 794.98 446.96C794.51 447.71 794.29 448.59 793.81 449.34C792.75 450.77 791.06 451.59 789.28 451.56C787.53 451.51 785.79 451.17 784.15 450.56C785.62 448.99 786.74 447.13 787.45 445.09C787.75 443.74 787.83 442.35 787.71 440.98C787.31 434.46 785.04 427.58 779.71 423.79C778.8 423.13 777.72 422.35 777.38 421.36C778.86 420.94 781.3 420.36 782.17 420.79C783.46 421.44 791.76 419.79 791.76 419.79C795.33 419.27 798.93 418.94 802.54 418.79C803.77 418.72 805.01 418.86 806.19 419.19C805.6 421.9 805.5 424.7 805.89 427.44C806.27 429.14 806.88 430.77 807.71 432.3C808.19 433.21 808.71 434.12 809.2 435.02C810.61 437.54 811.95 440.07 812.2 442.91C812.41 444.47 812.01 446.06 811.07 447.33C809.69 448.99 807.25 449.33 805.08 449.1Z" id="e3QP9UPLdU"></path><path d="M795.01 460.13C795.61 460.31 796.17 460.63 796.63 461.06C796.15 461.06 792.36 461.06 791.89 461.06C790.67 461.06 788.83 461.13 787.9 460.28C788.71 459.45 791.65 460.45 792.85 460.32C793.55 460.13 794.28 460.06 795.01 460.13Z" id="i9DV4lrweP"></path><path d="M776.44 397.56C774.98 399.57 774.67 402.19 775.62 404.49C776.38 406.28 777.84 407.67 778.74 409.38C780.11 412.09 780 415.32 778.44 417.92C778.09 418.38 777.83 418.9 777.7 419.45C777.48 420.86 778.94 421.87 780.09 422.69C785.41 426.48 787.68 433.36 788.09 439.88C788.22 441.26 788.14 442.64 787.84 443.99C787.14 446.03 786.01 447.89 784.54 449.46C786.19 450.07 787.92 450.4 789.67 450.46C791.45 450.49 793.14 449.66 794.2 448.23C794.68 447.49 794.9 446.61 795.37 445.85C795.77 445.04 796.64 444.57 797.54 444.68C797.91 444.81 798.25 445.01 798.54 445.27C800.57 446.77 802.96 447.7 805.47 447.99C807.61 448.24 810.05 447.88 811.46 446.22C812.4 444.94 812.8 443.34 812.59 441.77C812.11 436.18 807.38 431.78 806.29 426.3C805.41 421.86 807 417.32 807.29 412.8C807.73 406.11 805.3 399.59 802.91 393.32C802.38 391.77 801.67 390.28 800.81 388.89C798.68 386 795.4 384.18 791.82 383.89C790.51 383.72 789.18 383.85 787.94 384.28C786.7 384.85 785.57 385.62 784.6 386.56C782.32 388.56 779.97 390.56 778.61 393.33C778.07 394.45 777.72 395.65 777.12 396.73" id="aXKWZCVI9"></path><path d="M780.09 391.72C780.61 390.69 781.26 389.72 782.01 388.84C780.63 390.12 779.49 391.62 778.63 393.29C778.11 394.38 777.76 395.54 777.19 396.6C777.26 396.54 777.84 396.04 777.92 395.98C777.73 396.24 777.56 396.5 777.41 396.78C777.88 396.28 778.28 395.72 778.62 395.12C779.21 394.03 779.62 392.83 780.09 391.72Z" id="fxXM4bfvM"></path><path d="M800.03 443.7C799.73 443.45 799.4 443.25 799.03 443.12C798.13 443.02 797.27 443.49 796.86 444.29C796.76 444.45 796.67 444.61 796.6 444.78C796.91 444.64 797.26 444.61 797.59 444.69C797.96 444.82 798.3 445.02 798.59 445.28C800.62 446.78 803.01 447.71 805.51 448C807.66 448.25 810.1 447.89 811.51 446.23C811.68 446.02 811.84 445.79 811.97 445.54C810.45 446.4 808.68 446.71 806.95 446.43C804.45 446.14 802.06 445.2 800.03 443.7Z" id="f1Mcq2GbFj"></path><path d="M786 447.89C787.46 446.32 788.58 444.45 789.28 442.42C789.59 441.07 789.68 439.68 789.54 438.31C789.14 431.79 786.89 424.91 781.55 421.12C780.39 420.29 778.95 419.28 779.16 417.87C779.3 417.32 779.56 416.8 779.9 416.35C781.47 413.74 781.58 410.52 780.2 407.82C779.31 406.1 777.85 404.7 777.08 402.92C776.26 400.93 776.38 398.68 777.4 396.78C777.14 397.05 776.87 397.3 776.59 397.54C776.38 397.82 776.16 398.1 775.92 398.36C774.9 400.25 774.78 402.5 775.61 404.49C776.37 406.28 777.83 407.67 778.73 409.38C780.1 412.09 779.99 415.32 778.43 417.92C778.08 418.38 777.82 418.9 777.69 419.45C777.47 420.86 778.93 421.87 780.08 422.69C785.4 426.48 787.67 433.36 788.08 439.88C788.21 441.26 788.13 442.64 787.83 443.99C787.13 446.03 786 447.89 784.53 449.46C786.18 450.07 787.91 450.4 789.66 450.46C791.44 450.49 793.13 449.66 794.19 448.23C794.25 448.13 794.31 448.03 794.36 447.93C793.39 448.54 792.27 448.87 791.12 448.89C789.37 448.83 787.64 448.5 786 447.89Z" id="a1aYZ8yFAg"></path><path d="M65.73 565.78C65.72 565.77 65.57 565.67 65.55 565.65C65.7 565.44 65.8 565.21 65.85 564.96C65.61 564.49 65.48 563.96 65.47 563.43C65.48 562.92 65.38 562.41 65.18 561.95C65.18 561.7 65.18 559.7 65.18 559.45C64.58 558.61 64.29 557.61 64.34 556.58C64.27 554.52 64.19 544.37 64.19 544.37C64.07 543.84 64.05 543.29 64.12 542.75C64.19 541.57 64.19 541.13 64.19 541.13C63.94 540.45 63.86 539.71 63.97 538.99C64.03 538.31 63.84 537.63 63.43 537.09C63.54 536.53 64.45 532.05 64.57 531.49C64.57 531.49 65.2 512.19 63.36 506.37C63.36 506.37 63.36 506.37 63.36 506.37C63.36 506.37 63.36 506.37 63.36 506.3C63.51 502.56 61.23 496.31 62.52 491.96C63.81 487.6 63.97 486.66 63.97 486.66C63.97 486.66 58.27 472.39 56.83 469.01C56.01 466.81 55.01 464.69 53.84 462.65C53.75 462.53 53.66 462.41 53.57 462.29C53.48 462.18 53.43 462.12 53.42 462.11C53.73 461.6 53.92 461.02 53.97 460.41C54.05 459.42 53.9 458.16 54.67 457.42C54.96 457.18 55.27 456.97 55.61 456.79C56.8 456.01 57.44 454.61 57.26 453.19C57.04 452.1 56.52 451.08 55.76 450.27C55.84 449.78 55.88 449.28 55.89 448.79C55.88 446.52 54.94 444.35 53.28 442.8C53.28 442.8 53.28 442.8 53.28 442.8C53.28 442.52 53.28 442.37 53.28 442.34C53.29 441.32 52.97 440.32 52.37 439.5C52.38 439.51 52.45 439.56 52.58 439.65C52.36 439.46 52.24 439.36 52.22 439.34C52.05 439.16 51.85 439 51.63 438.88C48.19 436.53 43.71 436.3 40.04 438.28C39.14 438.76 38.37 439.44 37.79 440.28C36.6 442.12 36.9 444.48 36.28 446.57C35.66 448.66 34.28 450.2 33.11 451.93C31.94 453.67 30.97 455.73 31.41 457.76C31.73 459.24 32.77 460.55 32.75 462.05C32.65 463.69 31.39 465.02 29.76 465.21C29.76 465.21 29.76 465.21 29.76 465.21C29.49 465.21 29.34 465.21 29.31 465.21C30.79 466.11 32.47 466.64 34.2 466.77C34.2 466.91 34.12 467.04 34.09 467.18C32.73 472.45 31.48 479.16 31.48 479.16C31.48 479.16 32.32 485.94 30.58 491.23C28.83 496.52 29.06 507.42 29.06 507.42C29.06 507.42 33.91 504.91 34.22 506.53C34.53 508.15 34.22 508.59 34.22 508.59C34.92 508.96 35.64 509.29 36.38 509.59C36.38 509.63 36.38 509.85 36.38 510.24C36.25 511.98 36.17 512.94 36.16 513.13C36.08 513.73 36.17 514.34 36.43 514.89C36.85 515.7 36.43 517.89 36.43 517.89C36.43 517.89 36.07 518.11 36.43 519.15C36.59 519.99 36.49 520.86 36.15 521.64C36.15 521.64 35.72 527.16 35.64 528.34C35.29 529.88 34.78 531.38 34.12 532.82C34.12 532.82 35.42 534.44 34.12 534.67C34.12 534.67 32.68 536.87 32.68 536.87C32.68 536.87 31.16 538.12 31.16 538.56C26.58 543.67 23.6 550.01 22.6 556.8C22.6 556.8 21.01 558.27 21.24 559.67C21.37 560.46 21.11 560.73 20.86 560.82C21.14 560.82 21.45 561.04 21.31 561.73C21.09 562.91 20.48 565.4 20.48 565.4C20.48 565.4 20.52 565.4 20.59 565.4C20.59 565.4 20.59 565.4 20.59 565.4C19.34 566.84 17.53 569.25 17.25 571.4C17.25 571.41 17.25 571.5 17.25 571.66L16.55 573.18L22.54 575.83C22.86 575.35 23.04 575.08 23.07 575.02C23.07 575.02 25.73 578.02 28.77 578.7C29.29 578.81 29.82 578.87 30.36 578.88C32.05 578.84 33.72 578.5 35.29 577.88C35.29 577.88 37.49 575.16 31.79 574.64C31.79 574.64 28.46 570.82 28.8 569.2C28.9 568.52 28.97 567.83 29.01 567.14C29.01 566.99 29.01 566.84 29.01 566.7C29.03 566.71 29.16 566.73 29.4 566.76C29.44 566.02 29.46 565.61 29.47 565.52C29.64 565.32 29.72 565.05 29.7 564.78C29.7 564.27 29.24 564.19 29.7 563.9C30.16 563.62 30.15 563.9 30.15 563.18C30.15 562.45 29.85 562.66 30.53 561.92C31.2 561.18 30.46 559.86 30.46 559.86C31.31 559.22 31.85 558.26 31.94 557.2C31.87 555.66 37.03 545.88 38.09 545.51C39.15 545.14 39.23 543.22 39.23 543.22C39.23 543.22 40.67 543.52 41.12 543.22C41.84 542.42 42.47 541.56 43.02 540.64C43.02 540.64 48.78 526.08 48.86 520.57C48.9 520.44 49.21 519.44 49.24 519.32C49.24 519.32 51.44 522.18 51.13 524.24C51.13 524.24 52.82 527.78 52.82 527.78C52.82 528.4 52.82 533.4 52.82 534.03C53.04 535.12 53.16 536.22 53.18 537.34C53.11 538.33 54.08 539.39 53.71 540.28C53.51 541.08 53.51 541.91 53.71 542.71C53.71 542.71 53.63 544.77 53.71 545.36C53.71 545.36 53.41 552.71 55.39 555.65C55.39 555.65 56.22 557.78 55.39 559.18C54.56 560.58 56.14 561.98 56.14 561.98C56.14 561.98 55.14 563.6 56.14 564.77C56.7 565.52 56.96 566.45 56.84 567.38C56.45 568.88 56.16 570.84 56.84 572.21C56.84 572.21 56.84 572.21 56.84 572.21L57.02 574.31L62.84 573.86C62.84 573.16 62.84 572.77 62.84 572.69C65.34 573.31 67.94 573.47 70.5 573.17C72.5 572.99 74.34 571.99 75.57 570.41C75.57 570.41 77.91 566.36 71.55 567.91C69.48 567.64 67.49 566.91 65.73 565.78Z" id="beRErf5WS"></path><linearGradient id="gradientc2RYGvUl4y" gradientUnits="userSpaceOnUse" x1="46.27" y1="578.9" x2="46.27" y2="436.91"><stop style="stop-color: #808080;stop-opacity: 0.25" offset="0%"></stop><stop style="stop-color: #808080;stop-opacity: 0.12" offset="54%"></stop><stop style="stop-color: #808080;stop-opacity: 0.1" offset="100%"></stop></linearGradient><path d="M69.55 573.18C67.07 573.48 64.56 573.32 62.15 572.69C62.15 572.77 62.15 573.17 62.15 573.87L56.54 574.31L56.37 572.22C56.37 572.22 56.37 572.22 56.37 572.22C55.72 570.84 56.02 568.84 56.42 567.34C56.6 566.63 56.83 565.94 57.1 565.26C57.1 565.26 61.94 561.16 63.55 564.26C63.9 564.9 64.38 565.45 64.97 565.88C66.65 567 68.57 567.73 70.58 568C76.75 566.42 74.48 570.45 74.48 570.45C73.3 572.01 71.51 573.01 69.55 573.18Z" id="g2YMbXUwYX"></path><path d="M59.56 566.42C59.56 566.42 59.56 570.23 62.34 570.16C62.34 570.16 65.49 568.64 64.62 567.66C64.02 566.97 63.5 566.21 63.08 565.39C62.37 565.6 60.26 566.22 59.56 566.42Z" id="c5PUVSop66"></path><path d="M30.84 578.92C30.32 578.91 29.8 578.85 29.3 578.75C26.37 578.09 23.8 575.08 23.8 575.08C23.77 575.14 23.6 575.41 23.29 575.89L17.5 573.25L18.16 571.72C18.16 571.55 18.16 571.46 18.16 571.45C18.43 569.35 20.16 566.94 21.38 565.51C22.07 564.71 22.6 564.19 22.6 564.19C23.3 564.29 28.9 565.09 29.6 565.19C29.6 565.19 29.6 566.09 29.6 567.19C29.57 567.88 29.51 568.57 29.4 569.25C29.11 570.86 32.32 574.66 32.32 574.66C37.72 575.18 35.59 577.92 35.59 577.92C34.08 578.54 32.47 578.88 30.84 578.92Z" id="cMLkszCy5"></path><path d="M21.32 560.9C21.44 560.88 21.56 560.88 21.68 560.9C21.56 560.93 21.43 560.93 21.32 560.9Z" id="mmmeACIqp"></path><path d="M29.52 565.25C29.52 565.25 29.52 566.15 29.52 567.25C28.7 567.12 22.15 566.07 21.34 565.94C21.34 565.94 21.34 565.78 21.43 565.52C22.07 564.71 22.6 564.19 22.6 564.19C23.99 564.41 28.13 565.04 29.52 565.25Z" id="b4WVvT5ATd"></path><path d="M56.39 568.03C56.43 567.8 56.44 567.56 56.44 567.33C56.62 566.62 56.85 565.93 57.12 565.25C57.12 565.25 61.96 561.15 63.57 564.25C63.92 564.88 64.4 565.42 64.99 565.84C63.75 568.71 58.11 567.59 56.39 568.03Z" id="cr3WHyVs"></path><path d="M56.39 567.59C56.54 566.61 56.3 565.62 55.73 564.81C54.73 563.64 55.73 562.03 55.73 562.03C55.73 562.03 54.19 560.64 55 559.24C55.81 557.84 55 555.72 55 555.72C53.1 552.8 53.46 546.06 53.38 545.48C53.3 544.9 53.38 542.84 53.38 542.84C53.19 542.05 53.19 541.22 53.38 540.42C53.74 539.54 52.8 538.51 52.88 537.5C52.87 536.4 52.77 535.31 52.57 534.23C52.57 533.61 52.57 528.63 52.57 528.01C51.49 527.17 50.88 525.86 50.95 524.49C51.24 522.43 49.11 519.59 49.11 519.59C49.08 519.71 48.79 520.7 48.75 520.82C48.67 526.32 43.11 540.8 43.11 540.8C42.58 541.71 41.97 542.56 41.28 543.36C40.84 543.66 39.46 543.36 39.46 543.36C39.46 543.36 39.38 545.27 38.36 545.63C37.34 545.99 32.36 555.73 32.42 557.27C32.34 558.35 31.81 559.33 30.96 559.99C30.96 559.99 31.68 561.31 31.02 562.04C31.02 562.04 30.67 562.55 30.67 563.29C30.67 563.29 30.67 563.72 30.23 564.01C30.23 564.01 30.23 564.38 30.23 564.89C30.25 565.16 30.17 565.42 30.01 565.62C30 565.7 29.98 566.11 29.94 566.85C24.79 566.03 21.94 565.57 21.37 565.48C21.37 565.48 21.95 562.99 22.17 561.82C22.3 561.13 22 560.95 21.73 560.91C21.97 560.82 22.22 560.55 22.1 559.77C21.88 558.37 23.41 556.91 23.41 556.91C24.3 550.17 27.12 543.84 31.54 538.67C31.54 538.23 33 536.99 33 536.99C33 536.99 33.15 534.99 34.4 534.79C35.65 534.59 34.4 532.96 34.4 532.96C35.03 531.52 35.52 530.03 35.86 528.5C35.94 527.33 36.35 521.83 36.35 521.83C36.68 521.05 36.77 520.18 36.62 519.35C36.28 518.35 36.62 518.1 36.62 518.1C36.62 518.1 37.04 515.9 36.62 515.1C36.38 514.55 36.29 513.94 36.37 513.34C36.38 513.15 36.45 512.19 36.57 510.47C36.75 507.89 36.86 506.46 36.88 506.17C36.88 506.17 59.65 502.29 62.14 505.43C62.41 505.82 62.61 506.26 62.73 506.72C64.51 512.51 63.9 531.69 63.9 531.69C63.79 532.25 62.91 536.7 62.8 537.26C63.2 537.8 63.38 538.48 63.32 539.15C63.22 539.87 63.3 540.6 63.54 541.28C63.54 541.28 63.54 541.72 63.46 542.89C63.39 543.43 63.42 543.98 63.54 544.51C63.54 544.51 63.61 554.61 63.68 556.66C63.63 557.68 63.92 558.68 64.49 559.52C64.49 559.77 64.49 561.76 64.49 562.01C64.68 562.47 64.78 562.97 64.78 563.48C64.76 564.01 64.88 564.55 65.11 565.03C64.38 568.32 58.13 567.08 56.39 567.59Z" id="e1829XxTCa"></path><path d="M29.3 578.73C26.37 578.07 23.8 575.06 23.8 575.06C23.77 575.12 23.6 575.39 23.29 575.87L17.5 573.23L18.16 571.7L18.16 571.43C21.76 573.22 23.75 574.22 24.15 574.42C24.15 574.42 28.95 576.75 30.84 578.9C30.32 578.89 29.8 578.83 29.3 578.73Z" id="f1DP0TbivD"></path><path d="M62.15 572.69C62.15 572.77 62.15 573.17 62.15 573.87L56.54 574.31C56.43 573.05 56.38 572.35 56.37 572.22C58.14 572.22 61.01 572.28 62.25 572.22C64.72 572.21 67.17 572.53 69.55 573.18C67.07 573.48 64.56 573.32 62.15 572.69Z" id="i33qbLOtru"></path><path d="M25.4 559.12C25.69 559.3 25.96 559.49 26.22 559.71C26.41 559.81 26.6 559.93 26.77 560.07C26.98 560.28 27.07 560.59 27.28 560.8C27.68 561.19 28.28 561.11 28.84 561.29C28.9 561.29 28.96 561.29 28.97 561.4C28.97 561.46 28.93 561.51 28.88 561.54C28.61 561.68 28.29 561.68 28.03 561.54C27.77 561.39 27.54 561.21 27.33 561C26.92 560.64 26.46 560.35 25.95 560.15C25.26 559.87 24.06 559.8 23.62 559.15C23.91 559.03 24.23 558.98 24.54 559.01C24.83 558.99 25.12 559.03 25.4 559.12Z" id="apIVLCU8C"></path><path d="M24.39 560.73C24.47 560.77 25.07 561.07 25.14 561.11C24.61 561.14 24.08 561.03 23.61 560.77C23.44 560.71 23.28 560.63 23.12 560.54C23.4 560.49 23.68 560.5 23.95 560.55C24.11 560.59 24.25 560.65 24.39 560.73Z" id="d2NVIDqH8M"></path><path d="M25.43 561.84C25.72 561.94 25.98 562.1 26.21 562.31C26.76 562.75 27.44 562.98 28.15 562.98C28.02 563.03 27.87 563.06 27.73 563.05C27.57 563.05 26.31 563.05 26.15 563.05C25.98 563.07 25.8 563.07 25.63 563.05C25.4 563 25.19 562.92 24.98 562.81C24.71 562.69 23.6 562.37 23.59 562C23.58 561.63 24.68 561.84 24.95 561.84C25.11 561.82 25.27 561.82 25.43 561.84Z" id="a8JyUX4QN"></path><path d="M62.22 563.7C62.73 563.69 63.23 563.53 63.66 563.25C64.08 562.93 63.99 562.59 63.46 562.57C62.96 562.59 62.46 562.71 62.01 562.92C61.77 563.01 61.55 563.13 61.33 563.27C61.23 563.37 60.87 563.71 60.77 563.7C61.25 563.74 61.74 563.74 62.22 563.7Z" id="j71sVrj1Y"></path><path d="M62.16 564.84C61.75 565 61.31 565.1 60.87 565.13C60.76 565.13 60.45 565.13 60.49 564.96C60.53 564.79 60.99 564.84 61.1 564.82C61.59 564.75 62.08 564.64 62.56 564.5C62.56 564.68 62.33 564.78 62.16 564.84Z" id="c1sZg9mO6z"></path><path d="M59.9 564.54C59.79 564.76 59.55 564.89 59.3 564.86C59.06 564.84 58.83 564.78 58.61 564.68C58.24 564.57 57.85 564.52 57.46 564.51C57.29 564.53 57.12 564.53 56.94 564.51C56.43 564.42 56.6 564.22 56.94 564.17C57.34 564.16 57.74 564.16 58.14 564.19C58.75 564.13 59.36 564.25 59.9 564.54Z" id="c8U2eou3c"></path><path d="M35.52 534.62C36.43 534.56 37.32 534.86 38.02 535.44C37.28 534.92 36.41 534.64 35.52 534.62Z" id="b6WhervaD"></path><path d="M39.21 533.01C39.14 532.99 38.65 532.85 38.59 532.83C38.18 532.7 37.76 532.61 37.33 532.57C37.09 532.57 36.84 532.57 36.6 532.57C36.36 532.57 36.04 532.5 35.76 532.49C36.25 532.49 36.8 532.46 37.34 532.48C38 532.49 38.64 532.67 39.21 533.01Z" id="c48Cmwh6NU"></path><path d="M40.08 534.23C39.56 533.98 39.02 533.78 38.46 533.63C38.15 533.53 37.2 533.11 36.98 533.4C37.77 533.63 38.68 533.71 39.58 533.89C39.79 533.89 40.04 534.02 40.08 534.23Z" id="aiPYBWa5H"></path><path d="M44.1 525.77C44.08 526.44 43.73 527.05 43.17 527.41C42.61 527.76 41.99 527.99 41.33 528.1C40.68 528.21 40.05 528.4 39.45 528.67C39.16 528.81 38.26 529.66 37.97 529.66C37.68 529.66 38.19 529.04 38.32 528.94C39.32 528.26 40.42 527.74 41.58 527.39C42.54 527.06 43.41 526.51 44.1 525.77Z" id="c1xMGiQWo"></path><path d="M55.7 536.78C55.85 536.33 57.07 536.5 57.37 536.51C58.12 536.53 58.85 536.66 59.56 536.89C59.25 536.78 55.47 537.51 55.7 536.78Z" id="b2hWQX1eT4"></path><path d="M55.24 451.16C54.23 455.67 49.76 458.51 45.25 457.51C40.74 456.5 37.89 452.03 38.9 447.52C39.9 443.01 44.37 440.16 48.88 441.17C52.71 442.02 55.43 445.41 55.44 449.33C55.44 449.94 55.37 450.56 55.24 451.16Z" id="a4mCFjePTk"></path><path d="M50.24 462.28C50.24 462.28 39.19 464.85 39.19 464.85C39.19 464.85 44.45 455.4 43.94 453.05C43.43 450.71 51.41 452.76 51.41 452.76C51.18 454.67 48.7 460.67 50.24 462.28Z" id="dqUIiViQP"></path><path d="M62.69 507.25C62.54 510.99 55.88 518.53 54.34 517.24C52.8 515.95 42.35 513.5 42.35 513.5C42.35 513.5 40.81 511.09 39.21 511.09C38.29 511.01 37.39 510.78 36.55 510.41C36.58 509.98 36.83 506.54 36.86 506.11C36.86 506.11 59.63 502.23 62.12 505.37C62.39 505.78 62.59 506.23 62.69 506.7C62.7 506.88 62.7 507.07 62.69 507.25Z" id="d1SZhI2pFK"></path><path d="M59.02 513.48C57.13 515.68 55.11 517.24 54.34 516.62C53.77 516.25 53.16 515.96 52.52 515.76C49.05 514.49 42.33 512.88 42.33 512.88C42.33 512.88 40.79 510.47 39.19 510.47C37.58 510.47 34.49 508.86 34.49 508.86C34.49 508.86 34.79 508.42 34.49 506.81C34.19 505.2 29.5 507.69 29.5 507.69C29.5 507.69 29.28 496.85 30.96 491.58C32.63 486.3 31.83 479.59 31.83 479.59C31.83 479.59 33.04 472.96 34.35 467.71C35.14 464.56 35.97 461.91 36.6 461.5C38.29 460.4 47.07 461.5 47.07 461.5C48.76 461.53 50.45 461.67 52.12 461.94C52.55 462.12 52.92 462.41 53.18 462.8C53.21 462.84 53.41 463.13 53.44 463.17C54.59 465.19 55.57 467.31 56.37 469.49C57.76 472.86 63.26 487.06 63.26 487.06C63.26 487.06 63.11 488.06 61.86 492.34C60.61 496.61 62.84 502.86 62.69 506.59C62.62 508.46 60.91 511.29 59.02 513.48Z" id="adoqYFnoc"></path><path d="M56.4 510.91C57.97 512.45 58.85 513.31 59.02 513.48C59.02 513.48 61.44 521.82 58.29 521.08C58.29 521.08 52.52 515.76 52.52 515.76C53.04 515.11 54.33 513.5 56.4 510.91Z" id="b28DBg6GHj"></path><path d="M55.22 478.9C55.22 478.9 54.78 470.26 53.97 468.66C53.49 467.08 53.24 465.45 53.24 463.8C54.39 465.82 55.37 467.94 56.17 470.12C57.56 473.49 63.06 487.69 63.06 487.69C56.82 487.62 56.78 480.66 55.22 478.9Z" id="f6X3l96sfK"></path><path d="M55.44 478.24C55.44 478.24 55 469.6 54.19 468C53.71 466.42 53.46 464.79 53.46 463.14C54.61 465.16 55.59 467.28 56.39 469.46C57.78 472.83 63.28 487.03 63.28 487.03C57.04 486.96 57 480 55.44 478.24Z" id="b6o69Aah"></path><path d="M47.3 465.54C45.41 469.01 44.35 472.87 44.22 476.82C44.17 478.19 43.75 489.2 43.7 490.58C44.18 491.47 44.49 492.44 44.62 493.44C44.62 494.44 46.42 497.43 46.42 497.43C46.42 497.43 46.86 503.22 48.53 504.17C48.7 504.65 49.99 508.45 50.15 508.93C50.15 508.93 50.22 512.07 51.32 513.32C51.97 514.24 52.16 515.41 51.84 516.49C52.49 516.26 57.7 514.44 58.35 514.21C58.35 514.21 57.61 514.48 58.35 512.51C58.35 512.51 57.91 507.98 57.91 507.98C57.91 507.98 53.74 498.9 53.22 497.58C53.22 497.58 51.98 494.73 52.22 493.19C52.22 493.19 52.28 475.32 52.66 472.83C53.04 470.34 52.12 465.54 52.12 465.54C51.16 465.54 50.29 460.54 47.3 465.54Z" id="hcu3ZKHW6"></path><path d="M47.97 464.85C46.08 468.32 45.03 472.18 44.89 476.13C44.84 477.5 44.43 488.51 44.38 489.89C44.86 490.78 45.17 491.75 45.3 492.75C45.3 493.75 47.09 496.74 47.09 496.74C47.09 496.74 47.53 502.53 49.21 503.47C49.37 503.95 50.66 507.76 50.82 508.24C50.82 508.24 50.9 511.39 52 512.63C52.65 513.55 52.84 514.72 52.52 515.8C53.17 515.57 58.37 513.75 59.02 513.52C59.02 513.52 58.29 513.79 59.02 511.82C59.75 509.84 58.56 507.26 58.56 507.26C58.56 507.26 54.4 498.18 53.88 496.86C53.36 495.54 52.64 494.01 52.88 492.47C53.12 490.93 52.94 474.6 53.31 472.1C53.68 469.6 52.8 464.85 52.8 464.85C51.83 464.85 50.97 459.86 47.97 464.85Z" id="c4rESfnuE"></path><path d="M53.73 508.15C53.93 508.25 54.1 508.41 54.3 508.52C54.53 508.65 54.78 508.72 55.05 508.72C54.75 508.73 54.46 508.73 54.17 508.72C53.99 508.73 53.8 508.71 53.63 508.65C53.46 508.57 53.31 508.47 53.17 508.36C52.99 508.23 52.8 508.12 52.59 508.03C52.43 507.97 52.26 507.95 52.2 507.79C52.45 507.81 52.69 507.85 52.93 507.91C53.21 507.95 53.48 508.03 53.73 508.15Z" id="d7f8ZefVZ"></path><path d="M56.24 509.8C56.64 509.78 57.04 509.8 57.44 509.86C56.86 510.16 56.19 510.28 55.54 510.2C55.35 510.15 55.15 510.15 54.97 510.2C54.77 510.28 54.17 510.96 54.12 510.36C54.07 509.76 55.07 509.89 55.41 509.88C55.69 509.88 55.96 509.82 56.24 509.8Z" id="a2CdDzTMzo"></path><path d="M52.04 440.54C51.4 440.07 51.04 439.81 50.97 439.76C51.09 439.8 51.2 439.85 51.3 439.91C51.53 440.03 51.73 440.19 51.9 440.38C51.92 440.4 52.04 440.5 52.24 440.69L52.04 440.54Z" id="d8n4vAld4"></path><path d="M52.3 463.86C52.06 464.02 51.79 464.12 51.51 464.16C51.11 464.2 50.71 464.16 50.33 464.04C49.85 463.91 49.36 463.75 48.89 463.57C47.97 463.18 47.03 462.85 46.07 462.57C44.61 462.13 43.02 462.45 41.85 463.43C40.92 464.37 40.7 465.83 39.78 466.77C38.55 468.03 36.53 467.95 34.79 467.7C34.75 467.69 34.42 467.64 34.38 467.64C35.17 464.49 36 461.84 36.63 461.43C38.32 460.34 47.1 461.43 47.1 461.43C48.79 461.46 50.48 461.6 52.15 461.87C52.58 462.06 52.95 462.37 53.2 462.77C53 463.21 52.69 463.59 52.3 463.86Z" id="b68B30oM5R"></path><path d="M47.05 440.96C49.25 440.95 51.35 441.8 52.92 443.33C52.92 443.33 52.92 443.33 52.92 443.33C52.92 444.78 52.63 446.33 53.04 447.68C53.54 448.96 54.29 450.12 55.24 451.12C54.21 455.61 49.73 458.42 45.24 457.4C41.47 456.54 38.78 453.2 38.75 449.33C38.73 444.72 42.45 440.97 47.05 440.96Z" id="d3PmWknCox"></path><path d="M52.24 440.25C48.92 437.23 44.04 436.69 40.13 438.89C39.26 439.37 38.51 440.06 37.96 440.89C36.81 442.72 37.1 445.08 36.5 447.15C35.9 449.22 34.57 450.77 33.44 452.49C32.31 454.22 31.37 456.27 31.8 458.29C32.11 459.76 33.12 461.07 33.1 462.57C33.02 464.3 31.62 465.68 29.89 465.73C31.37 466.64 33.05 467.18 34.78 467.31C36.53 467.56 38.55 467.64 39.77 466.38C40.69 465.44 40.91 463.98 41.84 463.04C43.01 462.06 44.6 461.74 46.06 462.18C47.52 462.52 48.86 463.18 50.32 463.61C50.7 463.73 51.1 463.77 51.5 463.73C52.75 463.56 53.5 462.17 53.58 460.91C53.66 459.92 53.51 458.67 54.25 457.92C54.53 457.68 54.83 457.47 55.16 457.29C56.32 456.49 56.94 455.1 56.77 453.7C56.42 451.23 53.77 449.71 53.03 447.27C52.62 445.87 52.93 444.37 52.91 442.93C52.89 441.48 52.33 439.81 50.96 439.32" id="a6mZLHLFaX"></path><path d="M52.9 447.27C52.49 445.87 52.81 444.37 52.78 442.93C52.8 441.91 52.49 440.92 51.9 440.1C51.92 440.11 52.09 440.23 52.11 440.25C52 440.14 51.88 440.04 51.76 439.94C51.59 439.76 51.4 439.61 51.19 439.48C51.17 439.46 51.04 439.38 50.81 439.22L51.01 439.41C50.89 439.32 50.82 439.27 50.8 439.26C51.39 440.08 51.7 441.07 51.68 442.09C51.68 443.53 51.39 445.08 51.8 446.42C52.51 448.83 55.2 450.42 55.54 452.86C55.71 454.27 55.09 455.65 53.93 456.45C53.61 456.63 53.3 456.84 53.02 457.08C52.28 457.82 52.43 459.08 52.35 460.08C52.25 461.33 51.53 462.72 50.28 462.89C49.88 462.93 49.48 462.89 49.09 462.77C47.65 462.39 46.29 461.68 44.83 461.34C43.37 460.9 41.78 461.22 40.61 462.2C39.69 463.13 39.47 464.6 38.55 465.54C37.31 466.79 35.29 466.72 33.55 466.47C32.41 466.34 31.28 466.08 30.2 465.7C30.05 465.71 29.9 465.71 29.76 465.7C31.24 466.61 32.92 467.15 34.65 467.28C36.4 467.53 38.42 467.61 39.64 466.35C40.56 465.41 40.79 463.95 41.71 463.01C42.88 462.03 44.47 461.71 45.93 462.15C47.39 462.49 48.74 463.15 50.19 463.58C50.58 463.7 50.98 463.74 51.38 463.7C52.63 463.53 53.38 462.14 53.45 460.88C53.53 459.89 53.38 458.64 54.12 457.89C54.4 457.65 54.7 457.44 55.03 457.26C56.18 456.46 56.8 455.09 56.64 453.7C56.3 451.23 53.64 449.71 52.9 447.27Z" id="b2iKit94km"></path><path d="M43.59 580.79C20.91 579.92 3.12 575.74 1.81 571.38C0.5 567.01 15.96 563.46 38.38 563.39C63.38 563.39 87.18 567.67 88.78 572.99C90.38 578.32 68.89 581.76 43.59 580.79Z" id="eDCfclymn"></path><path d="M1009.94 438.8L1044.65 413.85L1044.65 468.08L1009.94 443.68L1009.94 438.25L1009.94 438.8ZM995.84 403.01C1001.83 403.01 1006.69 407.86 1006.69 413.85C1006.69 419.28 1006.69 462.66 1006.69 468.08C1006.69 474.07 1001.83 478.92 995.84 478.92C990.96 478.92 951.92 478.92 947.04 478.92C941.05 478.92 936.2 474.07 936.2 468.08C936.2 462.66 936.2 419.28 936.2 413.85C936.2 407.89 941.08 403.01 947.04 403.01C956.8 403.01 990.96 403.01 995.84 403.01Z" id="a2OuqgB81N"></path><path d="M35.76 422.95L81.57 435.86L110.72 402.13L76.75 425.75L58.8 420.74L122.77 388.76L106.22 449.43L90.6 435.53L81.57 447.71L81.57 444.51L73.24 442.18L73.24 472.92L91.87 447.81L110.72 464.59L135.7 372.98L35.76 422.95Z" id="bbVZR4WEY7"></path></defs><g><g><g><use xlink:href="#b2U4LgJMIE" opacity="1" fill="#a3ffad" fill-opacity="1"></use><g><use xlink:href="#b2U4LgJMIE" opacity="1" fill-opacity="0" stroke="#000000" stroke-width="1" stroke-opacity="0"></use></g></g><g><use xlink:href="#a5RvJRFaHz" opacity="1" fill="#000000" fill-opacity="0"></use><g><use xlink:href="#a5RvJRFaHz" opacity="1" fill-opacity="0" stroke="#535461" stroke-width="2" stroke-opacity="1"></use></g></g><g><use xlink:href="#i4pR4Y1Uhj" opacity="1" fill="#6c63ff" fill-opacity="1"></use><g><use xlink:href="#i4pR4Y1Uhj" opacity="1" fill-opacity="0" stroke="#000000" stroke-width="1" stroke-opacity="0"></use></g></g><g><use xlink:href="#awmL4FQqO" opacity="1" fill="#6c63ff" fill-opacity="1"></use><g><use xlink:href="#awmL4FQqO" opacity="1" fill-opacity="0" stroke="#000000" stroke-width="1" stroke-opacity="0"></use></g></g><g><use xlink:href="#ah8f6yiRL" opacity="1" fill="#6c63ff" fill-opacity="1"></use><g><use xlink:href="#ah8f6yiRL" opacity="1" fill-opacity="0" stroke="#000000" stroke-width="1" stroke-opacity="0"></use></g></g><g><use xlink:href="#c1Bu7TQKsg" opacity="1" fill="#6c63ff" fill-opacity="1"></use><g><use xlink:href="#c1Bu7TQKsg" opacity="1" fill-opacity="0" stroke="#000000" stroke-width="1" stroke-opacity="0"></use></g></g><g><use xlink:href="#dssn5skfF" opacity="1" fill="#6c63ff" fill-opacity="1"></use><g><use xlink:href="#dssn5skfF" opacity="1" fill-opacity="0" stroke="#000000" stroke-width="1" stroke-opacity="0"></use></g></g><g><use xlink:href="#b375Ss5mVf" opacity="1" fill="#6c63ff" fill-opacity="1"></use><g><use xlink:href="#b375Ss5mVf" opacity="1" fill-opacity="0" stroke="#000000" stroke-width="1" stroke-opacity="0"></use></g></g><g><use xlink:href="#a10LtGpKsl" opacity="1" fill="#6c63ff" fill-opacity="1"></use><g><use xlink:href="#a10LtGpKsl" opacity="1" fill-opacity="0" stroke="#000000" stroke-width="1" stroke-opacity="0"></use></g></g><g><use xlink:href="#a12WyzINMY" opacity="1" fill="#000000" fill-opacity="1"></use><g><use xlink:href="#a12WyzINMY" opacity="1" fill-opacity="0" stroke="#000000" stroke-width="1" stroke-opacity="0"></use></g></g><g><use xlink:href="#c2colZaMBW" opacity="1" fill="#000000" fill-opacity="1"></use><g><use xlink:href="#c2colZaMBW" opacity="1" fill-opacity="0" stroke="#000000" stroke-width="1" stroke-opacity="0"></use></g></g><g><use xlink:href="#fo6Exfz2v" opacity="1" fill="#000000" fill-opacity="1"></use><g><use xlink:href="#fo6Exfz2v" opacity="1" fill-opacity="0" stroke="#000000" stroke-width="1" stroke-opacity="0"></use></g></g><g><use xlink:href="#a1GTLgqJqG" opacity="1" fill="#000000" fill-opacity="1"></use><g><use xlink:href="#a1GTLgqJqG" opacity="1" fill-opacity="0" stroke="#000000" stroke-width="1" stroke-opacity="0"></use></g></g><g><use xlink:href="#bLn5HWqb6" opacity="1" fill="#000000" fill-opacity="1"></use><g><use xlink:href="#bLn5HWqb6" opacity="1" fill-opacity="0" stroke="#000000" stroke-width="1" stroke-opacity="0"></use></g></g><g><use xlink:href="#adywZyxxr" opacity="1" fill="#000000" fill-opacity="1"></use><g><use xlink:href="#adywZyxxr" opacity="1" fill-opacity="0" stroke="#000000" stroke-width="1" stroke-opacity="0"></use></g></g><g><use xlink:href="#a11ER2zOih" opacity="1" fill="#000000" fill-opacity="0"></use><g><use xlink:href="#a11ER2zOih" opacity="1" fill-opacity="0" stroke="#535461" stroke-width="2" stroke-opacity="1"></use></g></g><g><use xlink:href="#f17dwlFSV" opacity="1" fill="#6c63ff" fill-opacity="1"></use><g><use xlink:href="#f17dwlFSV" opacity="1" fill-opacity="0" stroke="#000000" stroke-width="1" stroke-opacity="0"></use></g></g><g><use xlink:href="#czLpM50Vp" opacity="1" fill="#6c63ff" fill-opacity="1"></use><g><use xlink:href="#czLpM50Vp" opacity="1" fill-opacity="0" stroke="#000000" stroke-width="1" stroke-opacity="0"></use></g></g><g><use xlink:href="#a3O8butYW" opacity="1" fill="#6c63ff" fill-opacity="1"></use><g><use xlink:href="#a3O8butYW" opacity="1" fill-opacity="0" stroke="#000000" stroke-width="1" stroke-opacity="0"></use></g></g><g><use xlink:href="#cR8U4XwB" opacity="1" fill="#6c63ff" fill-opacity="1"></use><g><use xlink:href="#cR8U4XwB" opacity="1" fill-opacity="0" stroke="#000000" stroke-width="1" stroke-opacity="0"></use></g></g><g><use xlink:href="#aPdJxab1q" opacity="1" fill="#6c63ff" fill-opacity="1"></use><g><use xlink:href="#aPdJxab1q" opacity="1" fill-opacity="0" stroke="#000000" stroke-width="1" stroke-opacity="0"></use></g></g><g><use xlink:href="#a4XXEiMHS7" opacity="1" fill="#6c63ff" fill-opacity="1"></use><g><use xlink:href="#a4XXEiMHS7" opacity="1" fill-opacity="0" stroke="#000000" stroke-width="1" stroke-opacity="0"></use></g></g><g><use xlink:href="#cBnHLXXwq" opacity="1" fill="#6c63ff" fill-opacity="1"></use><g><use xlink:href="#cBnHLXXwq" opacity="1" fill-opacity="0" stroke="#000000" stroke-width="1" stroke-opacity="0"></use></g></g><g><use xlink:href="#am1bsBoLx" opacity="1" fill="#6c63ff" fill-opacity="1"></use><g><use xlink:href="#am1bsBoLx" opacity="1" fill-opacity="0" stroke="#000000" stroke-width="1" stroke-opacity="0"></use></g></g><g><use xlink:href="#b19NZwbpT" opacity="1" fill="#ffffff" fill-opacity="1"></use><g><use xlink:href="#b19NZwbpT" opacity="1" fill-opacity="0" stroke="#000000" stroke-width="1" stroke-opacity="0"></use></g></g><g><use xlink:href="#bmLamydsy" opacity="1" fill="#6c63ff" fill-opacity="1"></use><g><use xlink:href="#bmLamydsy" opacity="1" fill-opacity="0" stroke="#000000" stroke-width="1" stroke-opacity="0"></use></g></g><g><use xlink:href="#f1WwAPAGH9" opacity="1" fill="#ffffff" fill-opacity="1"></use><g><use xlink:href="#f1WwAPAGH9" opacity="1" fill-opacity="0" stroke="#000000" stroke-width="1" stroke-opacity="0"></use></g></g><g><use xlink:href="#feRY6nDaF" opacity="1" fill="#6c63ff" fill-opacity="1"></use><g><use xlink:href="#feRY6nDaF" opacity="1" fill-opacity="0" stroke="#000000" stroke-width="1" stroke-opacity="0"></use></g></g><g><use xlink:href="#aLlr7CER" opacity="1" fill="#ffffff" fill-opacity="1"></use><g><use xlink:href="#aLlr7CER" opacity="1" fill-opacity="0" stroke="#000000" stroke-width="1" stroke-opacity="0"></use></g></g><g><use xlink:href="#aFhCOwyTI" opacity="1" fill="#6c63ff" fill-opacity="1"></use><g><use xlink:href="#aFhCOwyTI" opacity="1" fill-opacity="0" stroke="#000000" stroke-width="1" stroke-opacity="0"></use></g></g><g><use xlink:href="#b2nWhJc9Mh" opacity="1" fill="#ffffff" fill-opacity="1"></use><g><use xlink:href="#b2nWhJc9Mh" opacity="1" fill-opacity="0" stroke="#000000" stroke-width="1" stroke-opacity="0"></use></g></g><g><use xlink:href="#dOnu0tL7C" opacity="1" fill="#6c63ff" fill-opacity="1"></use><g><use xlink:href="#dOnu0tL7C" opacity="1" fill-opacity="0" stroke="#000000" stroke-width="1" stroke-opacity="0"></use></g></g><g><use xlink:href="#b18VzInoE6" opacity="1" fill="#000000" fill-opacity="1"></use><g><use xlink:href="#b18VzInoE6" opacity="1" fill-opacity="0" stroke="#000000" stroke-width="1" stroke-opacity="0"></use></g></g><g><use xlink:href="#c15cjhMhdn" opacity="1" fill="#000000" fill-opacity="1"></use><g><use xlink:href="#c15cjhMhdn" opacity="1" fill-opacity="0" stroke="#000000" stroke-width="1" stroke-opacity="0"></use></g></g><g><use xlink:href="#k6AkYjKUM" opacity="1" fill="#ffd037" fill-opacity="1"></use><g><use xlink:href="#k6AkYjKUM" opacity="1" fill-opacity="0" stroke="#000000" stroke-width="1" stroke-opacity="0"></use></g></g><g><use xlink:href="#a16iMqpqgJ" opacity="1" fill="#ffd037" fill-opacity="1"></use><g><use xlink:href="#a16iMqpqgJ" opacity="1" fill-opacity="0" stroke="#000000" stroke-width="1" stroke-opacity="0"></use></g></g><g><use xlink:href="#az4agmpY" opacity="1" fill="#f7ff63" fill-opacity="1"></use><g><use xlink:href="#az4agmpY" opacity="1" fill-opacity="0" stroke="#000000" stroke-width="1" stroke-opacity="0"></use></g></g><g><use xlink:href="#bjZUVcTOY" opacity="1" fill="#f7ff63" fill-opacity="1"></use><g><use xlink:href="#bjZUVcTOY" opacity="1" fill-opacity="0" stroke="#000000" stroke-width="1" stroke-opacity="0"></use></g></g><g><use xlink:href="#a5Mryg9IV" opacity="1" fill="#000000" fill-opacity="1"></use><g><use xlink:href="#a5Mryg9IV" opacity="1" fill-opacity="0" stroke="#000000" stroke-width="1" stroke-opacity="0"></use></g></g><g><use xlink:href="#anJxGY5Aw" opacity="1" fill="#ffd037" fill-opacity="1"></use><g><use xlink:href="#anJxGY5Aw" opacity="1" fill-opacity="0" stroke="#000000" stroke-width="1" stroke-opacity="0"></use></g></g><g><use xlink:href="#cx5b6OE9" opacity="1" fill="#ffd037" fill-opacity="1"></use><g><use xlink:href="#cx5b6OE9" opacity="1" fill-opacity="0" stroke="#000000" stroke-width="1" stroke-opacity="0"></use></g></g><g><use xlink:href="#f2xQetfuwk" opacity="1" fill="#6c63ff" fill-opacity="1"></use><g><use xlink:href="#f2xQetfuwk" opacity="1" fill-opacity="0" stroke="#000000" stroke-width="1" stroke-opacity="0"></use></g></g><g><use xlink:href="#b1CYXooAcH" opacity="1" fill="#444053" fill-opacity="1"></use><g><use xlink:href="#b1CYXooAcH" opacity="1" fill-opacity="0" stroke="#000000" stroke-width="1" stroke-opacity="0"></use></g></g><g><use xlink:href="#evHQRZcJU" opacity="1" fill="#9d9cb5" fill-opacity="1"></use><g><use xlink:href="#evHQRZcJU" opacity="1" fill-opacity="0" stroke="#000000" stroke-width="1" stroke-opacity="0"></use></g></g><g><use xlink:href="#eYxRXK7k9" opacity="1" fill="#9d9cb5" fill-opacity="1"></use><g><use xlink:href="#eYxRXK7k9" opacity="1" fill-opacity="0" stroke="#000000" stroke-width="1" stroke-opacity="0"></use></g></g><g><use xlink:href="#a5TBdRedyx" opacity="1" fill="#9d9cb5" fill-opacity="1"></use><g><use xlink:href="#a5TBdRedyx" opacity="1" fill-opacity="0" stroke="#000000" stroke-width="1" stroke-opacity="0"></use></g></g><g><use xlink:href="#cMHy3dsmA" opacity="1" fill="#ffffff" fill-opacity="1"></use><g><use xlink:href="#cMHy3dsmA" opacity="1" fill-opacity="0" stroke="#000000" stroke-width="1" stroke-opacity="0"></use></g></g><g><use xlink:href="#b19kSdJClt" opacity="1" fill="#ffffff" fill-opacity="1"></use><g><use xlink:href="#b19kSdJClt" opacity="1" fill-opacity="0" stroke="#000000" stroke-width="1" stroke-opacity="0"></use></g></g><g><use xlink:href="#a4fEYf91Rz" opacity="1" fill="#6c63ff" fill-opacity="1"></use><g><use xlink:href="#a4fEYf91Rz" opacity="1" fill-opacity="0" stroke="#000000" stroke-width="1" stroke-opacity="0"></use></g></g><g><use xlink:href="#cpTyDSQ7D" opacity="1" fill="#6c63ff" fill-opacity="1"></use><g><use xlink:href="#cpTyDSQ7D" opacity="1" fill-opacity="0" stroke="#000000" stroke-width="1" stroke-opacity="0"></use></g></g><g><use xlink:href="#bgiwa5kh9" opacity="1" fill="#6c63ff" fill-opacity="1"></use><g><use xlink:href="#bgiwa5kh9" opacity="1" fill-opacity="0" stroke="#000000" stroke-width="1" stroke-opacity="0"></use></g></g><g><use xlink:href="#adaikbTKi" opacity="1" fill="#6c63ff" fill-opacity="1"></use><g><use xlink:href="#adaikbTKi" opacity="1" fill-opacity="0" stroke="#000000" stroke-width="1" stroke-opacity="0"></use></g></g><g><use xlink:href="#f3LMP27zRe" opacity="1" fill="url(#gradientaBZV6F5R6)"></use><g><use xlink:href="#f3LMP27zRe" opacity="1" fill-opacity="0" stroke="#000000" stroke-width="1" stroke-opacity="0"></use></g></g><g><use xlink:href="#a1lnPZ2Zha" opacity="1" fill="#444053" fill-opacity="1"></use><g><use xlink:href="#a1lnPZ2Zha" opacity="1" fill-opacity="0" stroke="#000000" stroke-width="1" stroke-opacity="0"></use></g></g><g><use xlink:href="#f2qlajGvyF" opacity="1" fill="#000000" fill-opacity="1"></use><g><use xlink:href="#f2qlajGvyF" opacity="1" fill-opacity="0" stroke="#000000" stroke-width="1" stroke-opacity="0"></use></g></g><g><use xlink:href="#bBWFeCzwk" opacity="1" fill="#444053" fill-opacity="1"></use><g><use xlink:href="#bBWFeCzwk" opacity="1" fill-opacity="0" stroke="#000000" stroke-width="1" stroke-opacity="0"></use></g></g><g><use xlink:href="#b1ISMajq92" opacity="1" fill="#000000" fill-opacity="1"></use><g><use xlink:href="#b1ISMajq92" opacity="1" fill-opacity="0" stroke="#000000" stroke-width="1" stroke-opacity="0"></use></g></g><g><use xlink:href="#i1SgXY2RgA" opacity="1" fill="#444053" fill-opacity="1"></use><g><use xlink:href="#i1SgXY2RgA" opacity="1" fill-opacity="0" stroke="#000000" stroke-width="1" stroke-opacity="0"></use></g></g><g><use xlink:href="#b9ecA4kAiA" opacity="1" fill="#000000" fill-opacity="1"></use><g><use xlink:href="#b9ecA4kAiA" opacity="1" fill-opacity="0" stroke="#000000" stroke-width="1" stroke-opacity="0"></use></g></g><g><use xlink:href="#br4wrbDH" opacity="1" fill="#444053" fill-opacity="1"></use><g><use xlink:href="#br4wrbDH" opacity="1" fill-opacity="0" stroke="#000000" stroke-width="1" stroke-opacity="0"></use></g></g><g><use xlink:href="#a1IXGzq24X" opacity="1" fill="#efb7b9" fill-opacity="1"></use><g><use xlink:href="#a1IXGzq24X" opacity="1" fill-opacity="0" stroke="#000000" stroke-width="1" stroke-opacity="0"></use></g></g><g><use xlink:href="#d2r14jTB7V" opacity="1" fill="#efb7b9" fill-opacity="1"></use><g><use xlink:href="#d2r14jTB7V" opacity="1" fill-opacity="0" stroke="#000000" stroke-width="1" stroke-opacity="0"></use></g></g><g><use xlink:href="#dej4kWrXQ" opacity="1" fill="#efb7b9" fill-opacity="1"></use><g><use xlink:href="#dej4kWrXQ" opacity="1" fill-opacity="0" stroke="#000000" stroke-width="1" stroke-opacity="0"></use></g></g><g><use xlink:href="#aEg5y6z0A" opacity="1" fill="#efb7b9" fill-opacity="1"></use><g><use xlink:href="#aEg5y6z0A" opacity="1" fill-opacity="0" stroke="#000000" stroke-width="1" stroke-opacity="0"></use></g></g><g><use xlink:href="#b14kor1vzK" opacity="1" fill="#000000" fill-opacity="1"></use><g><use xlink:href="#b14kor1vzK" opacity="1" fill-opacity="0" stroke="#000000" stroke-width="1" stroke-opacity="0"></use></g></g><g><use xlink:href="#ecjH17ogO" opacity="1" fill="#ff6484" fill-opacity="1"></use><g><use xlink:href="#ecjH17ogO" opacity="1" fill-opacity="0" stroke="#000000" stroke-width="1" stroke-opacity="0"></use></g></g><g><use xlink:href="#g2PCd2yFK" opacity="1" fill="#000000" fill-opacity="1"></use><g><use xlink:href="#g2PCd2yFK" opacity="1" fill-opacity="0" stroke="#000000" stroke-width="1" stroke-opacity="0"></use></g></g><g><use xlink:href="#a1UqjjWFG3" opacity="1" fill="#ff6484" fill-opacity="1"></use><g><use xlink:href="#a1UqjjWFG3" opacity="1" fill-opacity="0" stroke="#000000" stroke-width="1" stroke-opacity="0"></use></g></g><g><use xlink:href="#abdyMwQ2TY" opacity="1" fill="#000000" fill-opacity="1"></use><g><use xlink:href="#abdyMwQ2TY" opacity="1" fill-opacity="0" stroke="#000000" stroke-width="1" stroke-opacity="0"></use></g></g><g><use xlink:href="#daEihRwFc" opacity="1" fill="#ff6484" fill-opacity="1"></use><g><use xlink:href="#daEihRwFc" opacity="1" fill-opacity="0" stroke="#000000" stroke-width="1" stroke-opacity="0"></use></g></g><g><use xlink:href="#e3QP9UPLdU" opacity="1" fill="#000000" fill-opacity="1"></use><g><use xlink:href="#e3QP9UPLdU" opacity="1" fill-opacity="0" stroke="#000000" stroke-width="1" stroke-opacity="0"></use></g></g><g><use xlink:href="#i9DV4lrweP" opacity="1" fill="#000000" fill-opacity="1"></use><g><use xlink:href="#i9DV4lrweP" opacity="1" fill-opacity="0" stroke="#000000" stroke-width="1" stroke-opacity="0"></use></g></g><g><use xlink:href="#aXKWZCVI9" opacity="1" fill="#925978" fill-opacity="1"></use><g><use xlink:href="#aXKWZCVI9" opacity="1" fill-opacity="0" stroke="#000000" stroke-width="1" stroke-opacity="0"></use></g></g><g><use xlink:href="#fxXM4bfvM" opacity="1" fill="#000000" fill-opacity="1"></use><g><use xlink:href="#fxXM4bfvM" opacity="1" fill-opacity="0" stroke="#000000" stroke-width="1" stroke-opacity="0"></use></g></g><g><use xlink:href="#f1Mcq2GbFj" opacity="1" fill="#000000" fill-opacity="1"></use><g><use xlink:href="#f1Mcq2GbFj" opacity="1" fill-opacity="0" stroke="#000000" stroke-width="1" stroke-opacity="0"></use></g></g><g><use xlink:href="#a1aYZ8yFAg" opacity="1" fill="#000000" fill-opacity="1"></use><g><use xlink:href="#a1aYZ8yFAg" opacity="1" fill-opacity="0" stroke="#000000" stroke-width="1" stroke-opacity="0"></use></g></g><g><use xlink:href="#beRErf5WS" opacity="1" fill="url(#gradientc2RYGvUl4y)"></use><g><use xlink:href="#beRErf5WS" opacity="1" fill-opacity="0" stroke="#000000" stroke-width="1" stroke-opacity="0"></use></g></g><g><use xlink:href="#g2YMbXUwYX" opacity="1" fill="#ff6484" fill-opacity="1"></use><g><use xlink:href="#g2YMbXUwYX" opacity="1" fill-opacity="0" stroke="#000000" stroke-width="1" stroke-opacity="0"></use></g></g><g><use xlink:href="#c5PUVSop66" opacity="1" fill="#000000" fill-opacity="1"></use><g><use xlink:href="#c5PUVSop66" opacity="1" fill-opacity="0" stroke="#000000" stroke-width="1" stroke-opacity="0"></use></g></g><g><use xlink:href="#cMLkszCy5" opacity="1" fill="#ff6484" fill-opacity="1"></use><g><use xlink:href="#cMLkszCy5" opacity="1" fill-opacity="0" stroke="#000000" stroke-width="1" stroke-opacity="0"></use></g></g><g><use xlink:href="#mmmeACIqp" opacity="1" fill="#444053" fill-opacity="1"></use><g><use xlink:href="#mmmeACIqp" opacity="1" fill-opacity="0" stroke="#000000" stroke-width="1" stroke-opacity="0"></use></g></g><g><use xlink:href="#b4WVvT5ATd" opacity="1" fill="#000000" fill-opacity="1"></use><g><use xlink:href="#b4WVvT5ATd" opacity="1" fill-opacity="0" stroke="#000000" stroke-width="1" stroke-opacity="0"></use></g></g><g><use xlink:href="#cr3WHyVs" opacity="1" fill="#000000" fill-opacity="1"></use><g><use xlink:href="#cr3WHyVs" opacity="1" fill-opacity="0" stroke="#000000" stroke-width="1" stroke-opacity="0"></use></g></g><g><use xlink:href="#e1829XxTCa" opacity="1" fill="#444053" fill-opacity="1"></use><g><use xlink:href="#e1829XxTCa" opacity="1" fill-opacity="0" stroke="#000000" stroke-width="1" stroke-opacity="0"></use></g></g><g><use xlink:href="#f1DP0TbivD" opacity="1" fill="#000000" fill-opacity="1"></use><g><use xlink:href="#f1DP0TbivD" opacity="1" fill-opacity="0" stroke="#000000" stroke-width="1" stroke-opacity="0"></use></g></g><g><use xlink:href="#i33qbLOtru" opacity="1" fill="#000000" fill-opacity="1"></use><g><use xlink:href="#i33qbLOtru" opacity="1" fill-opacity="0" stroke="#000000" stroke-width="1" stroke-opacity="0"></use></g></g><g><use xlink:href="#apIVLCU8C" opacity="1" fill="#000000" fill-opacity="1"></use><g><use xlink:href="#apIVLCU8C" opacity="1" fill-opacity="0" stroke="#000000" stroke-width="1" stroke-opacity="0"></use></g></g><g><use xlink:href="#d2NVIDqH8M" opacity="1" fill="#000000" fill-opacity="1"></use><g><use xlink:href="#d2NVIDqH8M" opacity="1" fill-opacity="0" stroke="#000000" stroke-width="1" stroke-opacity="0"></use></g></g><g><use xlink:href="#a8JyUX4QN" opacity="1" fill="#000000" fill-opacity="1"></use><g><use xlink:href="#a8JyUX4QN" opacity="1" fill-opacity="0" stroke="#000000" stroke-width="1" stroke-opacity="0"></use></g></g><g><use xlink:href="#j71sVrj1Y" opacity="1" fill="#000000" fill-opacity="1"></use><g><use xlink:href="#j71sVrj1Y" opacity="1" fill-opacity="0" stroke="#000000" stroke-width="1" stroke-opacity="0"></use></g></g><g><use xlink:href="#c1sZg9mO6z" opacity="1" fill="#000000" fill-opacity="1"></use><g><use xlink:href="#c1sZg9mO6z" opacity="1" fill-opacity="0" stroke="#000000" stroke-width="1" stroke-opacity="0"></use></g></g><g><use xlink:href="#c8U2eou3c" opacity="1" fill="#000000" fill-opacity="1"></use><g><use xlink:href="#c8U2eou3c" opacity="1" fill-opacity="0" stroke="#000000" stroke-width="1" stroke-opacity="0"></use></g></g><g><use xlink:href="#b6WhervaD" opacity="1" fill="#000000" fill-opacity="1"></use><g><use xlink:href="#b6WhervaD" opacity="1" fill-opacity="0" stroke="#000000" stroke-width="1" stroke-opacity="0"></use></g></g><g><use xlink:href="#c48Cmwh6NU" opacity="1" fill="#000000" fill-opacity="1"></use><g><use xlink:href="#c48Cmwh6NU" opacity="1" fill-opacity="0" stroke="#000000" stroke-width="1" stroke-opacity="0"></use></g></g><g><use xlink:href="#aiPYBWa5H" opacity="1" fill="#000000" fill-opacity="1"></use><g><use xlink:href="#aiPYBWa5H" opacity="1" fill-opacity="0" stroke="#000000" stroke-width="1" stroke-opacity="0"></use></g></g><g><use xlink:href="#c1xMGiQWo" opacity="1" fill="#000000" fill-opacity="1"></use><g><use xlink:href="#c1xMGiQWo" opacity="1" fill-opacity="0" stroke="#000000" stroke-width="1" stroke-opacity="0"></use></g></g><g><use xlink:href="#b2hWQX1eT4" opacity="1" fill="#000000" fill-opacity="1"></use><g><use xlink:href="#b2hWQX1eT4" opacity="1" fill-opacity="0" stroke="#000000" stroke-width="1" stroke-opacity="0"></use></g></g><g><use xlink:href="#a4mCFjePTk" opacity="1" fill="#fbbebe" fill-opacity="1"></use><g><use xlink:href="#a4mCFjePTk" opacity="1" fill-opacity="0" stroke="#000000" stroke-width="1" stroke-opacity="0"></use></g></g><g><use xlink:href="#dqUIiViQP" opacity="1" fill="#000000" fill-opacity="0"></use><g><use xlink:href="#dqUIiViQP" opacity="1" fill-opacity="0" stroke="#6c63ff" stroke-width="1" stroke-opacity="1"></use></g></g><g><use xlink:href="#d1SZhI2pFK" opacity="1" fill="#000000" fill-opacity="1"></use><g><use xlink:href="#d1SZhI2pFK" opacity="1" fill-opacity="0" stroke="#000000" stroke-width="1" stroke-opacity="0"></use></g></g><g><use xlink:href="#adoqYFnoc" opacity="1" fill="#65617d" fill-opacity="1"></use><g><use xlink:href="#adoqYFnoc" opacity="1" fill-opacity="0" stroke="#000000" stroke-width="1" stroke-opacity="0"></use></g></g><g><use xlink:href="#b28DBg6GHj" opacity="1" fill="#fbbebe" fill-opacity="1"></use><g><use xlink:href="#b28DBg6GHj" opacity="1" fill-opacity="0" stroke="#000000" stroke-width="1" stroke-opacity="0"></use></g></g><g><use xlink:href="#f6X3l96sfK" opacity="1" fill="#000000" fill-opacity="1"></use><g><use xlink:href="#f6X3l96sfK" opacity="1" fill-opacity="0" stroke="#000000" stroke-width="1" stroke-opacity="0"></use></g></g><g><use xlink:href="#b6o69Aah" opacity="1" fill="#65617d" fill-opacity="1"></use><g><use xlink:href="#b6o69Aah" opacity="1" fill-opacity="0" stroke="#000000" stroke-width="1" stroke-opacity="0"></use></g></g><g><use xlink:href="#hcu3ZKHW6" opacity="1" fill="#000000" fill-opacity="1"></use><g><use xlink:href="#hcu3ZKHW6" opacity="1" fill-opacity="0" stroke="#000000" stroke-width="1" stroke-opacity="0"></use></g></g><g><use xlink:href="#c4rESfnuE" opacity="1" fill="#ff6484" fill-opacity="1"></use><g><use xlink:href="#c4rESfnuE" opacity="1" fill-opacity="0" stroke="#000000" stroke-width="1" stroke-opacity="0"></use></g></g><g><use xlink:href="#d7f8ZefVZ" opacity="1" fill="#000000" fill-opacity="1"></use><g><use xlink:href="#d7f8ZefVZ" opacity="1" fill-opacity="0" stroke="#000000" stroke-width="1" stroke-opacity="0"></use></g></g><g><use xlink:href="#a2CdDzTMzo" opacity="1" fill="#000000" fill-opacity="1"></use><g><use xlink:href="#a2CdDzTMzo" opacity="1" fill-opacity="0" stroke="#000000" stroke-width="1" stroke-opacity="0"></use></g></g><g><use xlink:href="#d8n4vAld4" opacity="1" fill="#000000" fill-opacity="1"></use><g><use xlink:href="#d8n4vAld4" opacity="1" fill-opacity="0" stroke="#000000" stroke-width="1" stroke-opacity="0"></use></g></g><g><use xlink:href="#b68B30oM5R" opacity="1" fill="#000000" fill-opacity="1"></use><g><use xlink:href="#b68B30oM5R" opacity="1" fill-opacity="0" stroke="#000000" stroke-width="1" stroke-opacity="0"></use></g></g><g><use xlink:href="#d3PmWknCox" opacity="1" fill="#000000" fill-opacity="1"></use><g><use xlink:href="#d3PmWknCox" opacity="1" fill-opacity="0" stroke="#000000" stroke-width="1" stroke-opacity="0"></use></g></g><g><use xlink:href="#a6mZLHLFaX" opacity="1" fill="#444053" fill-opacity="1"></use><g><use xlink:href="#a6mZLHLFaX" opacity="1" fill-opacity="0" stroke="#000000" stroke-width="1" stroke-opacity="0"></use></g></g><g><use xlink:href="#b2iKit94km" opacity="1" fill="#000000" fill-opacity="1"></use><g><use xlink:href="#b2iKit94km" opacity="1" fill-opacity="0" stroke="#000000" stroke-width="1" stroke-opacity="0"></use></g></g><g><use xlink:href="#eDCfclymn" opacity="1" fill="#6c63ff" fill-opacity="1"></use><g><use xlink:href="#eDCfclymn" opacity="1" fill-opacity="0" stroke="#000000" stroke-width="1" stroke-opacity="0"></use></g></g><g><use xlink:href="#a2OuqgB81N" opacity="1" fill="#ffffff" fill-opacity="1"></use><g><use xlink:href="#a2OuqgB81N" opacity="1" fill-opacity="0" stroke="#000000" stroke-width="1" stroke-opacity="0"></use></g></g><g><use xlink:href="#bbVZR4WEY7" opacity="1" fill="#ffffff" fill-opacity="1"></use><g><use xlink:href="#bbVZR4WEY7" opacity="1" fill-opacity="0" stroke="#000000" stroke-width="1" stroke-opacity="0"></use></g></g></g></g></svg>