<svg id="Layer_1" data-name="Layer 1" xmlns="http://www.w3.org/2000/svg" viewBox="0 0 881.13 636.57"><defs><style>.cls-1{fill:#45ccfb;}.cls-2{fill:#3dc2fb;}.cls-3{fill:#147ae6;}.cls-4{fill:#31adf4;}.cls-5{fill:#2598ef;}.cls-6{fill:#1880e8;}.cls-7{fill:#0a63dc;}.cls-8{fill:#3b5b99;}.cls-9{fill:#47bcf6;}.cls-10{fill:#096bc1;}.cls-11{fill:#3ab4f5;}.cls-12{fill:#234485;}.cls-13{fill:#0b69e1;}.cls-14{fill:#0568d0;}.cls-15{fill:#39bafa;}.cls-16{fill:#1071e3;}.cls-17{fill:#35b3f7;}.cls-18{fill:#1d8bec;}.cls-19{fill:#1a85ea;}.cls-20{fill:#d8f0f7;}.cls-21{fill:#2a9ff1;}.cls-22{fill:#2191eb;}.cls-23{fill:#2da7f4;}.cls-24{fill:#e7f3f7;}.cls-25{fill:#1176e5;}.cls-26{fill:#f4faf8;}.cls-27{fill:#c8e5f5;}.cls-28{fill:#f2f2f2;}.cls-29{fill:#fff;}.cls-30{fill:#ccc;}.cls-31{fill:#ffb8b8;}.cls-32{fill:#2f2e41;}.cls-33{fill:#6c63ff;}</style></defs><path class="cls-1" d="M620.56,440.39c13.75-22,31.58-40.28,51.71-56.43l2.79-1.42,6.68-3.87,2.64-2.17,3.14-1.54,2.9-.31-.2.07a3.79,3.79,0,0,1,.9-1.2L694,372l3.94-2.14,2.26-1.59,3.1-3.09,3.78.22,4.15-2.08,3-1.34,4.51-.54,4.14-1.07,2.71-2.3h3c2.28-1.05,4.57-2.09,6.85-3.15l5.05-2.05,3.16-.41,1.88.89L767,346.26l5.91-.14,5.34-2.07,3.56-1,6.88-1.66,8.12-.48,5.39-1.39,15.31-2.32c1.94,8.72-5.51,11.47-10.12,16.11-12.44,12.53-24.66,25.28-37.17,37.74-5.14,5.12-11.09,9.45-16.17,14.63C741.2,418.79,728.6,432.12,716,445.42c-2.91,3.07-5.35,6.6-8.31,9.61-8.45,8.56-17.16,16.86-25.56,25.46-6.25,6.4-11.8,13.51-18.32,19.6-14.95,14-30.37,27.49-45.48,41.32-6.63,6.06-13,12.44-19.43,18.68l-2-1.54V567c-.46,0-.93,0-1.39,0l-1.92-5.44-.44-4.9.33-43.89c1.78-8,2.53-16.39,5.54-23.88C605.56,472.49,613.29,456.53,620.56,440.39Z" transform="translate(-497.5 -202.26)"/><path class="cls-1" d="M1108.36,837.49l-10.44-1.93,5.68-.4-3.68-1.31-3.4-3.24-5.13-.07c3.77-6.31,8.95-2.06,13.57-1.78,2.37.14,4.72.56,9.33,1.13l-5-4.14c2.76-9.3,5.27-17.71,7.77-26.13,11.65.47,17.23-2.88,19.45-11.58,2-8-3.24-12.41-8.26-17h10L1160.12,732l11.77-1.56-10.31-5.71c20.8,2.95,41.4,2.71,61.56-4.07l3.21.15c1.5,23.79-.67,47.15-8.94,69.65-8.53,23.22-26.74,35.76-49.07,43.56l-54.81,3.24-3.12-.06Z" transform="translate(-497.5 -202.26)"/><path class="cls-2" d="M1117.11,799.62c-2.5,8.42-5,16.83-7.77,26.13l5,4.14c-4.61-.57-7-1-9.33-1.13-4.62-.28-9.8-4.53-13.57,1.78-2.65-.62-5.32-1.2-8-1.87-6.48-1.63-13-3.3-19.44-5l-1.67-.31-5.15-6.48c.21-1,.42-2,.75-3.43H1052l-1.7,0c1.56-3.25,3.13-6.49,5-10.36l-3-7.57,9.48,3.73,5.65-5.9L1065,792l23.37-46.85-1.24-.27c2.15-7.59,4.31-15.17,7.13-25.12l-7.34-9.07h16.69l10.06,1.82,8.27,1.8,12.2,3.5h-.1l11.92,4.71,5.27.47,10.37,1.76,10.31,5.71L1160.12,732l-21.86,39.09h-10c-5.42-.06-11.61-2.46-14.68,4.77l0,0c-8.27,4.34-8.74,10.1-1.69,20.43l1.8,1.79-.06-.09,1.52.5Z" transform="translate(-497.5 -202.26)"/><path class="cls-3" d="M653.3,759l-3.62-1.1c-.56-.85-1.12-1.71-1.69-2.56l-4.57,0c-1-1-1.83-2.27-3-2.86-11.52-5.76-23-11.54-34.71-17-3.92-1.84-8.26-2.78-12.41-4.12l.07.07-3.36-7c-.78-10.41-1.57-20.81-2.41-31.77l5-3.41c-.85-2.35-1.64-4.55-1.84-5.11l26.42-35.93c.15-1.28.47-4.07.91-7.85h9.55c.48-.88,1.16-2.13,1.83-3.38L648,654.5l.12,0,6.86,6.83h0l3.39,3.42q9.52,7.59,19.06,15.17l-1.81,3.57-7.44-5.28c-.51,1.62-.82,2.59-1.13,3.56l-1.79,1.81q-1.68,2.54-3.34,5.09l-1.78,3.44-3.27,5q-1.76,2.49-3.5,5v3.58q0,3.42,0,6.84l-3.51,1,3.51.68h0l1.72,1.72v3.42c-.59,1.74-1.18,3.47-1.76,5.21l-3.32-.14-.09-3.3c-.19-.77-.39-1.55-.81-3.22l-.87,3.19,1.64,3.44,8.84,6.79,3.22,3.23,1.71,3.61h0c.57.57,1.14,1.13,1.7,1.7h0c0,1.12.07,2.23.1,3.34L661.75,745l-6.66-3.5c-.57-.56-1.14-1.13-1.7-1.7l-3.3-4.76c-.6.7-1.2,1.39-1.79,2.09l5,2.78,1.69,1.71,6.94,6.75v0l1.7,3.42v0l3.94,5.91-2.09,3.19a1.52,1.52,0,0,1-.08,1.53l-9.3-3.63Zm-4.17-10.1c0,.67-.09,1.35-.13,2l5,.28.12-2Z" transform="translate(-497.5 -202.26)"/><path class="cls-4" d="M937.11,758.92,922,754.79l-6.86-3.1c-1.38-.73-2.72-2-4.14-2.09-11.68-.76-14.29-3.06-16.49-14.72a34.92,34.92,0,0,0-2-5.49l.26.06,1.8-1.44L982,697.24c3.14,2.21,5.83,3,6.69-2.1l5.14-1.67,1.86,7.81-10.41,10.36c0,12.61-10.38,18.81-14.86,28.69l4.94,2.26c-2.08,2.65-3.91,5.06-5.8,7.41-3.3,4.08-6.63,8.14-10,12.21Z" transform="translate(-497.5 -202.26)"/><path class="cls-5" d="M892.57,729.39a34.92,34.92,0,0,1,2,5.49c2.2,11.66,4.81,14,16.49,14.72,1.42.09,2.76,1.36,4.14,2.09l-6.68.16c-34.83-5-69.44-2.34-104,3.11a35.79,35.79,0,0,0-6.06,2.06l-2.9-2-8.74-8.27,0,0-8.56-6.84,0,0-5.67-5.18-2.88-2.8-3.45-4,0,0-3.42-5.14h0l-5.74-3.43a4.6,4.6,0,0,1-1.08-1.12l-3.44-5.71h0c0-1.09-.09-2.18-.14-3.27l3.56-.15c.55,0,1.1,0,1.66,0l1.71,0q17.42,17.85,34.84,35.67c2.19,2.23,4.53,4.3,6.79,6.44l1.73-1.73c-2-2.45-4-5-6.1-7.33-6.73-7.55-13.53-15-20.3-22.55l.29-.35,26.22,20,1.13-1-11.16-12.73c.32-.53.65-1.06,1-1.58l11.87,5.16,61.69,2.43,13.51-.54Z" transform="translate(-497.5 -202.26)"/><path class="cls-6" d="M924,246.65l51.18-1.29.14.32-8.86,8.26,0,0-3.45,2c-.46.47-.91.94-1.37,1.4l-5.47,3.43,0,0-5.17,1.73,0,0-1.73,1.73h0l-1.72,1.72h0l-3.45,1.72h0l-3.44,3.44,0,0h-3.46l-8.52,6.85h0l-5.14,1.71,0,0L922,281.29v0l-10.36,5-10.24,5.14-13.6,3.59-10.25-9.81c.12-2.65.25-5.38.3-6.4l16.76-9.55h11.73l-5.94-5.07,7.46-6.49-6.47-2.2,3.39-6.38,5.31-.6Z" transform="translate(-497.5 -202.26)"/><path class="cls-7" d="M1247.53,276.34a1.49,1.49,0,0,0,1.34-.59,3.76,3.76,0,0,0,1.36.28l14-3.29,1.72.1,12.07,6.63,0-.14c.18,1.93-.32,4.36.66,5.72,4.27,5.87,3.21,11.17-.1,17.06-2,3.57-2.6,7.92-3.83,11.91l0,.07-19.06,16.4-8,2.61-7.81-7.21.14.15q.08-15.74.17-31.48l3.18-11.64,3.75-4.94A8.36,8.36,0,0,0,1247.53,276.34Z" transform="translate(-497.5 -202.26)"/><path class="cls-7" d="M1099.77,622.08c-.22,2.39-.45,4.77-.67,7.15-.65,2.09-1.3,4.2-1.95,6.31l.08-.09q-2.68,4-5.35,8.09l.08-.08-7-2.53-6.72-14q.1-6.42.19-12.84l0,.13,2.56-2.41,12-1.17Z" transform="translate(-497.5 -202.26)"/><path class="cls-8" d="M1371.65,599.47c-14,44.11-41,75.88-86.22,89.71-9.08,2.77-17.44,5.91-24.52,12.4-2.84,2.61-6.66,4.13-10,6.14l-.37-.38,26.79-20.14,9.17-1.77c39.83-12.52,64.61-40.27,79.23-78.3l4.32-9.74Z" transform="translate(-497.5 -202.26)"/><path class="cls-9" d="M937.11,758.92l22.45,3.28c0,.54.05,1.07.06,1.61l1.68,1.85c10,5.68,20,11.51,30.09,17,4,2.17,8.49,3.5,12.76,5.22,2.73,1.11,5.79,1.77,8.11,3.45,4.5,3.24,8.16,7.83,12.94,10.47,8.06,4.47,16.72,7.85,25.13,11.7l1.7,0,5.13,3.43,5.15,6.48c-9.15-4.19-18.56-7.9-27.42-12.64-26.82-14.35-53.4-29.16-80.16-43.64C949,764.05,943,761.64,937.11,758.92Z" transform="translate(-497.5 -202.26)"/><path class="cls-8" d="M1114.64,212.66l19.47,14.54-1.95,1.37-9.74-6.8c-26.22-18.39-54.68-22.89-83.81-9.46-19.94,9.2-38.3,21.82-57.37,32.91a5.8,5.8,0,0,0-1.31.3l-4.59.16-.14-.32L994,232.08l3.91-2.41a1.15,1.15,0,0,0,1-.45L1049.15,205l8.18-2.18,3.29-.52,3.43.4,17.06,0,12,1.42.72.31h.79l12.2,4.62,1.78.39Z" transform="translate(-497.5 -202.26)"/><path class="cls-8" d="M1359.73,494.17c11.49,21.77,20.72,44.31,18.59,69.52-1,11.45-4.15,22.71-6.32,34-.46-1.08-.91-2.17-1.36-3.25q1.45-8.61,2.9-17.22.2-3,.4-5.89c2.83-16.3,1.6-32.16-5.08-47.43l-2.16-6.48-6.52-13.87,0,0q-5.16-8.61-10.33-17.2l-1.33-1.74q-3.78-4.44-7.57-8.89a1,1,0,0,0-.71-.88l-13.77-12.86,1.64-1.82,2.73,1,6.86,5.92a1,1,0,0,0,1.25.57,2.47,2.47,0,0,0,.77.7,1,1,0,0,0,.53.9Z" transform="translate(-497.5 -202.26)"/><path class="cls-10" d="M539.16,676.46q-2.14-4.92-4.27-9.84l3.82-.33c3.67,6.45,6.87,13.24,11.13,19.28,4.93,7,10.76,13.39,16.26,20,3.34,4,6.8,7.94,10.21,11.9l-.31.73Z" transform="translate(-497.5 -202.26)"/><path class="cls-8" d="M751.17,293.1c-10.24-3.28-14.79-10.29-12.14-18.7,2.48-7.89,11.5-12.42,19.11-9.6,8.29,3.07,11.44,10.81,8.13,19.91L764.5,283c.6-7-.48-13.25-8.52-15.17-5.9-1.4-11,.71-13.12,6.47-2.81,7.73.82,13,8.12,16C751,291.24,751.11,292.17,751.17,293.1Z" transform="translate(-497.5 -202.26)"/><path class="cls-10" d="M593.28,731.43c4.15,1.34,8.49,2.28,12.41,4.12,11.67,5.45,23.19,11.23,34.71,17,1.19.59,2,1.89,3,2.86l4.57,0c.57.85,1.13,1.71,1.69,2.56C629.14,752.79,610.17,744.32,593.28,731.43Z" transform="translate(-497.5 -202.26)"/><path class="cls-8" d="M727.61,805l-38.19-39.39,3.84-.15L734,808h-3.4Z" transform="translate(-497.5 -202.26)"/><path class="cls-10" d="M904.78,249.17l-3.39,6.38h0l-6.82,0c-16.64-1.25-29.78,9-44.67,13.58-.07-.75-.14-1.5-.22-2.25Z" transform="translate(-497.5 -202.26)"/><path class="cls-8" d="M706.4,765.62q18.38,18.25,36.72,36.57c1.09,1.1,1.58,2.81,2.35,4.24a3.57,3.57,0,0,0-1.48.35l-41.38-40.95Z" transform="translate(-497.5 -202.26)"/><path class="cls-9" d="M1108.36,837.49l2.05-.31,3.12.06,54.81-3.24c-4.89,1.69-9.76,4.75-14.67,4.81C1138.57,839,1123.47,838,1108.36,837.49Z" transform="translate(-497.5 -202.26)"/><path class="cls-8" d="M747.33,349.87l-35.11-34.45c.83-1,1.67-2,2.51-3L749.23,348Z" transform="translate(-497.5 -202.26)"/><path class="cls-8" d="M1291.67,438.27l5.09,2.14,4.8,2.74,1.88.77,8.74,4.86,3.6,2.13,10,6.65c.79.9,1.57,1.8,2.36,2.69l-1.64,1.82-38.29-21.89-3.7-2.53.25-2.2Z" transform="translate(-497.5 -202.26)"/><path class="cls-8" d="M764.64,760.83,785.16,781a4.72,4.72,0,0,1-.12,1.59c-2.07-.86-4.59-1.25-6.14-2.68-5.57-5.14-10.61-10.84-16.26-15.87-2-1.82-5.25-2.35-7.92-3.47l3-1.94,3.66,0Z" transform="translate(-497.5 -202.26)"/><path class="cls-11" d="M1064,823.71c6.48,1.66,13,3.33,19.44,5,2.65.67,5.32,1.25,8,1.87l5.13.07,3.4,3.24,3.68,1.31-5.68.4Z" transform="translate(-497.5 -202.26)"/><path class="cls-12" d="M709.74,317.44l34,35.06-3.16.4-36-35.65Z" transform="translate(-497.5 -202.26)"/><path class="cls-8" d="M1099.77,622.08l-6.8-11.46-12,1.17a4.8,4.8,0,0,1-.75-.09c4-4.27,8.86-4.54,13.61-2.14S1100.54,616.6,1099.77,622.08Z" transform="translate(-497.5 -202.26)"/><path class="cls-12" d="M731.84,310.5l31.23,31.76-2.7,2.29q-15.63-16.35-31.25-32.72a3.57,3.57,0,0,0,0-1.13Z" transform="translate(-497.5 -202.26)"/><path class="cls-8" d="M709.85,350.58l-23.88-23,3.08-1c5.94,6,12,12,17.76,18.2C708.24,346.33,708.86,348.63,709.85,350.58Z" transform="translate(-497.5 -202.26)"/><path class="cls-8" d="M1284.3,293.57,1274.79,314c1.23-4,1.83-8.34,3.83-11.91,3.31-5.89,4.37-11.19.1-17.06-1-1.36-.48-3.79-.66-5.72l6.37,12.32C1284.39,292.29,1284.35,292.93,1284.3,293.57Z" transform="translate(-497.5 -202.26)"/><path class="cls-8" d="M668.84,357.14,687.52,375l-3.14,1.55-15.46-15.16C668.89,360,668.87,358.55,668.84,357.14Z" transform="translate(-497.5 -202.26)"/><path class="cls-8" d="M665.27,777.5l13.67,10.33,7.85,8.59L666.45,781l-1.27-1.39-.17-.29C665.1,778.73,665.18,778.11,665.27,777.5Z" transform="translate(-497.5 -202.26)"/><path class="cls-10" d="M590,724.54l3.36,7-13.73-10.26c0-1.12,0-2.24,0-3.37l1.82-.18,1.79,0,.75,0,.75,0,1.77,1.87Z" transform="translate(-497.5 -202.26)"/><path class="cls-12" d="M771.31,327.47c1.7,2.23,3.4,4.47,5.11,6.7l-1.73,2.14-17.05-17.47,12.55,7.45A1.45,1.45,0,0,0,771.31,327.47Z" transform="translate(-497.5 -202.26)"/><path class="cls-10" d="M1226.35,720.79l-3.21-.15.06-2.94,17.18-6.74.17,2.73Z" transform="translate(-497.5 -202.26)"/><path class="cls-8" d="M790,755.66l-2.45,1.62,7.65,11.4-3.25.11-8.65-10.08c.62-1,1.23-2.06,1.84-3.09Z" transform="translate(-497.5 -202.26)"/><path class="cls-8" d="M1078.45,614.07q-.09,6.42-.19,12.84C1075.49,622.59,1074.74,618.3,1078.45,614.07Z" transform="translate(-497.5 -202.26)"/><path class="cls-8" d="M681.41,378.79c-1.6-.3-3.55-.12-4.72-1a107.23,107.23,0,0,1-8-7.21l0-5.13Q675.06,372.12,681.41,378.79Z" transform="translate(-497.5 -202.26)"/><path class="cls-9" d="M908.48,751.85l6.68-.16,6.86,3.1Z" transform="translate(-497.5 -202.26)"/><path class="cls-10" d="M829.36,279.34l10.4-6.73,1.67.2-11.76,6.86Z" transform="translate(-497.5 -202.26)"/><path class="cls-8" d="M1091.88,643.54q2.67-4,5.35-8.09Q1094.55,639.48,1091.88,643.54Z" transform="translate(-497.5 -202.26)"/><path class="cls-10" d="M820.36,285.65l9-6.31.31.33-8.55,6.88C820.87,286.25,820.62,285.94,820.36,285.65Z" transform="translate(-497.5 -202.26)"/><path class="cls-8" d="M841.43,272.81l-1.67-.2,10-5.69.21,2.26Z" transform="translate(-497.5 -202.26)"/><path class="cls-10" d="M788.39,320.54c.23-1,.47-2,.7-3l5.59-6.08.78.68-3.57,8.43-3.25.18Z" transform="translate(-497.5 -202.26)"/><path class="cls-8" d="M924,246.65l-13.93,1.92Z" transform="translate(-497.5 -202.26)"/><path class="cls-12" d="M668.72,375.58l6.34,7L672.27,384C671.09,381.17,669.9,378.38,668.72,375.58Z" transform="translate(-497.5 -202.26)"/><path class="cls-12" d="M764.5,283l1.77,1.72q-4.21,3.68-8.41,7.37c-.21-.71-.41-1.41-.62-2.11Z" transform="translate(-497.5 -202.26)"/><path class="cls-7" d="M757.24,290c.21.7.41,1.4.62,2.11l-6.69,1c-.06-.93-.13-1.86-.19-2.79Z" transform="translate(-497.5 -202.26)"/><path class="cls-8" d="M1097.15,635.54c.65-2.11,1.3-4.22,1.95-6.31Z" transform="translate(-497.5 -202.26)"/><path class="cls-8" d="M1085,640.93l7,2.53Z" transform="translate(-497.5 -202.26)"/><path class="cls-10" d="M815.78,289.66l4.58-4c.26.29.51.6.76.9q-2.58,2.54-5.14,5.09C815.91,291,815.85,290.32,815.78,289.66Z" transform="translate(-497.5 -202.26)"/><path class="cls-10" d="M1247.35,709.93l-1.82.94-1.94-.33-2.08-3h5.68C1247.24,708.32,1247.3,709.13,1247.35,709.93Z" transform="translate(-497.5 -202.26)"/><path class="cls-12" d="M679.07,348.05,674,346.27c.53-1.1,1.07-2.2,1.6-3.31Z" transform="translate(-497.5 -202.26)"/><path class="cls-12" d="M798.75,760.51l-5.69-4.76,2.51-.74,2.9,2C798.56,758.18,798.65,759.35,798.75,760.51Z" transform="translate(-497.5 -202.26)"/><path class="cls-8" d="M1243.58,710.54l2,.33-5,2.82c-.06-.91-.11-1.82-.17-2.73Z" transform="translate(-497.5 -202.26)"/><path class="cls-12" d="M745.67,313.84c.31.76.62,1.52,1,2.33l-.88,1.13q-2.58-2.62-5.17-5.23Z" transform="translate(-497.5 -202.26)"/><path class="cls-8" d="M815.78,289.66c.07.66.13,1.32.2,2l-3.87,1.87-.74-.09Z" transform="translate(-497.5 -202.26)"/><path class="cls-12" d="M811.37,293.42l.74.08c-1,1.07-2,2.13-3.06,3.19l-.31-.34C809.62,295.37,810.49,294.39,811.37,293.42Z" transform="translate(-497.5 -202.26)"/><path class="cls-8" d="M797.61,307.76l4.23-4.6.4.41c-1.15,1.7-2.31,3.39-3.47,5.09A4.82,4.82,0,0,0,797.61,307.76Z" transform="translate(-497.5 -202.26)"/><path class="cls-12" d="M701.37,318.94c0,.58,0,1.15-.07,1.73l-3.4,0Z" transform="translate(-497.5 -202.26)"/><path class="cls-8" d="M673.79,353.23l-3-.19c-.08-1.06-.15-2.13-.23-3.19l0,0a11.37,11.37,0,0,1,1.65-.15Z" transform="translate(-497.5 -202.26)"/><path class="cls-12" d="M1080.23,611.7a4.8,4.8,0,0,0,.75.09l-2.56,2.41C1079,613.37,1079.63,612.54,1080.23,611.7Z" transform="translate(-497.5 -202.26)"/><path class="cls-12" d="M805.17,299.8l3.57-3.45.31.34-3.33,3.36Z" transform="translate(-497.5 -202.26)"/><path class="cls-12" d="M680.74,341.25l-1.9-.07-1.6-1.7c0-.58-.07-1.16-.11-1.74l3.44.12C680.63,339,680.69,340.12,680.74,341.25Z" transform="translate(-497.5 -202.26)"/><path class="cls-12" d="M721.38,310.7l3.51,1.65-1.66,1.9-3.32-2.2Z" transform="translate(-497.5 -202.26)"/><path class="cls-8" d="M1247.35,709.93c0-.8-.11-1.61-.16-2.41l3.31-.18.37.38Z" transform="translate(-497.5 -202.26)"/><path class="cls-8" d="M757.74,317.25l0,1.71-3.33-2.88Z" transform="translate(-497.5 -202.26)"/><path class="cls-8" d="M579.6,717.87c0,1.13,0,2.25,0,3.37l-3.62-3,.31-.72Z" transform="translate(-497.5 -202.26)"/><path class="cls-8" d="M801.84,303.16l3.33-3.36.55.25-3.48,3.52Z" transform="translate(-497.5 -202.26)"/><path class="cls-12" d="M1370.64,594.49c.45,1.08.9,2.17,1.36,3.25-.12.58-.23,1.15-.35,1.73l-1.64-2.08Z" transform="translate(-497.5 -202.26)"/><path class="cls-12" d="M696.11,325.88l-4.2-1.82c.27-.63.53-1.27.8-1.9Z" transform="translate(-497.5 -202.26)"/><path class="cls-10" d="M794.68,311.49l2.35-2.85c0,.63,0,1.25,0,1.87-.51.56-1,1.11-1.55,1.66Z" transform="translate(-497.5 -202.26)"/><path class="cls-8" d="M681.5,332.64l1.06-1.53,1.62,3.17-1.86.53C682.05,334.09,681.78,333.36,681.5,332.64Z" transform="translate(-497.5 -202.26)"/><path class="cls-8" d="M797,310.51c0-.62,0-1.24,0-1.87a.78.78,0,0,1,.58-.88,4.82,4.82,0,0,1,1.16.9C798.18,309.28,797.6,309.9,797,310.51Z" transform="translate(-497.5 -202.26)"/><path class="cls-2" d="M596.84,567v-8.49l2,1.54c6.47-6.24,12.8-12.62,19.43-18.68,15.11-13.83,30.53-27.33,45.48-41.32,6.52-6.09,12.07-13.2,18.32-19.6,8.4-8.6,17.11-16.9,25.56-25.46,3-3,5.4-6.54,8.31-9.61,12.63-13.3,25.23-26.63,38.08-39.71,5.08-5.18,11-9.51,16.17-14.63,12.51-12.46,24.73-25.21,37.17-37.74,4.61-4.64,12.06-7.39,10.12-16.11l29-6.45,51.37-10.5-4.51,4.84c-.72,2.62-.67,5.11-1.89,6.46-11.89,13.16-23.7,26.42-36.11,39.08q-35.34,36.07-71.31,71.52c-22.7,22.46-45.71,44.6-68.53,66.93-9.31,9.11-18.61,18.25-27.69,27.6-12.25,12.62-24.27,25.47-36.44,38.16-2.9,3-6,5.88-9.06,8.74q-14.94,14-29.94,27.87l-15.12-36.32a.89.89,0,0,0,.77-.51l-1.23-7.57Zm15.93,38.06h.69v-2.54h-.69Z" transform="translate(-497.5 -202.26)"/><path class="cls-13" d="M538.71,666.29l-3.82.33,0-.12c.65-1.15,1.29-2.31,1.93-3.47.33-.92.65-1.85,1-3l-2.71-.55-3.65-.19a1.08,1.08,0,0,1-.82-1.15l2.25-.59,2-5.49-6.35-4-.35-5.47c-1.54-11.95-3.07-23.91-4.57-35.62l9.08-4.56c-2.2-2.78-3.89-4.92-4.82-6.11.25-4.16.45-7.34.64-10.52q4.89-11.28,9.76-22.57l0,.15c6.34-2.33,14.5-3.28,10.37-13.6h0l3.41-4,6.56-6.16,3.76-3.46-.08,0,2.8-2.4.11,0,1.71-1.64.07-.2c7.23.79,9.68-4.59,12.41-9.61l.07.11,7.79,1.23c-1.18,7.55-2.26,14.49-3.38,21.64l3.61,1.64,5.44,9.71c.15,1.63.29,3.27.44,4.91q1.65,9.58,3.29,19.16c-5.72-.81-9.16,2-11.2,7.06-2.31,5.71-3.8,12-7.11,17-11.93,18.26-26,35.27-31.09,55.89Zm-3.9-21.93a2,2,0,0,0-.24-.71c-.05-.07-.4.1-.61.16a2.06,2.06,0,0,0,.24.71C534.26,644.58,534.6,644.42,534.81,644.36Z" transform="translate(-497.5 -202.26)"/><path class="cls-10" d="M593.09,556.68,587.65,547,584,545.33c1.12-7.15,2.2-14.09,3.38-21.64l-7.79-1.23,13.79-9.67Z" transform="translate(-497.5 -202.26)"/><path class="cls-14" d="M596.82,580.75q-1.65-9.57-3.29-19.16l1.92,5.43,1.11,2.21c.08,1.63.17,3.26.25,4.89a3.62,3.62,0,0,0,.52,1l15.12,36.32c0,1.08,0,2.15,0,3.23-1.31-.61-3.3-.88-3.81-1.9-2.44-4.87-4.47-9.95-6.65-14.95h-1.69Q598.57,589.3,596.82,580.75Z" transform="translate(-497.5 -202.26)"/><path class="cls-14" d="M846.56,330.78l-29,6.45-15.31,2.32-5.39,1.39-8.12.48-.18-.25,10.06-4.62-3.21-2.22c5,.14,10,.76,14.95.33C822.41,333.62,834.48,332.11,846.56,330.78Z" transform="translate(-497.5 -202.26)"/><path class="cls-10" d="M774.69,336.31l1.73-2.14,3.5.12.12.17-1.74,8.42c0,.39,0,.78,0,1.17l-5.34,2.07a43.09,43.09,0,0,0-5.91.14l-21.38,7.12,1.71-3.52,1.9-1.84,4.9-1.38,1.66-1.92,4.58-.17,2.7-2.29,5-2.53.33-2,4.1,1.87Z" transform="translate(-497.5 -202.26)"/><path class="cls-8" d="M718.78,361.47l-9-10.94,13.14,9.87Z" transform="translate(-497.5 -202.26)"/><path class="cls-8" d="M691.12,373.52l-8.78-11.76L694,372Z" transform="translate(-497.5 -202.26)"/><path class="cls-12" d="M698,369.89l-8.72-11.67,11,10.08Z" transform="translate(-497.5 -202.26)"/><path class="cls-12" d="M703.32,365.21l-2.16-3.52,5.94,3.75Z" transform="translate(-497.5 -202.26)"/><path class="cls-14" d="M788.69,341.42l-6.88,1.65-.22-.26c0-.56.06-1.12.1-1.69l6.82.05Z" transform="translate(-497.5 -202.26)"/><path class="cls-8" d="M709.83,359.94l4.44,2.07-3,1.34C710.78,362.21,710.3,361.08,709.83,359.94Z" transform="translate(-497.5 -202.26)"/><path class="cls-12" d="M725.63,358.1c-.18-1.07-.36-2.15-.53-3.22l3.58,3.23Z" transform="translate(-497.5 -202.26)"/><path class="cls-4" d="M796.81,340.94l5.39-1.39Z" transform="translate(-497.5 -202.26)"/><path class="cls-14" d="M778.25,344.05c0-.39,0-.78,0-1.17l3.29-.07.22.26Z" transform="translate(-497.5 -202.26)"/><path class="cls-8" d="M690.42,374.65l-.2.07Z" transform="translate(-497.5 -202.26)"/><path class="cls-2" d="M596.56,569.23,595.45,567c.46,0,.93,0,1.39,0l0,0C596.77,567.8,596.66,568.51,596.56,569.23Z" transform="translate(-497.5 -202.26)"/><path class="cls-14" d="M1223.2,717.7l-.06,2.94c-20.16,6.78-40.76,7-61.56,4.07L1151.21,723l-5.27-.47L1134,717.77l44.65,3.32c1,1,2.26,3,3.09,2.87,9.64-1.75,19.21-3.91,28.85-5.66.85-.16,2.1,1.83,2.31,2Z" transform="translate(-497.5 -202.26)"/><path class="cls-10" d="M1117.11,799.62l-1.89-1.18a3.55,3.55,0,0,0-1.52-.5l.06.09-1.8-1.79c-7-10.33-6.58-16.09,1.69-20.43l-3.11,10.28c2.18,7.28,6,10.93,12.77,10.38,7-.57,9.44-5.41,10.64-11.26-4.15-11.48-7.41-13-20.33-9.37,3.07-7.23,9.26-4.83,14.68-4.77,5,4.56,10.3,9,8.26,17C1134.34,796.74,1128.76,800.09,1117.11,799.62Z" transform="translate(-497.5 -202.26)"/><path class="cls-2" d="M1099.92,833.85l-3.4-3.24Z" transform="translate(-497.5 -202.26)"/><path class="cls-2" d="M1113.53,837.24l-3.12-.06Z" transform="translate(-497.5 -202.26)"/><path class="cls-15" d="M1050.33,813.46c-8.41-3.85-17.07-7.23-25.13-11.7-4.78-2.64-8.44-7.23-12.94-10.47-2.32-1.68-5.38-2.34-8.11-3.45,2.25-3.63,3.9-7.92,6.92-10.72,3.33-3.08,7.93-4.78,12-7.09l-1-2h-14l1.16-5.88,2.15-.18c15,4.81,22.8,2.59,29.22-8.15,5.85-9.77,1.5-17.8-4.21-25.63l15.48-9.13c-.38-3.39-.65-5.79-.88-7.8,2.84-3.13,5.25-5.79,8.18-9l-8.83-7.05,35.92,8.57,3.2.29,10.27,3.49,3.83,3.14H1086.9l7.34,9.07c-2.82,9.95-5,17.53-7.13,25.12l1.24.27L1065,792l2.49,1.39-5.65,5.9-9.48-3.73,3,7.57C1053.46,807,1051.89,810.21,1050.33,813.46Zm12.9-108.71c0,.71,0,1.42.08,2.12l5-.45c0-.55-.07-1.11-.11-1.67Z" transform="translate(-497.5 -202.26)"/><path class="cls-16" d="M1178.67,721.09,1134,717.77h.1c-2.53-6.53-8.12-2.39-12.2-3.5l-8.27-1.8c0-.56,0-1.13,0-1.69,3.69-2,8.12-3.39,10.92-6.3,4.47-4.63,7.85-10.31,11.28-15,6.45-2.14,14.1-.86,15.44-9.53l3.41,0,1.26,4.55,1.34-.15.82-4.39,12,1.72,24.67,6.41c0,13-12.33,16.38-19.32,23.49Z" transform="translate(-497.5 -202.26)"/><path class="cls-6" d="M1113.66,710.79c0,.56,0,1.13,0,1.69l-10.06-1.82-3.83-3.14,7.07-.16h3.38Z" transform="translate(-497.5 -202.26)"/><path class="cls-14" d="M1121.92,714.28c4.08,1.11,9.67-3,12.2,3.5Z" transform="translate(-497.5 -202.26)"/><path class="cls-15" d="M1057.16,816.92l-5.13-3.43h5.88C1057.58,815,1057.37,815.94,1057.16,816.92Z" transform="translate(-497.5 -202.26)"/><path class="cls-1" d="M1145.94,722.48l5.27.47Z" transform="translate(-497.5 -202.26)"/><path class="cls-1" d="M1112,796.24l1.8,1.79Z" transform="translate(-497.5 -202.26)"/><path class="cls-1" d="M1113.7,797.94a3.55,3.55,0,0,1,1.52.5Z" transform="translate(-497.5 -202.26)"/><path class="cls-15" d="M612.44,614.71c0-1.08,0-2.15,0-3.23q15-13.93,29.94-27.87c3.07-2.86,6.16-5.71,9.06-8.74,12.17-12.69,24.19-25.54,36.44-38.16,9.08-9.35,18.38-18.49,27.69-27.6,22.82-22.33,45.83-44.47,68.53-66.93q35.91-35.51,71.31-71.52c12.41-12.66,24.22-25.92,36.11-39.08,1.22-1.35,1.17-3.84,1.89-6.46l4.51-4.84,1.83-1.3,3.52-.21,29-11.79c19.72-8.46,39.32-17.23,59.2-25.29,14.28-5.79,28.94-10.63,43.43-15.9l-8.6,6.26,5.93,2.36-18.06,11.94-5.39,10.46c-12.29-3.36-15.66,1.44-17.82,10.08l1.74,1.73L962,345.68l-5.3-5.2c-.39,3-.78,6.1-.86,6.7L939.1,364.85l-7.72.64,4.15,4.4-29.1,30.3-4.6-4.59-1,8.67c-2,1.17-4,2.19-5.85,3.48-9.86,6.92-21.15,11.87-27.19,23.65-2.41,4.7-8.28,7.56-12.31,11.51-4.34,4.25-8,9.34-12.66,13.12-7.58,6.1-6.47,21.81-21.7,18.86-2.12,2.83-3.85,5.41-5.86,7.75-4,4.7-7.42,11-12.59,13.53C792.1,501.38,787,511,781.81,520c-3.76,6.44-6.88,10.72-12.57,9.86L655,645l5.88,3-3.86,4.3-8.82-4.79c-.38-2.49-.77-5-1.15-7.47-.61,2.68-6.3,7.34,1.15,7.48-.07,2.34-.15,4.68-.22,7l-18.52-17.41-8.35-10.2-3.64-5.17,0,0-5.16-6.9Zm23.31,18c-.21.48-.68,1-.54,1.39s.87.45,1.34.66c.21-.48.68-1.06.55-1.39S636.23,633,635.75,632.74ZM903.57,328.67V328H901v.65Z" transform="translate(-497.5 -202.26)"/><path class="cls-17" d="M648,654.5c.07-2.33.15-4.67.22-7h0l8.82,4.79,3.86-4.3L655,645l114.25-115.1c5.69.86,8.81-3.42,12.57-9.86,5.23-9,10.29-18.62,20.9-23.83,5.17-2.54,8.54-8.83,12.59-13.53,2-2.34,3.74-4.92,5.86-7.75,15.23,2.95,14.12-12.76,21.7-18.86,4.7-3.78,8.32-8.87,12.66-13.12,4-4,9.9-6.81,12.31-11.51,6-11.78,17.33-16.73,27.19-23.65,1.84-1.29,3.86-2.31,5.85-3.48l1-8.67,4.6,4.59,29.1-30.3-4.15-4.4,7.72-.64,16.72-17.67c.08-.6.47-3.65.86-6.7l5.3,5.2,30.73-37.06L991,306.89c2.16-8.64,5.53-13.44,17.82-10.08l5.39-10.46,18.06-11.94-5.93-2.36,8.6-6.26,20.53-6.36,3.16.78,12.94,4.86c0-.58,0-1.15,0-1.72l14.43-1c-.36,3-.57,4.74-.82,6.76h-11.39l-7.13,4.79c.11,2.51.23,4.93.23,4.95L679.2,666.94,674,669.69l6.65,10.39-3.27-.22q-9.54-7.58-19.06-15.17l1.29-3.42H655l-6.86-6.83Z" transform="translate(-497.5 -202.26)"/><path class="cls-16" d="M621.1,626.89l8.35,10.2c-.67,1.25-1.35,2.5-1.83,3.38h-9.55c-.44,3.78-.76,6.57-.91,7.85l-26.42,35.93c.2.56,1,2.76,1.84,5.11l-5,3.41c.84,11,1.63,21.36,2.41,31.77l-3.51-5-1.77-1.87-.75,0-.75,0-.89-1-.9,1-1.82.18-3.29-.39c-3.41-4-6.87-7.89-10.21-11.91-5.5-6.61-11.33-13-16.26-20-4.26-6-7.46-12.83-11.13-19.28l8.71-5.56c5.12-20.62,19.16-37.63,31.09-55.89,3.31-5.06,4.8-11.32,7.11-17,2-5,5.48-7.87,11.2-7.06q1.74,8.55,3.47,17.1l.84.94.85-.93c2.18,5,4.21,10.08,6.65,14.95.51,1,2.5,1.29,3.81,1.9l-.09.15,5.16,6.9-.06,0Z" transform="translate(-497.5 -202.26)"/><path class="cls-18" d="M745.65,761.5l-3.65.94-4.56-.52c-1.41-6.68-5.62-10.47-12.2-11.8l-3.38-3.46c-.54-1.16-1.07-2.33-1.61-3.49l-2.15-1.38-.49.89,2.21.86c.63,1.08,1.26,2.16,1.9,3.24l3.45,3.4q5.21,5.85,10.42,11.68l-2,.53-3.11,1.91-3.86-.16-.17.09c.19-.67.39-1.34.58-2l-13.8-12.07h0l-1.73-3.44,0,0-6.87-6.87,0,0-3.44-3.44,0,0-3.44-1.73h0l-3.42-3.42h0l-5.12-5.12h0l-1.69-1.7,0,0-3.42-3.42h0l-8.55-8.56h0l-1.7-1.7h0l-3.43-3.43,0,0a67.41,67.41,0,0,0-3.43-6.11c-2.18-3.16-4.6-6.15-6.92-9.22.59-1.14,1.19-2.29,1.78-3.45l6.69,3.55,1.16.89-.86-1.19q-1.83-4.15-3.65-8.33l1.79-1.81c2.54,2.25,5.2,4.38,7.6,6.77,18.53,18.44,37.09,36.85,55.46,55.45C735.57,749.49,740.47,755.63,745.65,761.5Zm-66.74-59.15c.55.57,1.1,1.15,1.66,1.72l1.71,1.71c.6,1.12,1.19,2.24,1.79,3.35q1.7,1.74,3.41,3.47l1.7,1.69,3.32,1.85,3.5,3.34,1.67,1.72,1.67,1.74,1.72,1.71,1.83,3.34,3.34,1.81,1.73,1.69,1.71,1.67,1.77,3.36,1.26,3.57,1.92-2.27-3-1.44-1.71-3.44-1.67-1.72-1.69-1.73-3.47-1.69-1.7-3.45c-.56-.58-1.13-1.15-1.7-1.73l-1.74-1.68-1.71-1.67q-1.69-1.75-3.41-3.49l-3.45-1.66-1.68-1.71-3.46-3.4-1.7-3.45-1.7-1.72-1.72-1.67-1.66-1.76-1.69-1.73L674,697l-1.29-1,1,1.24,1.68,1.74,1.74,1.68C677.73,701.25,678.32,701.8,678.91,702.35Z" transform="translate(-497.5 -202.26)"/><path class="cls-18" d="M677.4,679.86l3.27.22q0,.78,0,1.56l3.48,3.46,0,0,13.59,10.4q1,2.07,2.08,4.14l1.66-1.5-3.59-2.78-.3-4.79L703,692l3.3,0,3.42,4.53c5.18,5.61,10.12,11.46,15.61,16.74,4.79,4.63,10.19,8.62,15.33,12.89h0l23.94,23.93,0,0,3.3,8.47-3.25,2.2-3.3-2.18-7-6.85-1.72-1.67c-1.13-1.15-2.27-2.29-3.41-3.44l-8.55-8.6-3.33-1.79L735.52,733l-5.13-5.17-1.16-3.62-2.07,2.33,3.07,1.46,5.16,5.11c.57,1.16,1.13,2.32,1.69,3.47l3.4,1.72c-.19,5.92,3.91,7.51,8.59,8.51l3.47,3.39,1.66,1.73,3.48,6.67-3,1.94-.65.35-.73-.17c-5.41-5-11-9.73-16.18-14.92q-30.9-31.08-61.57-62.38Zm27.4,23.93-1.18-.93.91,1.21,2.09,1.34.49-.92Zm11.91,10.34-3.34-1.78-2.22-4.06-1.66,1.45,3.64,2.89,3.39,1.72,5.18,5.08c.48,1,1,2,1.43,3l2.18-1.83-3.48-1.3C720.12,717.59,718.42,715.86,716.71,714.13Z" transform="translate(-497.5 -202.26)"/><path class="cls-19" d="M720.31,763.71a2,2,0,0,1-1.54.34l-14.1-10.46,0,0-10.22-10.21-.07-.08c-1.06-1.9-1.76-4.14-3.23-5.63Q675.2,721.38,659,705.43c-1.52-1.49-3.74-2.27-5.63-3.38q1.74-2.5,3.5-5l13.62,10.32,0,0,3.43,3.43h0l1.7,1.7h0l8.55,8.56h0l3.42,3.42,0,0,1.69,1.7h0q2.57,2.55,5.12,5.12h0l3.42,3.42h0l3.44,1.73,0,0,3.44,3.44,0,0,6.87,6.87,0,0,1.73,3.44h0l8.7,11.9Z" transform="translate(-497.5 -202.26)"/><path class="cls-19" d="M706.4,765.62l-3.79.21.24-.17c-2.45-7.77-6.91-13.56-15.28-15.49l0,0L679,739.9h0l-3.43-1.72,0,0-1.72-3.43h0L670.43,733v0c-.57-1.15-1.14-2.3-1.72-3.44h0l-3.43-3.43h0c-1.71-1.71-3.42-3.43-5.14-5.14h0l-3.43-1.72h0c-.56-1.15-1.13-2.3-1.7-3.45v0l-1.72-1.72h0v-1.73q0-3.42,0-6.84c11.16,10.88,22.27,21.82,33.54,32.58,2.15,2,5,3.4,7.48,5.07l.07.08,10.22,10.21,0,0,5.17,8.38-3.06,1.85Z" transform="translate(-497.5 -202.26)"/><path class="cls-14" d="M675.59,683.43q30.76,31.2,61.57,62.38c5.17,5.19,10.77,10,16.18,14.92a5.7,5.7,0,0,1,.49,1.44l-4.79.06-3.39-.73c-5.18-5.87-10.08-12-15.57-17.57-18.37-18.6-36.93-37-55.46-55.45-2.4-2.39-5.06-4.52-7.6-6.77.31-1,.62-1.94,1.13-3.56Z" transform="translate(-497.5 -202.26)"/><path class="cls-19" d="M653.29,724.56c.58-1.74,1.17-3.47,1.76-5.21l.85,0h.84l3.43,1.72h0l5.14,5.14h0l3.43,3.43h0c.58,1.14,1.15,2.29,1.72,3.44v0l3.43,1.72h0l1.72,3.43,0,0,3.43,1.72h0l8.54,10.24,0,0L695.13,761l-2.42,3,.31.11-8.85-7-8.61-7h0l-10.23-10.3h0c-.56-.57-1.13-1.13-1.7-1.7h0l-1.71-3.61-3.22-3.23Z" transform="translate(-497.5 -202.26)"/><path class="cls-14" d="M694.36,743.28c-2.51-1.67-5.33-3-7.48-5.07-11.27-10.76-22.38-21.7-33.54-32.58v-3.58c1.89,1.11,4.11,1.89,5.63,3.38q16.23,16,32.16,32.22C692.6,739.14,693.3,741.38,694.36,743.28Z" transform="translate(-497.5 -202.26)"/><path class="cls-18" d="M682.48,763.2l-1.54,2.37-3.59-3.43q-6.87-5.14-13.73-10.3v0l-1.7-3.42v0c-.06-1.12-.11-2.24-.16-3.37l3.68-1.83,10.13,7h0l7,8.57C682.51,760.22,682.49,761.71,682.48,763.2Z" transform="translate(-497.5 -202.26)"/><path class="cls-14" d="M663.62,751.84q6.86,5.16,13.73,10.3l-.36,3.62-1.45-1.6-2.2-1.86-7.87-1.36,2.09-3.19Z" transform="translate(-497.5 -202.26)"/><path class="cls-14" d="M670.46,707.38l-13.62-10.32,3.27-5c2.32,3.07,4.74,6.06,6.92,9.22A67.41,67.41,0,0,1,670.46,707.38Z" transform="translate(-497.5 -202.26)"/><path class="cls-14" d="M675.56,750.17l-10.13-7c0-1.11-.07-2.22-.1-3.34Z" transform="translate(-497.5 -202.26)"/><path class="cls-14" d="M668.58,692.15l-6.69-3.55c1.11-1.69,2.22-3.39,3.34-5.08q1.82,4.17,3.65,8.33Z" transform="translate(-497.5 -202.26)"/><path class="cls-14" d="M653.29,724.56l5.39,6.76-8.83-6.79.12-.11Z" transform="translate(-497.5 -202.26)"/><path class="cls-15" d="M648.09,654.45l6.86,6.83Z" transform="translate(-497.5 -202.26)"/><path class="cls-14" d="M661.75,745c0,1.13.1,2.25.16,3.37L655,741.66l.12-.12Z" transform="translate(-497.5 -202.26)"/><path class="cls-10" d="M649.13,748.93l4.94.31-.12,2-5-.28C649,750.28,649.08,749.6,649.13,748.93Z" transform="translate(-497.5 -202.26)"/><path class="cls-14" d="M653.28,740l-5-2.79c.59-.7,1.19-1.39,1.79-2.09l3.3,4.76Z" transform="translate(-497.5 -202.26)"/><path class="cls-8" d="M665.35,763.79l-9.25-4.95,9.29,3.63A1.1,1.1,0,0,1,665.35,763.79Z" transform="translate(-497.5 -202.26)"/><path class="cls-15" d="M655,661.27h4.68l-1.29,3.42Z" transform="translate(-497.5 -202.26)"/><path class="cls-8" d="M648,755.37l-4.57,0Z" transform="translate(-497.5 -202.26)"/><path class="cls-14" d="M653.35,712.47v1.73l-3.51-.68Z" transform="translate(-497.5 -202.26)"/><path class="cls-14" d="M661.92,748.44l1.7,3.42Z" transform="translate(-497.5 -202.26)"/><path class="cls-14" d="M656.75,719.36h-.85l-.85,0v-3.44C655.62,717.06,656.19,718.21,656.75,719.36Z" transform="translate(-497.5 -202.26)"/><path class="cls-19" d="M648.2,721.09l.87-3.19c.42,1.67.62,2.45.81,3.22A15.7,15.7,0,0,0,648.2,721.09Z" transform="translate(-497.5 -202.26)"/><path class="cls-14" d="M648.2,721.09a15.7,15.7,0,0,1,1.68,0l.09,3.3-.12.11Z" transform="translate(-497.5 -202.26)"/><path class="cls-14" d="M661.9,734.55l1.71,3.61Z" transform="translate(-497.5 -202.26)"/><path class="cls-14" d="M653.34,714.21l1.72,1.72Z" transform="translate(-497.5 -202.26)"/><path class="cls-14" d="M653.39,739.84c.56.57,1.13,1.14,1.7,1.7l-.12.12L653.28,740Z" transform="translate(-497.5 -202.26)"/><path class="cls-14" d="M663.61,738.17c.57.57,1.14,1.13,1.7,1.7Z" transform="translate(-497.5 -202.26)"/><path class="cls-7" d="M1349.78,395.94c-14.42,7.41-29.52,4.91-44.52,2.88-4.7-.64-9.26-2.25-13.88-3.42l-5.37-2.25.06.08-8.36-4,.11.09q-2-9.74-4-19.48l0,.44-.1-.43c2.74-4.14,11.29-2.68,10.16-10.54l.14,0,2-1.54.21.46-.26-.43,5.29-3.31-.06.06,12.21-6.83-.18.06c6.38,1.2,10.69-1.71,13.84-6.94l-.16.08c2.22,0,4.94.77,6.58-.22,9-5.45,17.59-2.93,26.27.54l14,13.25-.1.09q-1.71,16.49-3.41,33l0,0c-.46.72-.92,1.43-1.37,2.15v.12C1353.42,388.15,1351.54,392,1349.78,395.94Z" transform="translate(-497.5 -202.26)"/><path class="cls-11" d="M1201.39,330.43,1214.83,341c-.85,4.62,1,6.27,5.3,4.79,13.44,15.06,27,30,40.25,45.25,4,4.64,7.12,10.11,10.63,15.2l3.57,6.65.05.1,3.42,6.63.1.2q1.62,3.42,3.22,6.84l0,.06c.46,2.22.92,4.45,1.39,6.67L1271,430.17l0,0c-8.16-4.38-16.35-8.72-24.49-13.16-21.68-11.83-44.09-22.68-59.39-43.27.55-1.59,1.11-3.17,1.67-4.76-.42,1.8-.83,3.6-1.25,5.4L1201.28,385l2.07-2.05c-.69-3.6-1.39-7.2-2.14-11.09l-7.49-1c17.33-7.78,18.43-10.33,15.24-31.31Z" transform="translate(-497.5 -202.26)"/><path class="cls-4" d="M1201.39,330.43l7.57,9.13c3.19,21,2.09,23.53-15.24,31.31l7.49,1c.75,3.89,1.45,7.49,2.14,11.09l-2.07,2.05-13.66-10.56c.42-1.8.83-3.6,1.25-5.4-.56,1.59-1.12,3.17-1.67,4.76q-7.71-13.72-15.4-27.45-3.42-18.75-6.82-37.51l1.48-1.89,5.66,3.38,5,3.38.09,0,10.19,6.6.12.13,1.76,1.46.13.17,1.55,1.48.24.15,10,6.77Z" transform="translate(-497.5 -202.26)"/><path class="cls-8" d="M1166.46,306.92l-1.48,1.89-3-2-6.93-6.6,5.76,2c-1.19-28.13-7.26-53.85-28.63-73.62l1.95-1.37c16.92,13.69,24.16,32.42,27.69,53.1C1163.32,289.18,1164.91,298.05,1166.46,306.92Z" transform="translate(-497.5 -202.26)"/><path class="cls-10" d="M1360.37,387.58q1.71-16.49,3.41-33C1370.21,366.19,1368.9,378.75,1360.37,387.58Z" transform="translate(-497.5 -202.26)"/><path class="cls-8" d="M1349.86,341.27c-8.68-3.47-17.27-6-26.27-.54-1.64,1-4.36.19-6.58.22,11.74-7.23,23.52-8,35.35-.22Z" transform="translate(-497.5 -202.26)"/><path class="cls-10" d="M1349.86,341.27l2.5-.54,11.51,13.79Z" transform="translate(-497.5 -202.26)"/><path class="cls-8" d="M1273.87,369.83q2,9.74,4,19.48C1269.24,383.13,1268.32,378.63,1273.87,369.83Z" transform="translate(-497.5 -202.26)"/><path class="cls-8" d="M1284,359.3c1.13,7.86-7.42,6.4-10.16,10.54Q1278.88,364.56,1284,359.3Z" transform="translate(-497.5 -202.26)"/><path class="cls-8" d="M1317.17,340.87c-3.15,5.23-7.46,8.14-13.84,6.94Z" transform="translate(-497.5 -202.26)"/><path class="cls-11" d="M1187.42,320.24l-10.19-6.6Z" transform="translate(-497.5 -202.26)"/><path class="cls-11" d="M1201.23,330.4l-10-6.77Z" transform="translate(-497.5 -202.26)"/><path class="cls-8" d="M1303.51,347.75l-12.21,6.83Z" transform="translate(-497.5 -202.26)"/><path class="cls-10" d="M1349.78,395.94c1.76-4,3.64-7.79,9.18-6.11Z" transform="translate(-497.5 -202.26)"/><path class="cls-4" d="M1220.13,345.79c-4.33,1.48-6.15-.17-5.3-4.79Z" transform="translate(-497.5 -202.26)"/><path class="cls-8" d="M1277.71,389.22l8.36,4Z" transform="translate(-497.5 -202.26)"/><path class="cls-20" d="M1281.37,426.66q-1.61-3.42-3.22-6.84Q1279.77,423.24,1281.37,426.66Z" transform="translate(-497.5 -202.26)"/><path class="cls-20" d="M1278.05,419.62l-3.42-6.63Z" transform="translate(-497.5 -202.26)"/><path class="cls-20" d="M1274.58,412.89l-3.57-6.65Z" transform="translate(-497.5 -202.26)"/><path class="cls-8" d="M1291.36,354.52l-5.29,3.31Z" transform="translate(-497.5 -202.26)"/><path class="cls-8" d="M1177.14,313.68l-5-3.38Z" transform="translate(-497.5 -202.26)"/><path class="cls-8" d="M1286,393.15l5.37,2.25Z" transform="translate(-497.5 -202.26)"/><path class="cls-10" d="M1359,389.71c.45-.72.91-1.43,1.37-2.15C1359.86,388.27,1359.4,389,1359,389.71Z" transform="translate(-497.5 -202.26)"/><path class="cls-8" d="M1286.12,357.8l-2,1.54Z" transform="translate(-497.5 -202.26)"/><path class="cls-11" d="M1189.3,321.83l-1.76-1.46Z" transform="translate(-497.5 -202.26)"/><path class="cls-11" d="M1191,323.48l-1.55-1.48Z" transform="translate(-497.5 -202.26)"/><path class="cls-17" d="M1009.26,762.15,1008.1,768h14l1,2c-4,2.31-8.64,4-12,7.09-3,2.8-4.67,7.09-6.92,10.72-4.27-1.72-8.74-3.05-12.76-5.22-10.14-5.45-20.08-11.28-30.09-17l-1.68-1.85c0-.54,0-1.07-.06-1.61,3.32-4.06,6.65-8.12,10-12.2,1.89-2.35,3.72-4.76,5.8-7.41l-4.94-2.26c4.48-9.88,14.82-16.08,14.86-28.69l10.41-10.36c-.7-2.94-1.28-5.37-1.85-7.81l22.3-5.11,10.32,2.11,1.65,3.94,1.69-3.91,12.07,3c.48,1.12,1,2.24,1.77,4.08,1.52-1.78,2.4-2.8,3.27-3.83l3.51,1.39,8.83,7.05c-2.93,3.25-5.34,5.91-8.18,9,.23,2,.5,4.41.88,7.8l-15.48,9.12.08-.14v-7c-6.07,0-10.9-.63-15.45.22-3,.56-5.55,3.26-8.31,5l0,0-2.28.22c.16.54.3,1,.43,1.4-8.45,7.88-11.32,16.81-5.2,27.45l-1.39,2.77,3.65.48,1.59,1.63-1.17.86Z" transform="translate(-497.5 -202.26)"/><path class="cls-14" d="M1016.09,688.36l-22.3,5.11-5.15,1.67-6.69,2.1L894.63,728l-1.8,1.44-.26-.06-11.7,1.55-13.51.54-61.69-2.43-11.87-5.16c-.33.52-.66,1.05-1,1.58L804,738.2l-1.13,1-26.22-20L774.54,718l-.43.86,2.23.71c6.77,7.51,13.57,15,20.3,22.55,2.12,2.37,4.07,4.88,6.1,7.33L801,751.18c-2.26-2.14-4.6-4.21-6.79-6.44q-17.44-17.81-34.84-35.67l21,6.11,11.49,4.24,1.94,1.3.45-.83L792,719.3l-3.92-7.55L797,716l7.43,8.43,32,3.45c28.95,3.31,57.23-.8,84.49-10.07,25.75-8.75,50.84-19.47,76.22-29.33L1040,678.22l1.77-1.59,5.11-.07,3.47-1.55,5.08-.18,41.09-3.38,44.48,3.36,27.35,1.83,1.74,3.36v1.72l-12-1.72h-3.42l-3.41,0-32.54-5.06-5.11,0h-5.15c-25.6,2.36-51.22,4.44-76.76,7.29C1026.36,682.78,1021.3,686.22,1016.09,688.36Z" transform="translate(-497.5 -202.26)"/><path class="cls-17" d="M982,697.24l6.69-2.1C987.78,700.22,985.09,699.45,982,697.24Z" transform="translate(-497.5 -202.26)"/><path class="cls-5" d="M892.83,729.45l1.8-1.44Z" transform="translate(-497.5 -202.26)"/><path class="cls-8" d="M531.67,509.08c10.18,9.37,12.58,19.34,6.85,28.4a20.17,20.17,0,0,1-25.34,7.92c-8.8-3.83-13.87-14.06-11.46-23.15,2.69-10.16,11.16-16.2,21.67-15.17,2.77.27,5.48,1.3,8.22,2Zm6.66,17.57a17,17,0,0,0-33.94.67c.23,9.1,8.28,16.84,17.28,16.58C530.84,543.64,538.52,535.68,538.33,526.65Z" transform="translate(-497.5 -202.26)"/><path class="cls-7" d="M528.62,585.85c-.19,3.18-.39,6.36-.64,10.52.93,1.19,2.62,3.33,4.82,6.11L523.72,607c1.5,11.71,3,23.67,4.57,35.62l-1.74,3.68c-6.79-19.68-7.47-39.36,0-59.05Z" transform="translate(-497.5 -202.26)"/><path class="cls-8" d="M528.62,585.85l-2.11,1.44,11.87-24Q533.51,574.57,528.62,585.85Z" transform="translate(-497.5 -202.26)"/><path class="cls-10" d="M548.8,549.83c4.13,10.32-4,11.27-10.37,13.6Z" transform="translate(-497.5 -202.26)"/><path class="cls-8" d="M526.55,646.34l1.74-3.68c.11,1.7.22,3.39.35,5.47l6.35,4-2,5.49-2.25.59Z" transform="translate(-497.5 -202.26)"/><path class="cls-8" d="M579.56,522.35c-2.73,5-5.18,10.4-12.41,9.61Z" transform="translate(-497.5 -202.26)"/><path class="cls-10" d="M531.55,659.31l3.65.19c.55,1.18,1.11,2.36,1.66,3.53-.64,1.16-1.28,2.32-1.93,3.47C533.8,664.11,532.68,661.71,531.55,659.31Z" transform="translate(-497.5 -202.26)"/><path class="cls-12" d="M562.54,536.19l-3.76,3.46Z" transform="translate(-497.5 -202.26)"/><path class="cls-10" d="M552.22,545.81l-3.41,4Q550.52,547.83,552.22,545.81Z" transform="translate(-497.5 -202.26)"/><path class="cls-8" d="M565.26,533.76l-2.8,2.4Z" transform="translate(-497.5 -202.26)"/><path class="cls-8" d="M567.08,532.16l-1.71,1.64Z" transform="translate(-497.5 -202.26)"/><path class="cls-21" d="M797,716l-8.93-4.25L792,719.3l-.1.12-11.49-4.24-21-6.11-1.71,0-1.66,0-3.56.15.07-.05c-.27-1.53-.54-3.07-.8-4.5l-9.45,1-3.38,0,6-6,1,.92,370.91-371.33-2.4-2.41,31.37-21.43-3-3.16-3.22-.79c.43-1.94.85-3.9,1.57-7.22l-19.88-1.62c-.24-2.32-.45-4.25-.65-6.19l5.68-1.22-2.06-6.25L1155,300.19l6.91,6.6c-.13,1.19-.25,2.39-.38,3.58h-1.72c-.61-.42-1.22-.84.07.05-1.59-.34-.84-.18-.09,0,.14,1.82.27,3.65.4,5.47a1.8,1.8,0,0,1,0,.95l-8.62,2.73c.8,2.68,1.74,5.87,2.69,9.06-1.3,5.25-1.08,10.55-1.37,15.82-.25,4.64-1.08,9.25-1.65,13.87l-4.87,1.06,1.33,9.45-2-1.63c-11.85,9.91-24.46,19.05-35.37,29.91-19.26,19.16-37.23,39.6-56.24,59-8.64,8.83-18.94,16-27.66,24.78-9.92,10-18.75,21-28.35,31.3-6.68,7.17-14,13.8-20.8,20.83-10.37,10.62-20.22,21.77-31,32-13.43,12.76-27.56,24.78-41.35,37.16-.82.74-1.18,2-2,2.77-11,11.87-21.93,23.84-33.16,35.5-9.51,9.86-19.48,19.27-29.1,29-6.13,6.22-11.14,13.95-18.18,18.74-8.83,6-16.89,11.52-17.2,22.34Z" transform="translate(-497.5 -202.26)"/><path class="cls-22" d="M738.89,705.67l3.38,0,3.55,1.76q3.39,2.52,6.77,5h0l3.44,5.71a4.46,4.46,0,0,0,1.09,1.12l5.73,3.43h0l3.42,5.14,0,0,3.45,4,2.88,2.8,5.67,5.18,0,0,8.56,6.84,0,0q1.7,4.29,3.41,8.59l-.2.33-4.87,0-6.93-3.76v0q-6.84-6.86-13.7-13.7h0l-17.13-17.13,0,0c-1.71-1.71-3.42-3.43-5.14-5.14h0l-5.4-10Z" transform="translate(-497.5 -202.26)"/><path class="cls-14" d="M790.24,755.33q-1.71-4.3-3.41-8.59l8.74,8.27-2.51.74Z" transform="translate(-497.5 -202.26)"/><path class="cls-14" d="M786.8,746.71l-8.56-6.84Z" transform="translate(-497.5 -202.26)"/><path class="cls-14" d="M752.59,712.5l-6.77-5.06,6.7,1.74-.07.05C752.5,710.32,752.55,711.41,752.59,712.5Z" transform="translate(-497.5 -202.26)"/><path class="cls-4" d="M867.36,731.48l13.51-.54Z" transform="translate(-497.5 -202.26)"/><path class="cls-14" d="M778.27,739.89l-5.67-5.18Z" transform="translate(-497.5 -202.26)"/><path class="cls-14" d="M762.85,722.76l-5.73-3.43Z" transform="translate(-497.5 -202.26)"/><path class="cls-14" d="M766.29,727.91l-3.42-5.14Z" transform="translate(-497.5 -202.26)"/><path class="cls-14" d="M756,718.21l-3.44-5.71Z" transform="translate(-497.5 -202.26)"/><path class="cls-14" d="M769.72,731.91l-3.45-4Z" transform="translate(-497.5 -202.26)"/><path class="cls-23" d="M756,709.08l1.66,0C757.11,709.07,756.56,709.09,756,709.08Z" transform="translate(-497.5 -202.26)"/><path class="cls-18" d="M1055.44,259.43l-20.53,6.36c-14.49,5.27-29.15,10.11-43.43,15.9C971.6,289.75,952,298.52,932.28,307l-14-8.22,3.75-7.21-.06-6.93c0-1.1.05-2.2.07-3.3v0l1.71-1.71,0,0,5.14-1.71h0l8.58-5,3.4-1.85,0,0,3.44-3.44h0l3.45-1.72h0l1.72-1.72h0l1.73-1.73,0,0,5.17-1.73,0,0,5.47-3.43c.46-.46.91-.93,1.37-1.41l3.45-2,0,0,13.45-8.42a5.8,5.8,0,0,1,1.31-.3l1.74,1.17,18.91,2.16Z" transform="translate(-497.5 -202.26)"/><path class="cls-3" d="M797,310.51c.59-.61,1.17-1.23,1.76-1.85,1.16-1.7,2.32-3.39,3.47-5.09l3.48-3.52,3.33-3.36c1-1.06,2.05-2.12,3.06-3.19l3.87-1.86q2.57-2.55,5.14-5.09l8.55-6.88,11.76-6.86,8.49-3.63c14.89-4.55,28-14.83,44.67-13.58,1.29,1.1,2.45,2.62,3.94,3.1.56.18,1.89-2,2.88-3.14h0l6.47,2.2-7.46,6.49,5.94,5.07c-5.44,0-8.59,0-11.83.14a6.49,6.49,0,0,0,.42-.53l-2.41-2.26-.88,1.11a20.52,20.52,0,0,0,2.87,1.68c-5.06,2.8-10.21,5.73-16.66,9.41-.05,1-.18,3.75-.3,6.4l10.25,9.81c0,1.11,0,2.22,0,3.34h0c-4.11.93-8.36,1.46-12.32,2.85C853.27,309,831.12,316.87,809.08,325c-7.05,2.6-13.73,6.19-20.57,9.33h0l-3.39,0,1.68-6.8c1.69-2.3,3.39-4.6,5.08-6.91l3.57-8.43C796,311.62,796.5,311.07,797,310.51Zm92.82-50.45-2.06-1.75-4.74,6,2.37,1.85C886.87,264.11,888.35,262.09,889.83,260.06Z" transform="translate(-497.5 -202.26)"/><path class="cls-7" d="M887.78,298.41c0-1.12,0-2.23,0-3.34l13.6-3.59.11.16Z" transform="translate(-497.5 -202.26)"/><path class="cls-14" d="M979.93,245.52l-13.45,8.42,8.86-8.26Z" transform="translate(-497.5 -202.26)"/><path class="cls-7" d="M922,281.32c0,1.1,0,2.2-.07,3.3l-10.1,1.92-.19-.2Z" transform="translate(-497.5 -202.26)"/><path class="cls-7" d="M901.4,291.48l10.24-5.14.19.2q-1.82,2.47-3.61,5l-6.71.13Z" transform="translate(-497.5 -202.26)"/><path class="cls-7" d="M937.44,272.88l-8.58,5,8.52-6.85Z" transform="translate(-497.5 -202.26)"/><path class="cls-14" d="M961.69,257.35l-5.47,3.43Z" transform="translate(-497.5 -202.26)"/><path class="cls-14" d="M944.26,267.61l-3.44,3.44Z" transform="translate(-497.5 -202.26)"/><path class="cls-14" d="M956.24,260.76l-5.17,1.73Z" transform="translate(-497.5 -202.26)"/><path class="cls-7" d="M928.84,277.89l-5.14,1.71Z" transform="translate(-497.5 -202.26)"/><path class="cls-14" d="M937.44,272.88l-.06-1.85h3.46Z" transform="translate(-497.5 -202.26)"/><path class="cls-14" d="M947.68,265.9l-3.45,1.72Z" transform="translate(-497.5 -202.26)"/><path class="cls-14" d="M966.51,253.91l-3.45,2Z" transform="translate(-497.5 -202.26)"/><path class="cls-7" d="M923.72,279.58,922,281.29Z" transform="translate(-497.5 -202.26)"/><path class="cls-14" d="M949.38,264.19l-1.72,1.72Z" transform="translate(-497.5 -202.26)"/><path class="cls-14" d="M951.11,262.46l-1.73,1.73Z" transform="translate(-497.5 -202.26)"/><path class="cls-8" d="M1274.75,314.09c-6.54,10-14.34,18.46-28.06,22.92l-6.8-11.12,7.81,7.21,8-2.61Z" transform="translate(-497.5 -202.26)"/><path class="cls-8" d="M1240,326q.08-15.74.17-31.48Q1240.11,310.3,1240,326Z" transform="translate(-497.5 -202.26)"/><path class="cls-10" d="M1277,277l1,2.43L1266,272.84Z" transform="translate(-497.5 -202.26)"/><path class="cls-10" d="M1250.23,276a6.16,6.16,0,0,0,.38-1.52l3.34-1.7,3.42-.47,6.87.4Z" transform="translate(-497.5 -202.26)"/><path class="cls-8" d="M755.54,802.86c-2-.61-4.6-.62-5.91-1.92-11.73-11.6-23.22-23.43-34.79-35.2l4.13-.21Z" transform="translate(-497.5 -202.26)"/><path class="cls-8" d="M726.62,764.14l3.86.16,34.21,32.78-3.21,3.26C749.81,788.33,737.08,777.43,726.62,764.14Z" transform="translate(-497.5 -202.26)"/><path class="cls-8" d="M737.44,761.92l4.56.52q14.82,15.52,29.66,31c-.31.47-.63.93-.95,1.4-1.44-.75-3.16-1.21-4.27-2.3-8.29-8.09-16.38-16.39-24.73-24.42-2.36-2.27-5.39-3.86-8.12-5.77l2-.53Z" transform="translate(-497.5 -202.26)"/><path class="cls-8" d="M749,762.23l4.79-.06,25.09,25.61-2.32,2.36Z" transform="translate(-497.5 -202.26)"/><path class="cls-14" d="M719,765.53l-4.13.21-1.91-1.54L709.84,762l-5.17-8.38,14.1,10.46A3.71,3.71,0,0,0,719,765.53Z" transform="translate(-497.5 -202.26)"/><path class="cls-8" d="M720.31,763.71l1.61-1.66,5.11.17c-.19.67-.39,1.34-.58,2Z" transform="translate(-497.5 -202.26)"/><path class="cls-8" d="M1226.06,253.82c-8.08,0-15.12-7.22-14.92-15.41a14.7,14.7,0,0,1,15-14.17,14.29,14.29,0,0,1,14.34,14.67C1240.38,246.89,1233.71,253.78,1226.06,253.82Zm-.38-26.45a11.61,11.61,0,0,0-11.08,11.75,11.37,11.37,0,0,0,22.74-.54A11.7,11.7,0,0,0,1225.68,227.37Z" transform="translate(-497.5 -202.26)"/><path class="cls-7" d="M555.32,465.57c-10.45.93-20.89,2-31.35,2.71-4.17.27-8.4-.36-12.6-.59l-13.8-13.38q0-8.3-.07-16.59l9.69-11.07h18l16.88,10.11,4.1,3.59,14.62,16.82Z" transform="translate(-497.5 -202.26)"/><path class="cls-8" d="M525.21,426.64h0Z" transform="translate(-497.5 -202.26)"/><path class="cls-12" d="M497.5,437.72q0,8.29.07,16.59Q497.54,446,497.5,437.72Z" transform="translate(-497.5 -202.26)"/><path class="cls-12" d="M546.19,440.34l-4.1-3.59Z" transform="translate(-497.5 -202.26)"/><path class="cls-13" d="M1312.51,628.52l-6.36,17.27c-9.26,9.48-16,20.58-21.23,32.69l0-.13c-.57.66-1.13,1.32-1.7,2l.09-.06-5,.71v4.38l-1.09,1.85-26.79,20.14-3.31.18h-5.68l2.08,3-3.21.42-17.18,6.74-10.28,2.63c-.21-.2-1.46-2.19-2.31-2-9.64,1.75-19.21,3.91-28.85,5.66-.83.15-2-1.86-3.09-2.87l-3.21-9.47c7-7.11,19.28-10.44,19.32-23.49l-24.67-6.41c0-.57,0-1.15,0-1.72l12,1.7h3.4l24.21,5.48,93.72-96.85c2-6.16,3.64-11.3,5.29-16.45l3.56-.09,0,0q-.1,5.17-.22,10.37c-5.77,2.46-1.16,4.57.24,6.79l3.14,3.39c-.76,6.89-1.61,13.76-2.23,20.66C1312.77,619.51,1312.72,624,1312.51,628.52Zm-4.46-29.92-2.1.21,1.5,4.41,1.24-.33C1308.48,601.46,1308.26,600,1308.05,598.6Z" transform="translate(-497.5 -202.26)"/><path class="cls-4" d="M959.62,763.81l1.68,1.85Z" transform="translate(-497.5 -202.26)"/><path class="cls-8" d="M677,765.76l.36-3.62,3.59,3.43,42.32,42.5c-2.26-.8-5.14-1-6.68-2.5C703.24,792.44,690.15,779.06,677,765.76Z" transform="translate(-497.5 -202.26)"/><path class="cls-8" d="M677.1,779.34l-4.88-8.68,26.22,25.1L696.68,798l-16-15-2-1.94Z" transform="translate(-497.5 -202.26)"/><path class="cls-8" d="M698.44,795.76l9.38,9.34-.7.22,0,.74L696.68,798C697.27,797.24,697.85,796.5,698.44,795.76Z" transform="translate(-497.5 -202.26)"/><path class="cls-8" d="M672.18,770.63l-6.81-6.82Z" transform="translate(-497.5 -202.26)"/><path class="cls-8" d="M673.34,762.3l2.2,1.86Z" transform="translate(-497.5 -202.26)"/><path class="cls-12" d="M1064.05,202.66l17.06,0Z" transform="translate(-497.5 -202.26)"/><path class="cls-14" d="M692.71,764.05l2.42-3-7.56-10.86c8.37,1.93,12.83,7.72,15.28,15.49Z" transform="translate(-497.5 -202.26)"/><path class="cls-10" d="M682.48,763.2c0-1.49,0-3,0-4.46l1.65-1.62,8.85,7,.24,1.33-3.84.16Z" transform="translate(-497.5 -202.26)"/><path class="cls-8" d="M709.84,762l3.09,2.23-6.16-.38C707.8,763.21,708.82,762.59,709.84,762Z" transform="translate(-497.5 -202.26)"/><path class="cls-12" d="M725.2,355l-18.92-19Z" transform="translate(-497.5 -202.26)"/><path class="cls-12" d="M701.21,320.56l17.22,17.22Z" transform="translate(-497.5 -202.26)"/><path class="cls-12" d="M720,339.38l10.38,10.39Z" transform="translate(-497.5 -202.26)"/><path class="cls-12" d="M730.3,349.65l5.24,5.26Z" transform="translate(-497.5 -202.26)"/><path class="cls-12" d="M704.68,334.43l-5.25-5.24Z" transform="translate(-497.5 -202.26)"/><path class="cls-12" d="M706.41,336.15l-1.85-1.83Z" transform="translate(-497.5 -202.26)"/><path class="cls-12" d="M697.82,327.59,696,325.78Z" transform="translate(-497.5 -202.26)"/><path class="cls-12" d="M699.54,329.3l-1.82-1.81Z" transform="translate(-497.5 -202.26)"/><path class="cls-12" d="M718.31,337.67l1.84,1.85Z" transform="translate(-497.5 -202.26)"/><path class="cls-24" d="M757.24,290l-6.26.34c-7.3-3-10.93-8.29-8.12-16,2.09-5.76,7.22-7.87,13.12-6.47,8,1.92,9.12,8.17,8.52,15.17Z" transform="translate(-497.5 -202.26)"/><path class="cls-8" d="M728.58,316.5l27.21,28.22-1.66,1.92c-8-8-16-15.87-23.82-24.06C729,321.22,729.13,318.56,728.58,316.5Z" transform="translate(-497.5 -202.26)"/><path class="cls-8" d="M665.33,777.57l-1.71-.06-1.43-2-1.44-4.31.11-.06Z" transform="translate(-497.5 -202.26)"/><path class="cls-6" d="M901.41,255.56c-1,1.12-2.32,3.32-2.88,3.14-1.49-.48-2.65-2-3.94-3.1Z" transform="translate(-497.5 -202.26)"/><path class="cls-12" d="M745.65,317.2l15.5,15.51Z" transform="translate(-497.5 -202.26)"/><path class="cls-12" d="M768.39,337.74l-.33,2c-1.77-1.81-3.54-3.61-5.3-5.42Z" transform="translate(-497.5 -202.26)"/><path class="cls-12" d="M761.05,332.58l1.84,1.84Z" transform="translate(-497.5 -202.26)"/><path class="cls-12" d="M697.85,358.37,687.47,348Z" transform="translate(-497.5 -202.26)"/><path class="cls-8" d="M691,341.12l8.58,8.58Z" transform="translate(-497.5 -202.26)"/><path class="cls-8" d="M699.56,349.67l6.88,6.87Z" transform="translate(-497.5 -202.26)"/><path class="cls-8" d="M684.19,334.29l6.85,6.85Z" transform="translate(-497.5 -202.26)"/><path class="cls-12" d="M685.88,346.4l-5.26-5.26Z" transform="translate(-497.5 -202.26)"/><path class="cls-8" d="M706.42,356.52l3.44,3.45Z" transform="translate(-497.5 -202.26)"/><path class="cls-12" d="M701.29,361.8,699.45,360Z" transform="translate(-497.5 -202.26)"/><path class="cls-12" d="M699.58,360.08c-.62-.61-1.23-1.23-1.84-1.84C698.35,358.85,699,359.47,699.58,360.08Z" transform="translate(-497.5 -202.26)"/><path class="cls-12" d="M687.6,348.11l-1.85-1.85Z" transform="translate(-497.5 -202.26)"/><path class="cls-12" d="M689.34,358.32l-8.73-6.89Z" transform="translate(-497.5 -202.26)"/><path class="cls-12" d="M680.72,351.54c-.58-1.2-1.16-2.4-1.75-3.6C679.56,349.14,680.14,350.34,680.72,351.54Z" transform="translate(-497.5 -202.26)"/><path class="cls-8" d="M776,758.85l14.28,17L771.12,759l2.19-.43Z" transform="translate(-497.5 -202.26)"/><path class="cls-14" d="M773.31,758.58l-2.19.43-3.23-.38-3.3-8.47Z" transform="translate(-497.5 -202.26)"/><path class="cls-9" d="M1288.22,440.18c0,3.09,0,6.18,0,9.27l-2.71.35,4.7,5.42c-.16,1.38-.33,2.77-.49,4.16l-7.76-4.29c-2.24-5.43-5.23-9.95-12.41-9.57q5.76,5.33,11.52,10.66,5.4,5.63,10.81,11.24l2,2.25-2.28,3.39L1268.11,452l-1.73-1.75-10.67-8v-9.09l-1.16.45q-2-5.33-4-10.67l20.48,7.23,0,0,13.48,7.48Z" transform="translate(-497.5 -202.26)"/><path class="cls-10" d="M1284.52,437.65,1271,430.17l11.76,3.22,2,2.06C1284.69,436.18,1284.6,436.91,1284.52,437.65Z" transform="translate(-497.5 -202.26)"/><path class="cls-8" d="M680.66,360.08l-5.16-5.15Z" transform="translate(-497.5 -202.26)"/><path class="cls-8" d="M682.37,361.79l-1.74-1.74Z" transform="translate(-497.5 -202.26)"/><path class="cls-8" d="M675.51,354.94l-1.7-1.69Z" transform="translate(-497.5 -202.26)"/><path class="cls-14" d="M754.34,751.8l7,6.85-3.66,0-3.48-6.67Z" transform="translate(-497.5 -202.26)"/><path class="cls-10" d="M786.81,327.51l-1.68,6.8-5.09.15-.12-.17q4.23-6.87,8.47-13.75l.25.23Z" transform="translate(-497.5 -202.26)"/><path class="cls-22" d="M773.31,758.58l-8.72-8.42,0,0L740.61,726.2h0c-1.66-2.48-3.05-5.2-5-7.39-5.62-6.21-11.48-12.19-17.24-18.26l8.55,0,3.12,3.27,12.3,12.08h0c1.72,1.71,3.43,3.43,5.14,5.14l0,0,17.13,17.13h0q6.86,6.84,13.7,13.7v0c.6,1.79,1.21,3.57,1.81,5.36L776,758.85Z" transform="translate(-497.5 -202.26)"/><path class="cls-14" d="M780.05,757.22c-.6-1.79-1.21-3.57-1.81-5.36l6.93,3.76c-.61,1-1.22,2.06-1.84,3.09Z" transform="translate(-497.5 -202.26)"/><path class="cls-3" d="M581.42,717.69l.9-1,.89,1Z" transform="translate(-497.5 -202.26)"/><path class="cls-3" d="M584.71,717.7l1.77,1.87Z" transform="translate(-497.5 -202.26)"/><path class="cls-16" d="M786.81,327.51l1.83-6.74,3.25-.17C790.2,322.91,788.5,325.21,786.81,327.51Z" transform="translate(-497.5 -202.26)"/><path class="cls-6" d="M901.51,291.64l6.71-.13,13.77,0-3.75,7.21,14,8.22-29,11.79-3.52.21-1.83,1.3-51.37,10.5c-12.08,1.33-24.15,2.84-36.25,3.88-4.94.43-10-.19-14.95-.33h0c22.06-8,44.2-15.83,66.15-24.14,9-3.39,17.51-7.83,26.24-11.79h0Z" transform="translate(-497.5 -202.26)"/><path class="cls-1" d="M596.56,569.23c.1-.72.21-1.43.31-2.15q.61,3.78,1.24,7.56a3.27,3.27,0,0,0-1.3-.52C596.73,572.49,596.64,570.86,596.56,569.23Z" transform="translate(-497.5 -202.26)"/><ellipse class="cls-15" cx="115.62" cy="401.57" rx="0.49" ry="1.79"/><path class="cls-13" d="M596.81,574.12a3.27,3.27,0,0,1,1.3.52.91.91,0,0,1-.78.52A3.62,3.62,0,0,1,596.81,574.12Z" transform="translate(-497.5 -202.26)"/><path class="cls-16" d="M533,657.57l2-5.49Z" transform="translate(-497.5 -202.26)"/><path class="cls-16" d="M536.86,663c-.55-1.17-1.11-2.35-1.66-3.53l2.71.55C537.51,661.18,537.19,662.11,536.86,663Z" transform="translate(-497.5 -202.26)"/><path class="cls-16" d="M534.81,644.36c-.21.06-.55.22-.61.16a2.06,2.06,0,0,1-.24-.71c.21-.06.56-.23.61-.16A2,2,0,0,1,534.81,644.36Z" transform="translate(-497.5 -202.26)"/><path class="cls-7" d="M602,597.86l-.85.93-.84-.94Z" transform="translate(-497.5 -202.26)"/><path class="cls-3" d="M788.51,341.17l-6.82,0,6.83-6.8h6.84l3.21,2.22Z" transform="translate(-497.5 -202.26)"/><path class="cls-7" d="M788.52,334.33l-6.83,6.8c0,.56-.07,1.12-.1,1.68l-3.29.07,1.74-8.42,5.09-.15Z" transform="translate(-497.5 -202.26)"/><path class="cls-9" d="M1113.62,775.84c12.92-3.59,16.18-2.11,20.33,9.37-1.2,5.85-3.65,10.69-10.64,11.26-6.82.55-10.59-3.1-12.77-10.38l3.11-10.28Z" transform="translate(-497.5 -202.26)"/><path class="cls-3" d="M1016.09,688.36c5.21-2.14,10.27-5.58,15.65-6.18,25.54-2.85,51.16-4.93,76.76-7.29.5,3,1,6,1.45,8.85l-23.66,20-35.92-8.57-3.51-1.39-5-.25-12.07-3-3.34,0Z" transform="translate(-497.5 -202.26)"/><path class="cls-25" d="M1086.29,703.74l23.66-20c-.46-2.81-1-5.83-1.45-8.85h5.15q.82,2.6,1.63,5.17l2.1-.2,1.38-5L1151.3,680c-1.34,8.67-9,7.39-15.44,9.53-3.43,4.68-6.81,10.36-11.28,15-2.8,2.91-7.23,4.25-10.92,6.3l-3.45-3.42-3.42-3.41-13.69,0h-1.7l-1.91.08Z" transform="translate(-497.5 -202.26)"/><path class="cls-10" d="M1009.57,760.22c-.53-.55-1.06-1.09-1.6-1.63l-2.25-3.25c-6.12-10.64-3.25-19.57,5.2-27.45l1.85-1.62,0,0c8.22-3.45,16.1-2.37,23.76,1.73l-.08.14c5.71,7.84,10.06,15.87,4.21,25.64-6.42,10.74-14.25,13-29.22,8.15Zm13.12-32.46c-9.52.1-16.84,7.38-16.78,16.69.06,8.83,8.2,17.09,16.89,17.15,8.84.06,17.18-8.07,17.2-16.77A16.86,16.86,0,0,0,1022.69,727.76Z" transform="translate(-497.5 -202.26)"/><path class="cls-16" d="M1093.1,703.94l13.69,0c0,1.13,0,2.27,0,3.4l-7.07.16L1089.49,704l1.91-.08h1.7Z" transform="translate(-497.5 -202.26)"/><path class="cls-17" d="M1063.23,704.75h4.92c0,.56.07,1.12.11,1.67l-5,.45C1063.28,706.17,1063.26,705.46,1063.23,704.75Z" transform="translate(-497.5 -202.26)"/><path class="cls-9" d="M1009.57,760.22l1.84,1.75-2.15.18-.86-1.07Z" transform="translate(-497.5 -202.26)"/><path class="cls-25" d="M1154.71,680h3.42c-.27,1.47-.55,2.93-.82,4.39l-1.34.15Z" transform="translate(-497.5 -202.26)"/><path class="cls-3" d="M1106.83,707.36c0-1.13,0-2.27,0-3.4l3.42,3.41Z" transform="translate(-497.5 -202.26)"/><path class="cls-17" d="M648.19,647.49c-7.45-.14-1.76-4.8-1.15-7.48.38,2.49.77,5,1.15,7.47Z" transform="translate(-497.5 -202.26)"/><path class="cls-14" d="M617.51,621.76l-5.16-6.9Z" transform="translate(-497.5 -202.26)"/><path class="cls-14" d="M621.1,626.89l-3.65-5.17Z" transform="translate(-497.5 -202.26)"/><path class="cls-11" d="M635.75,632.74c.48.21,1.21.31,1.35.66s-.34.91-.55,1.39c-.47-.21-1.21-.31-1.34-.66S635.54,633.22,635.75,632.74Z" transform="translate(-497.5 -202.26)"/><path class="cls-2" d="M903.57,328.67H901V328h2.54Z" transform="translate(-497.5 -202.26)"/><path class="cls-2" d="M899.76,319l3.52-.21Z" transform="translate(-497.5 -202.26)"/><path class="cls-4" d="M1058.6,260.21c24.77-4,46.47,2.72,65.51,18.74l2.06,6.25-5.68,1.22-9.86-2.34c-16,16-32.24,32.21-48.44,48.4l-.14-.19L1013.77,382l-1.59-1.52-4.14,9.23-2-1.79-27.29,27,.13.14L951,442.77l.55.48L930,462.8c.27.28.54.55.8.83L875.6,518.14a73.85,73.85,0,0,1-11.67,13.8c-5.84,5.31-12.68,9.59-18.14,15.23-8.28,8.55-15.74,17.9-23.55,26.91l-1.87-1.64q-2.07,4.62-4.15,9.23l-1.8-1.61c-7.75,7.16-17.82,13.05-22.6,21.82S780.71,615.53,773.58,621c-5.09,3.91-9.26,9-13.85,13.57a79.94,79.94,0,0,0-24.38,25.82,37.75,37.75,0,0,1-6.59,7.5C720.23,676,711.57,684,703,692l-5.36-1.47-13.45-5.46,0,0-3.48-3.46q0-.78,0-1.56L674,669.69l5.18-2.75,387.64-388.06s-.12-2.44-.23-4.95l7.13-4.79h11.39c.25-2,.46-3.76.82-6.76l-14.43,1c0,.57,0,1.14,0,1.72Z" transform="translate(-497.5 -202.26)"/><path class="cls-14" d="M727,762.22l-5.11-.17q-4.33-6-8.69-11.9Z" transform="translate(-497.5 -202.26)"/><path class="cls-14" d="M737.44,761.92l-1.85-.06q-5.21-5.83-10.42-11.68l.07-.06C731.82,751.45,736,755.24,737.44,761.92Z" transform="translate(-497.5 -202.26)"/><path class="cls-14" d="M684.14,721.06l-8.55-8.56Z" transform="translate(-497.5 -202.26)"/><path class="cls-14" d="M711.53,746.74l-6.87-6.87Z" transform="translate(-497.5 -202.26)"/><path class="cls-14" d="M694.4,731.32q-2.55-2.57-5.12-5.12Q691.85,728.75,694.4,731.32Z" transform="translate(-497.5 -202.26)"/><path class="cls-14" d="M697.83,734.75l-3.42-3.42Z" transform="translate(-497.5 -202.26)"/><path class="cls-14" d="M673.87,710.79l-3.43-3.43Z" transform="translate(-497.5 -202.26)"/><path class="cls-14" d="M696,719.48l-3.5-3.35.31-.35c1.13,1.16,2.27,2.32,3.4,3.49Z" transform="translate(-497.5 -202.26)"/><path class="cls-14" d="M687.55,724.47l-3.42-3.42Z" transform="translate(-497.5 -202.26)"/><path class="cls-14" d="M725.17,750.18l-3.45-3.4.14-.12,3.38,3.46Z" transform="translate(-497.5 -202.26)"/><path class="cls-14" d="M687.47,712.61l-3.4-3.48.14-.12,3.46,3.4Z" transform="translate(-497.5 -202.26)"/><path class="cls-14" d="M704.68,739.89l-3.44-3.44Z" transform="translate(-497.5 -202.26)"/><path class="cls-14" d="M711.61,736.37l3,1.45-1.92,2.27-1.26-3.57Z" transform="translate(-497.5 -202.26)"/><path class="cls-14" d="M713.23,750.15l-1.73-3.44Z" transform="translate(-497.5 -202.26)"/><path class="cls-14" d="M684.07,709.13c-.6-1.11-1.19-2.23-1.79-3.35l.23-.23c.57,1.16,1.13,2.31,1.7,3.46Z" transform="translate(-497.5 -202.26)"/><path class="cls-14" d="M689.35,714.12l3.45,1.66-.3.35c-1.11-.61-2.22-1.22-3.32-1.84Z" transform="translate(-497.5 -202.26)"/><path class="cls-14" d="M702.89,728l-1.83-3.34.31-.31,1.68,3.47Z" transform="translate(-497.5 -202.26)"/><path class="cls-14" d="M706.22,729.8,702.89,728l.16-.18,3.47,1.69Z" transform="translate(-497.5 -202.26)"/><path class="cls-14" d="M711.44,736.52l-1.77-3.36.22-.22c.57,1.14,1.14,2.29,1.72,3.44Z" transform="translate(-497.5 -202.26)"/><path class="cls-14" d="M701.26,736.47l-3.44-1.73Z" transform="translate(-497.5 -202.26)"/><path class="cls-14" d="M719.82,743.54l-2.21-.86.49-.89,2.15,1.38Z" transform="translate(-497.5 -202.26)"/><path class="cls-14" d="M721.72,746.78c-.64-1.08-1.27-2.16-1.9-3.24l.43-.37c.54,1.16,1.07,2.33,1.61,3.49Z" transform="translate(-497.5 -202.26)"/><path class="cls-14" d="M682.28,705.78l-1.71-1.71.24-.24,1.7,1.72Z" transform="translate(-497.5 -202.26)"/><path class="cls-14" d="M675.58,712.5l-1.7-1.7Z" transform="translate(-497.5 -202.26)"/><path class="cls-14" d="M689.18,714.29l-1.71-1.68.2-.2,1.68,1.71Z" transform="translate(-497.5 -202.26)"/><path class="cls-14" d="M689.26,726.19l-1.69-1.7Z" transform="translate(-497.5 -202.26)"/><path class="cls-14" d="M701.06,724.65l-1.72-1.71.32-.32,1.71,1.72Z" transform="translate(-497.5 -202.26)"/><path class="cls-14" d="M699.34,722.94l-1.67-1.74.26-.26,1.73,1.68Z" transform="translate(-497.5 -202.26)"/><path class="cls-14" d="M708,731.49l-1.72-1.69.29-.3c.57.57,1.14,1.14,1.7,1.72Z" transform="translate(-497.5 -202.26)"/><path class="cls-14" d="M697.67,721.2,696,719.48l.21-.21,1.72,1.67Z" transform="translate(-497.5 -202.26)"/><path class="cls-14" d="M668.88,691.85l.86,1.19-1.16-.89Z" transform="translate(-497.5 -202.26)"/><path class="cls-14" d="M673.72,697.27l-1-1.24c.66.5,1,.73,1.28,1Z" transform="translate(-497.5 -202.26)"/><path class="cls-14" d="M708.22,731.22l1.67,1.72-.22.22c-.57-.56-1.14-1.12-1.72-1.67Z" transform="translate(-497.5 -202.26)"/><path class="cls-14" d="M675.41,699l-1.69-1.74L674,697l1.75,1.68Z" transform="translate(-497.5 -202.26)"/><path class="cls-14" d="M675.74,698.68l1.69,1.73-.28.29L675.41,699Z" transform="translate(-497.5 -202.26)"/><path class="cls-14" d="M678.9,702.35l-1.75-1.66.28-.28,1.66,1.76Z" transform="translate(-497.5 -202.26)"/><path class="cls-14" d="M680.57,704.07c-.56-.57-1.11-1.15-1.66-1.72l.18-.18,1.72,1.66Z" transform="translate(-497.5 -202.26)"/><path class="cls-23" d="M703,692c8.62-8,17.28-16,25.81-24.11a37.75,37.75,0,0,0,6.59-7.5,79.94,79.94,0,0,1,24.38-25.82c4.59-4.56,8.76-9.66,13.85-13.57,7.13-5.48,13.53-10.49,18.24-19.13s14.85-14.66,22.6-21.82l1.8,1.61q2.09-4.62,4.15-9.23l1.87,1.64c7.81-9,15.27-18.36,23.55-26.91,5.46-5.64,12.3-9.92,18.14-15.23a73.85,73.85,0,0,0,11.67-13.8l55.22-54.51c-.26-.28-.53-.55-.8-.83l21.56-19.55-.55-.48,27.84-27.67-.13-.14L1006,388l2,1.79,4.14-9.23,1.59,1.52,48.28-49.74.14.19c16.2-16.19,32.41-32.37,48.44-48.4l9.86,2.34c.2,1.94.41,3.87.65,6.19l19.88,1.62c-.72,3.32-1.14,5.28-1.57,7.22l3.22.79,3,3.16-31.37,21.43,2.4,2.41L745.84,700.57l-1-.92-6,6-2,.25-6.9-2.07-3.12-3.27L706.25,692Zm413.47-393.14c-.19-.48-.26-1.22-.6-1.37s-.93.3-1.41.49c.19.48.26,1.22.6,1.37S1115.94,299.06,1116.42,298.87Z" transform="translate(-497.5 -202.26)"/><path class="cls-14" d="M718.34,700.54c5.76,6.07,11.62,12.05,17.24,18.26,2,2.19,3.37,4.91,5,7.39-5.14-4.27-10.54-8.26-15.33-12.89-5.49-5.28-10.43-11.13-15.6-16.73Z" transform="translate(-497.5 -202.26)"/><path class="cls-14" d="M740.61,726.2l23.94,23.93Z" transform="translate(-497.5 -202.26)"/><path class="cls-4" d="M718.34,700.54l-8.66-4L706.25,692l20.64,8.55Z" transform="translate(-497.5 -202.26)"/><path class="cls-14" d="M684.14,685.08l13.45,5.46c.09,1.6.19,3.2.29,4.8l-.15.14Z" transform="translate(-497.5 -202.26)"/><path class="cls-14" d="M740.66,738.09l8.55,8.6-.14.13c-4.68-1-8.78-2.59-8.59-8.51Z" transform="translate(-497.5 -202.26)"/><path class="cls-14" d="M697.88,695.34l3.59,2.78-1.66,1.5q-1-2.07-2.08-4.14Z" transform="translate(-497.5 -202.26)"/><path class="cls-14" d="M713.13,712.64l-3.64-2.9,1.66-1.45,2.22,4.06Z" transform="translate(-497.5 -202.26)"/><path class="cls-14" d="M735.39,733.12,730.23,728l.16-.18,5.13,5.18Z" transform="translate(-497.5 -202.26)"/><path class="cls-14" d="M721.7,719.43l-5.18-5.08.19-.22c1.71,1.73,3.41,3.46,5.12,5.18Z" transform="translate(-497.5 -202.26)"/><path class="cls-14" d="M680.7,681.64l3.48,3.46Z" transform="translate(-497.5 -202.26)"/><path class="cls-14" d="M721.83,719.31l3.48,1.3-2.18,1.83c-.47-1-1-2-1.43-3Z" transform="translate(-497.5 -202.26)"/><path class="cls-14" d="M730.23,728l-3.07-1.46,2.07-2.33,1.16,3.62Z" transform="translate(-497.5 -202.26)"/><path class="cls-14" d="M749.21,746.69c1.14,1.15,2.28,2.29,3.41,3.44l-.08.08-3.47-3.39Z" transform="translate(-497.5 -202.26)"/><path class="cls-14" d="M704.8,703.79l2.31.7-.49.92-2.09-1.34Z" transform="translate(-497.5 -202.26)"/><path class="cls-14" d="M716.52,714.35l-3.39-1.71.24-.29,3.34,1.78Z" transform="translate(-497.5 -202.26)"/><path class="cls-14" d="M737.08,736.6c-.56-1.16-1.12-2.32-1.69-3.48l.13-.11c.6,1.1,1.21,2.19,1.81,3.3Z" transform="translate(-497.5 -202.26)"/><path class="cls-14" d="M740.48,738.31l-3.4-1.72.25-.28,3.33,1.78Z" transform="translate(-497.5 -202.26)"/><path class="cls-14" d="M752.62,750.13l1.72,1.67-.14.14-1.66-1.73Z" transform="translate(-497.5 -202.26)"/><path class="cls-14" d="M704.53,704.07l-.91-1.21,1.18.93Z" transform="translate(-497.5 -202.26)"/><path class="cls-14" d="M704.65,753.57l-10.22-10.21Z" transform="translate(-497.5 -202.26)"/><path class="cls-14" d="M687.54,750.14,679,739.9Z" transform="translate(-497.5 -202.26)"/><path class="cls-14" d="M665.31,726.21l-5.14-5.14C661.89,722.78,663.6,724.5,665.31,726.21Z" transform="translate(-497.5 -202.26)"/><path class="cls-14" d="M668.73,729.63l-3.43-3.43Z" transform="translate(-497.5 -202.26)"/><path class="cls-14" d="M660.17,721.07l-3.43-1.72Z" transform="translate(-497.5 -202.26)"/><path class="cls-14" d="M670.44,733.06c-.57-1.15-1.14-2.3-1.72-3.44C669.3,730.76,669.87,731.91,670.44,733.06Z" transform="translate(-497.5 -202.26)"/><path class="cls-14" d="M673.86,734.76,670.43,733Z" transform="translate(-497.5 -202.26)"/><path class="cls-14" d="M675.58,738.19l-1.72-3.43Z" transform="translate(-497.5 -202.26)"/><path class="cls-14" d="M679,739.89l-3.43-1.72Z" transform="translate(-497.5 -202.26)"/><path class="cls-14" d="M684.17,757.12l-1.65,1.62-7-8.57Z" transform="translate(-497.5 -202.26)"/><path class="cls-10" d="M1271.08,430.2,1250.6,423l-3.36-1.58L1237,416l-49.62-35.86q-8.84-16.86-17.68-33.72l2.1-.11q7.7,13.73,15.4,27.45c15.3,20.59,37.71,31.44,59.39,43.27C1254.73,421.48,1262.92,425.82,1271.08,430.2Z" transform="translate(-497.5 -202.26)"/><path class="cls-14" d="M1171.8,346.32l-2.09.11c-1.61-5.34-3.15-10.71-4.84-16-1.46-4.56-3.08-9.07-4.63-13.6a1.84,1.84,0,0,0,0-1c.45-1.83.89-3.65,1.34-5.48.13-1.19.25-2.39.38-3.58l3,2Q1168.39,327.56,1171.8,346.32Z" transform="translate(-497.5 -202.26)"/><path class="cls-15" d="M1036.5,728c-7.66-4.1-15.54-5.18-23.76-1.73,2.76-1.75,5.33-4.45,8.31-5,4.55-.85,9.38-.22,15.45-.22Z" transform="translate(-497.5 -202.26)"/><path class="cls-15" d="M1041.82,693.53l5,.25c-.87,1-1.75,2.05-3.27,3.83C1042.79,695.77,1042.3,694.65,1041.82,693.53Z" transform="translate(-497.5 -202.26)"/><path class="cls-15" d="M1026.41,690.47l3.34,0-1.69,3.91Z" transform="translate(-497.5 -202.26)"/><path class="cls-9" d="M1005.72,755.34l2.25,3.25-3.64-.48Z" transform="translate(-497.5 -202.26)"/><path class="cls-15" d="M1012.77,726.27l-1.85,1.62c-.13-.43-.27-.86-.43-1.4Z" transform="translate(-497.5 -202.26)"/><path class="cls-5" d="M797,716l8.39-5.47c.31-10.82,8.37-16.35,17.2-22.34,7-4.79,12-12.52,18.18-18.74,9.62-9.76,19.59-19.17,29.1-29C881.1,628.76,892,616.79,903,604.92c.77-.82,1.13-2,2-2.77,13.79-12.38,27.92-24.4,41.35-37.16,10.75-10.21,20.6-21.36,31-32,6.85-7,14.12-13.66,20.8-20.83,9.6-10.3,18.43-21.33,28.35-31.3,8.72-8.76,19-15.95,27.66-24.78,19-19.42,37-39.86,56.24-59,10.91-10.86,23.52-20,35.37-29.91l2,1.63-1.33-9.45,4.87-1.06c-1.54,20.11-2.53,40.2,3.44,59.88-2.13,1.27-4.51,2.25-6.35,3.86-10.35,9.09-20.58,18.34-30.82,27.5-.35,3-.68,5.79-1,8.93-14.35.63-19.59,13.6-28.54,21.19-12.59,10.7-23,23.88-34.79,35.62-10.93,10.94-22.31,21.42-33.54,32q-20.22,19.14-40.53,38.19l1.53,1.57-1,6.77c-23.64,11-35,33.8-53.66,47.22-.54,3.59-.95,6.33-1.09,7.25-18.72,9.85-31,23.78-40.72,39.64l-17.63,11.13,1.47,3,9.45-1.56-2.86,13.8-10.33-1.12c-.2,1.75-.35,3.08-.5,4.41l-5.15,8.56-22.21,1.68-32-3.45Z" transform="translate(-497.5 -202.26)"/><path class="cls-19" d="M1040,678.22l-42.84,10.27-8.44-1.59c.86-2.3,1.15-5.1,2.68-6.81,7.64-8.59,15.6-16.9,23.52-25.38,8.24-.17,14-2.86,12.14-12.76l10.55-6.59v-7.14l1.71,1.29L1074.89,596l7.74-11.92,1.81,2.91,11.3-3.55c.72-4.93,1.12-7.68,1.33-9.14l12.44-6.55v-8.2l9.65-5.87c-.38-.68-.76-1.36-1.15-2l18.85-11.83v-6.14l14.37-5.35c-.46-4.26-.72-6.69-1-9.25l17.44-9.88c-1.45-1.48-2.9-3-4.36-4.45l9.17-4.87c8.19-10.38,15.45-19.61,23.26-29.53-3.23-2.66-5.33-4-7-5.8-5.16-5.68-10.15-11.51-15.2-17.29,2.72,1.92,5.47,3.79,8.14,5.77,5.85,4.34,11.66,8.74,17.48,13.12l17.24,13.28,5,7.24c-2.34,4.71-4.67,9.41-7.09,14.26l-10.94,4v8.46l-25.7,20.14c-2,3.44-3.56,8.61-5.23,8.64-9.17.18-11.26,6-11.88,12.94l-12.57,5c4.85,13.72-9.76,7.77-13.07,14.42v7.12l-14.32,5.87c3.64,9.74-5.22,11.89-9.48,16.3-4.7,4.85-11.06,8.09-16.69,12-1.37,3.78-3.64,8.62-6.44,8.94-7.47.87-8.64,4.89-7.53,11.43l-14.82,6.11c5.94,13.45-8.61,7.68-11.88,13.53.84,2,1.7,4.08,2.89,6.91L1036,667.35c-.9,3.15-1.57,5.54-2.23,7.86Z" transform="translate(-497.5 -202.26)"/><path class="cls-6" d="M1040,678.22l-6.29-3c.66-2.32,1.33-4.71,2.23-7.86l20.75-4.57c-1.19-2.83-2-4.88-2.89-6.91,3.27-5.85,17.82-.08,11.88-13.53l14.82-6.11c-1.11-6.54.06-10.56,7.53-11.43,2.8-.32,5.07-5.16,6.44-8.94,5.63-4,12-7.19,16.69-12,4.26-4.41,13.12-6.56,9.48-16.3l14.32-5.87v-7.12c3.31-6.65,17.92-.7,13.07-14.42l12.57-5c.62-6.92,2.71-12.76,11.88-12.94,1.67,0,3.24-5.2,5.23-8.64l25.7-20.14v-8.46l10.94-4c2.42-4.85,4.75-9.55,7.09-14.26l3.72-2.05,10.08,5.4v0l11.13,16.78,2.44-1.28,1.86-5.36,3.33.19c0,1,0,2.07,0,3.1.59,1.25,1.17,2.5,1.76,3.74l-6,7.42-18.57,3.25c-1,4.29-1.68,7-2.39,9.94-6.52,2.15-16.33.74-13.5,11.95l-14,6.32c.45,3.45.74,5.62,1.08,8.23l-14.35,5.19V567l-13.88,6.21c.25,3.45.44,5.86.61,8.18-5.36,4.44-18.11.26-14.14,13l-14.08,6.38c.45,3.46.73,5.63,1.06,8.2l-14.47,5.29c.21,3.66.35,6.07.5,8.68l-14.26,4.87c.27,3.62.46,6,.7,9.16-6.37,2.62-17.22.49-14.34,12-5.63,5-17.42,1.83-16.11,11.88l6.89,10.62-41.09,3.38-5.08.18-3.47,1.55-5.11.07Zm45.61-13.15c-.19-.48-.26-1.22-.6-1.37s-.93.3-1.41.49c.19.48.26,1.22.6,1.37S1085.14,665.26,1085.62,665.07Z" transform="translate(-497.5 -202.26)"/><path class="cls-25" d="M1168.36,676.64,1141,674.81l-6.66-10.59-2.62.22c1.21-2.9,1.72-6.49,3.76-8.57,5.66-5.74,12.08-10.72,18-16.26,6.85-6.47,13.4-13.26,20.17-19.82,4.59-4.44,9.47-8.6,14-13.11,7.39-7.4,14.54-15,21.88-22.49,6.76-6.86,13.6-13.63,20.46-20.38,7.45-7.33,15-14.55,22.44-21.92,6.3-6.25,12.47-12.64,19.18-19.47l-5.6-6.68,0,0c.06-1.27.13-2.54.19-3.8,2.42,1.08,5.22,1.7,7.18,3.32,5.2,4.31,10,9,15,13.61l0,.43,3.41,3.69,3.45,4.33,1.62,5.74-8.23,6c-1.89,4.68-2.69,11-6.22,14.6-13.81,14.14-28.3,27.62-42.93,40.92-5.42,4.94-11.91,8.72-18.62,13.53.92,8.23-16,24-28.13,24,.41,2.72.8,5.4,1.2,8.08l3,3.54Z" transform="translate(-497.5 -202.26)"/><path class="cls-3" d="M1266,515.74l5.6,6.68c-6.71,6.83-12.88,13.22-19.18,19.47-7.42,7.37-15,14.59-22.44,21.92-6.86,6.75-13.7,13.52-20.46,20.38-7.34,7.45-14.49,15.09-21.88,22.49-4.51,4.51-9.39,8.67-14,13.11-6.77,6.56-13.32,13.35-20.17,19.82-5.87,5.54-12.29,10.52-18,16.26-2,2.08-2.55,5.67-3.76,8.57l2.62-.22,6.66,10.59-44.48-3.36-6.89-10.62c-1.31-10.05,10.48-6.84,16.11-11.88-2.88-11.48,8-9.35,14.34-12-.24-3.13-.43-5.54-.7-9.16l14.26-4.87c-.15-2.61-.29-5-.5-8.68l14.47-5.29c-.33-2.57-.61-4.74-1.06-8.2l14.08-6.38c-4-12.72,8.78-8.54,14.14-13-.17-2.32-.36-4.73-.61-8.18l13.88-6.21v-7.61l14.35-5.19c-.34-2.61-.63-4.78-1.08-8.23l14-6.32c-2.83-11.21,7-9.8,13.5-11.95.71-3,1.36-5.65,2.39-9.94l18.57-3.25c1.18-1.45,3.59-4.44,6-7.42l8.63.49c.57,1.43,1.13,2.86,1.69,4.29-.06,1.27-.13,2.54-.19,3.81l-.38.73Z" transform="translate(-497.5 -202.26)"/><path class="cls-16" d="M1168.36,676.64l28.46-22.93-3-3.54c-.4-2.68-.79-5.36-1.2-8.08,12.16-.06,29-15.79,28.13-24,6.71-4.81,13.2-8.59,18.62-13.53,14.63-13.3,29.12-26.78,42.93-40.92,3.53-3.62,4.33-9.92,6.22-14.6l8.23-6,4.18-.07,1.14,1.17,1.66,2.36-.09-.1q1,2.64,2,5.28l-.24,3.13,3.33,19.08c-1.65,5.15-3.31,10.29-5.29,16.45l-93.72,96.85-24.21-5.48h-3.4l-12-1.7Z" transform="translate(-497.5 -202.26)"/><path class="cls-23" d="M988.73,686.9l8.44,1.59c-25.38,9.85-50.47,20.57-76.22,29.32-27.26,9.27-55.54,13.38-84.49,10.07l22.21-1.68c14.64-2.9,30.12-2.29,45.11-10.26l-40,1.7c.15-1.33.3-2.66.5-4.41l10.33,1.12,2.86-13.8c4.16-.57,8.36-.93,12.47-1.73,17-3.32,33.91-6.78,50.87-10.18l27.34-.16.85,0,.86,0,6.85,0,.85,0,.85-.05Z" transform="translate(-497.5 -202.26)"/><path class="cls-3" d="M1118.76,674.91l-1.38,5-2.1.2q-.81-2.58-1.63-5.17Z" transform="translate(-497.5 -202.26)"/><path class="cls-19" d="M1041.78,676.63l5.11-.07Z" transform="translate(-497.5 -202.26)"/><path class="cls-19" d="M1050.36,675l5.08-.18Z" transform="translate(-497.5 -202.26)"/><path class="cls-5" d="M776.34,719.57l-2.23-.71.43-.86,2.09,1.23Z" transform="translate(-497.5 -202.26)"/><path class="cls-21" d="M792,719.3l2.29.59-.45.83-1.94-1.3Z" transform="translate(-497.5 -202.26)"/><path class="cls-26" d="M538.33,526.65c.19,9-7.49,17-16.66,17.25-9,.26-17-7.48-17.28-16.58a17,17,0,0,1,33.94-.67Z" transform="translate(-497.5 -202.26)"/><path class="cls-4" d="M1154.73,418.17c-6-19.68-5-39.77-3.44-59.88.57-4.62,1.4-9.23,1.65-13.87.29-5.27.07-10.57,1.37-15.82-1-3.19-1.89-6.38-2.69-9.06l8.62-2.73c1.55,4.53,3.17,9,4.63,13.6,1.69,5.31,3.23,10.68,4.84,16l17.67,33.72q-1.38,5.3-2.74,10.59l-1.64-1.33L1165.25,409c1.58,4.43,2.44,6.85,3.29,9.25h-12.15Zm4.38-88.12,1.91-.25-.45-4.8-2.07.3Z" transform="translate(-497.5 -202.26)"/><path class="cls-23" d="M752.52,709.18l-6.7-1.74-3.55-1.75,9.45-1C752,706.11,752.25,707.65,752.52,709.18Z" transform="translate(-497.5 -202.26)"/><path class="cls-4" d="M1161.57,310.37c-.45,1.83-.89,3.65-1.34,5.48-.13-1.81-.26-3.64-.4-5.46l0,0Z" transform="translate(-497.5 -202.26)"/><path class="cls-4" d="M1159.83,310.39c-.75-.16-1.5-.32.09,0-1.29-.89-.68-.47-.07-.05Z" transform="translate(-497.5 -202.26)"/><path class="cls-14" d="M764.56,738.19l-17.13-17.13Z" transform="translate(-497.5 -202.26)"/><path class="cls-14" d="M778.25,751.88q-6.84-6.86-13.7-13.7Q771.41,745,778.25,751.88Z" transform="translate(-497.5 -202.26)"/><path class="cls-14" d="M730,703.85l6.9,2.07,5.4,10Z" transform="translate(-497.5 -202.26)"/><path class="cls-14" d="M747.45,721.08c-1.71-1.71-3.42-3.43-5.14-5.14C744,717.65,745.74,719.37,747.45,721.08Z" transform="translate(-497.5 -202.26)"/><path class="cls-19" d="M922,291.55l-13.77,0q1.8-2.49,3.61-5l10.1-1.92Z" transform="translate(-497.5 -202.26)"/><path class="cls-8" d="M983,246.39l18.92,2.16Z" transform="translate(-497.5 -202.26)"/><path class="cls-7" d="M795.37,334.34h-6.86c6.84-3.14,13.52-6.73,20.57-9.33,22-8.14,44.19-16,66.36-23.75,4-1.39,8.21-1.92,12.32-2.85-8.73,4-17.29,8.4-26.24,11.79C839.57,318.51,817.43,326.32,795.37,334.34Z" transform="translate(-497.5 -202.26)"/><path class="cls-6" d="M889.83,260.06c-1.48,2-3,4.05-4.43,6.08L883,264.29l4.74-6Z" transform="translate(-497.5 -202.26)"/><path class="cls-6" d="M894.42,269.6l-2.78-1.83.88-1.11,2.41,2.26Z" transform="translate(-497.5 -202.26)"/><path class="cls-24" d="M1225.68,227.37a11.7,11.7,0,0,1,11.66,11.21,11.37,11.37,0,0,1-22.74.54A11.61,11.61,0,0,1,1225.68,227.37Z" transform="translate(-497.5 -202.26)"/><path class="cls-8" d="M1325.88,525.78l-32.09-32.25-2.2-3.11c0-1.26,0-2.51,0-3.77a9.78,9.78,0,0,1,1.44.19l32.66,32.64Z" transform="translate(-497.5 -202.26)"/><path class="cls-8" d="M1319.47,542.87q-13.93-14.36-27.86-28.7c.05-1.28.11-2.56.17-3.84l30.59,29.4.57,1.62c-.29.82-.59,1.63-.89,2.45Z" transform="translate(-497.5 -202.26)"/><path class="cls-8" d="M1287,677.2l-2.08,1.28c5.2-12.11,12-23.21,21.23-32.69l-11.43,21.64-7.36,9.54Z" transform="translate(-497.5 -202.26)"/><path class="cls-8" d="M1312.51,628.52c.21-4.49.26-9,.66-13.49.62-6.9,1.47-13.77,2.23-20.66.13-1.78.26-3.56.4-5.34C1319.34,602.58,1317,615.64,1312.51,628.52Z" transform="translate(-497.5 -202.26)"/><path class="cls-10" d="M1315.8,589c-.14,1.78-.27,3.56-.4,5.34l-3.14-3.39-.24-6.79q.12-5.19.22-10.37l3.15,7.17Q1315.59,585,1315.8,589Z" transform="translate(-497.5 -202.26)"/><path class="cls-12" d="M1324.12,500.47c-1.13-2.36-2.27-4.71-3.41-7.07l5.58,5.23c.28.77.57,1.53.85,2.3Z" transform="translate(-497.5 -202.26)"/><path class="cls-12" d="M1313.8,558.57q-1.72-1.76-3.44-3.52l4.33,1.77Z" transform="translate(-497.5 -202.26)"/><path class="cls-12" d="M1312.15,544.73l1.13-.87,2.3,1c0,1.13.08,2.26.11,3.38Z" transform="translate(-497.5 -202.26)"/><path class="cls-12" d="M1318.69,551.47l-3.07-3.36Z" transform="translate(-497.5 -202.26)"/><path class="cls-10" d="M1305.4,554.8l6.89,19-3.56.09Z" transform="translate(-497.5 -202.26)"/><path class="cls-16" d="M1312,584.19l.24,6.79C1310.86,588.76,1306.25,586.65,1312,584.19Z" transform="translate(-497.5 -202.26)"/><path class="cls-12" d="M1283.34,680.26l-5,5.09V681Z" transform="translate(-497.5 -202.26)"/><path class="cls-16" d="M1308.05,598.6c.21,1.43.43,2.86.64,4.29l-1.24.33-1.5-4.41Z" transform="translate(-497.5 -202.26)"/><path class="cls-25" d="M1182.11,681.7h0Z" transform="translate(-497.5 -202.26)"/><path class="cls-8" d="M1285,678.35l-1.7,2C1283.82,679.67,1284.38,679,1285,678.35Z" transform="translate(-497.5 -202.26)"/><path class="cls-8" d="M1290.18,455.22l-4.7-5.42,2.71-.35c14,8.31,25.32,19.22,32.79,33.85a3.36,3.36,0,0,0-.32,1.43,3.13,3.13,0,0,1-1.55-.44Z" transform="translate(-497.5 -202.26)"/><path class="cls-12" d="M1313.77,488.38l3.75,0,.94,2.54-1.12.92Z" transform="translate(-497.5 -202.26)"/><path class="cls-12" d="M1320.79,493.47l-3.58-1.76Z" transform="translate(-497.5 -202.26)"/><path class="cls-17" d="M1156.39,418.2h12.15c-.85-2.4-1.71-4.82-3.29-9.25L1183,389.41l1.64,1.33q1.36-5.3,2.74-10.59L1237,416c0,2.47,0,4.94,0,9.11l10.25-3.73,3.36,1.58q2,5.34,4,10.67l1.16-.45v9.09a11.32,11.32,0,0,0,0,1.54l-3.83,1.82-3.13-3.07-5-.28.24,0-5.6,1.94-3,2.93-3.71,1.95-4.82-1.76h-7.44l-6.57,8.25-.74,2h-7.81l-5.11,8.52c-5.82-4.38-11.63-8.78-17.48-13.12-2.67-2-5.42-3.85-8.14-5.77v0c-1.14-1.17-2.28-2.33-3.41-3.5Z" transform="translate(-497.5 -202.26)"/><path class="cls-10" d="M1268.11,452l23.48,21.08.66,2.38c-.27,1-.53,2.08-.8,3.11l-24.8-25.31Z" transform="translate(-497.5 -202.26)"/><path class="cls-12" d="M1291.77,463.53c6.62,6.58,13.33,13.09,19.81,19.81,1.2,1.25,1.52,3.37,2.24,5.09L1296.61,473q-1.36-1.67-2.74-3.31l-2-2.24C1291.82,466.13,1291.79,464.83,1291.77,463.53Z" transform="translate(-497.5 -202.26)"/><path class="cls-10" d="M1281,456.18l-11.51-10.66c7.18-.38,10.17,4.14,12.4,9.57C1281.64,455.47,1281.34,455.83,1281,456.18Z" transform="translate(-497.5 -202.26)"/><path class="cls-10" d="M1291.77,463.53c0,1.3,0,2.6.08,3.9L1281,456.18c.3-.35.6-.71.88-1.09l7.77,4.29C1290.38,460.76,1291.07,462.15,1291.77,463.53Z" transform="translate(-497.5 -202.26)"/><path class="cls-10" d="M1255.72,443.82a11.32,11.32,0,0,1,0-1.54l10.67,8-1.24,1.44Z" transform="translate(-497.5 -202.26)"/><path class="cls-10" d="M1266.38,450.23l1.73,1.75-1.45,1.25-1.52-1.56Z" transform="translate(-497.5 -202.26)"/><path class="cls-3" d="M1093.1,703.94h0Z" transform="translate(-497.5 -202.26)"/><path class="cls-11" d="M1022.69,727.76A16.86,16.86,0,0,1,1040,744.83c0,8.7-8.36,16.83-17.2,16.77-8.69-.06-16.83-8.32-16.89-17.15C1005.85,735.14,1013.17,727.86,1022.69,727.76Z" transform="translate(-497.5 -202.26)"/><path class="cls-4" d="M1116.42,298.87c-.48.19-1.08.64-1.41.49s-.41-.89-.6-1.37c.48-.19,1.08-.63,1.41-.49S1116.23,298.39,1116.42,298.87Z" transform="translate(-497.5 -202.26)"/><path class="cls-9" d="M1247.24,421.39,1237,425.12c0-4.17,0-6.64,0-9.11Z" transform="translate(-497.5 -202.26)"/><path class="cls-22" d="M1156.39,418.2l13.77,25.54,0,3.53c-.84,3-1.68,5.94-2.45,8.63l-9.09,6.89c-.37,3.59-.66,6.37-.95,9.15l-1.6-1.14-12.54,13.34.37.31-41,40.95-.13-.22-14.48,13.58,1.22,1.16-12.85,5.72v6l-15.5,14.07,1.15,1.52-8.81,2.7,1.55,1.59c-6.81,7.92-13.31,16.14-20.54,23.66-4.35,4.53-9.84,8-14.81,11.91.26.37.53.74.8,1.1l-15.15,11.54.37.33-11.21,6.54c-.58,4.29-.95,7-1.31,9.82l-1.53-1.16L977.93,649l-6.16.82-4.87,5.39c-.37,3.38-.67,6.18-.84,7.74l-14.53,16.25-8.15-.77-2.54,10.17c-17,3.4-33.89,6.86-50.86,10.18-4.11.8-8.31,1.16-12.47,1.73l-9.45,1.56-1.47-3L884.22,688c9.71-15.86,22-29.79,40.72-39.64.14-.92.55-3.66,1.09-7.25,18.71-13.42,30-36.24,53.66-47.22l1-6.77-1.53-1.57q20.26-19.1,40.53-38.19c11.23-10.62,22.61-21.1,33.54-32,11.74-11.74,22.2-24.92,34.79-35.62,9-7.59,14.19-20.56,28.54-21.19.36-3.14.69-5.92,1-8.93,10.24-9.16,20.47-18.41,30.82-27.5,1.84-1.61,4.22-2.59,6.35-3.86Z" transform="translate(-497.5 -202.26)"/><path class="cls-21" d="M863.82,717.64l40-1.7c-15,8-30.47,7.36-45.11,10.26Z" transform="translate(-497.5 -202.26)"/><path class="cls-18" d="M940.84,688.64l2.54-10.17,8.15.77L966.06,663c.17-1.56.47-4.36.84-7.74l4.87-5.39,6.16-.82,13.75-13.8,1.53,1.16c.36-2.77.73-5.53,1.31-9.82l11.21-6.54-.37-.33,15.15-11.54c-.27-.36-.54-.73-.8-1.1,5-3.94,10.46-7.38,14.81-11.91,7.23-7.52,13.73-15.74,20.54-23.66l-1.55-1.59,8.81-2.7-1.15-1.52,15.5-14.07v-6l12.85-5.72-1.22-1.16,14.48-13.58.13.22,41-40.95-.37-.31L1156,470.8l1.6,1.14c.29-2.78.58-5.56.95-9.15l9.09-6.89c.77-2.69,1.61-5.66,2.45-8.63l3.44,0v0c5.05,5.78,10,11.61,15.2,17.29,1.63,1.78,3.73,3.14,7,5.8-7.81,9.92-15.07,19.15-23.26,29.53l-9.17,4.87c1.46,1.48,2.91,3,4.36,4.45L1150.23,519c.28,2.56.54,5,1,9.25l-14.37,5.35v6.14L1118,551.61c.39.67.77,1.35,1.15,2l-9.65,5.87v8.2l-12.44,6.55c-.21,1.46-.61,4.21-1.33,9.14l-11.3,3.55-1.81-2.91L1074.89,596l-35.56,33.55-1.71-1.29v7.14L1027.07,642c1.89,9.9-3.9,12.59-12.14,12.76-7.92,8.48-15.88,16.79-23.52,25.38-1.53,1.71-1.82,4.51-2.68,6.81l-10.28,1.53h-1.7l-6.85,0h-1.71Z" transform="translate(-497.5 -202.26)"/><path class="cls-9" d="M1199.2,466.11l5.11-8.52h7.81L1218,461l0,0,1.73,3.46,0,0,13.74,12,0,0q4.29,4.31,8.59,8.59l0,0,10.29,10.29,0,0,1.71,5.15,0-.05-3.33-.19L1235.24,490v0l-18.12-17.67-2-3.23q-3.77-3.93-7.54-7.87l-1.85,2.22,8.11,6.75c.73,1,1.45,2,2.17,3.05q1.9,3.27,3.82,6.54l-3.36-.38Z" transform="translate(-497.5 -202.26)"/><path class="cls-3" d="M1216.44,479.39l3.36.38-.06,0,1.76,1.76-.06-.05,3.56,2.1c.06.35.11.69.17,1l-3.72,2.05Z" transform="translate(-497.5 -202.26)"/><path class="cls-9" d="M1212.86,455.63l6.57-8.25h7.44c3.62,4.48,6.92,9.27,10.91,13.39,17.32,17.87,34.83,35.55,52.27,53.29l-.15,5.36-1.72-.7-3.17-.9,3,3.44.6,2-.3,5.62c-5-4.57-9.81-9.3-15-13.61-2-1.62-4.76-2.24-7.18-3.32q-.84-2.16-1.69-4.3l-4.22-5.7-6.16,1.47c0-1,0-2.07,0-3.1l0,.05,4.55-.38-6.26-4.77,0,0L1242,484.91l0,0q-4.29-4.29-8.59-8.59l0,0-13.74-12,0,0L1218,461l0,0Zm39.65,27.29c-.54-.58-1.09-1.15-1.64-1.73l-6.32-6.1-1.47,1.87c2.27,1.72,4.54,3.45,6.82,5.16l1.75,1.72,3.4,3.56,8.67,10.2,2.18-2-10-9.26Zm-16.71-15.77-1.71-1.71q-2.88-3.27-5.77-6.52c-.6.64-1.2,1.29-1.79,1.94q3.23,2.83,6.48,5.68l1.66,1.73,6.43,6.06,1.45-1.79Zm46.54,47.42c.5.75,1,1.49,1.49,2.24l1.07-.72-1.55-2.33c-2.29-2.3-4.57-4.6-6.87-6.9l-2.67-1.37c1.13,1.45,1.45,1.87,1.77,2.29Q1279,511.19,1282.34,514.57Zm-57.8-56.5c.58-.59,1.15-1.19,1.72-1.78l-5.55-4.86-1.59,1.87Zm43.84,43c1.16-.29.58-.15,0,0Zm3.63,4,.52-.48c-.17-.17-.32-.47-.49-.48s-.35.28-.52.44Z" transform="translate(-497.5 -202.26)"/><path class="cls-3" d="M1235.24,490l15.43,10.14-1.86,5.36-2.44,1.28Z" transform="translate(-497.5 -202.26)"/><path class="cls-10" d="M1225.17,484.58c-.06-.34-.11-.68-.17-1l-3.56-2.1.06.05-1.76-1.76.06,0q-1.92-3.27-3.82-6.54l1.15-.93L1235.25,490Z" transform="translate(-497.5 -202.26)"/><path class="cls-10" d="M1254.05,503.38l6.16-1.47,4.22,5.7-8.63-.49C1255.22,505.88,1254.64,504.63,1254.05,503.38Z" transform="translate(-497.5 -202.26)"/><path class="cls-3" d="M1085.62,665.07c-.48.19-1.08.64-1.41.49s-.41-.89-.6-1.37c.48-.19,1.08-.63,1.41-.49S1085.43,664.59,1085.62,665.07Z" transform="translate(-497.5 -202.26)"/><path class="cls-10" d="M1295.14,537.29l5.79,5.67-4.17.07Z" transform="translate(-497.5 -202.26)"/><path class="cls-12" d="M1288.28,529.27l3.4,3.69Z" transform="translate(-497.5 -202.26)"/><path class="cls-25" d="M1266,515.74l-.4.7.38-.73Z" transform="translate(-497.5 -202.26)"/><path class="cls-12" d="M1310.46,555.16l-4.83-3.49q-1-2.64-2-5.28Z" transform="translate(-497.5 -202.26)"/><path class="cls-12" d="M1302.08,544.13l1.66,2.36Z" transform="translate(-497.5 -202.26)"/><path class="cls-22" d="M968.19,688.48h1.71l-.86,0Z" transform="translate(-497.5 -202.26)"/><path class="cls-22" d="M976.75,688.44h1.7l-.85.05Z" transform="translate(-497.5 -202.26)"/><path class="cls-21" d="M1159.11,330.05l-.61-4.75,2.07-.3.45,4.8Z" transform="translate(-497.5 -202.26)"/><path class="cls-9" d="M1265.14,451.67l1.52,1.56q12.39,12.67,24.79,25.32l2.39,3.19c-.27,1.7-.53,3.4-.8,5.1a9.78,9.78,0,0,0-1.44-.19l-39.71-41,3.83-1.82Z" transform="translate(-497.5 -202.26)"/><path class="cls-8" d="M1319.64,506.69q-5.31-5.24-10.6-10.49l2.06-1.6,10.19,10.27Z" transform="translate(-497.5 -202.26)"/><path class="cls-8" d="M1293.84,481.74l-2.39-3.19c.27-1,.53-2.07.8-3.11l2.82,2.29.28.31c1.05,1.06,2.11,2.12,3.16,3.19l5.75,6.46-1.72,2.09Z" transform="translate(-497.5 -202.26)"/><path class="cls-8" d="M1321.29,504.87l7.26,7.53-2,1.77-6.89-7.48Z" transform="translate(-497.5 -202.26)"/><path class="cls-8" d="M1304.26,487.69l6.84,6.91-2.06,1.6-6.5-6.42Z" transform="translate(-497.5 -202.26)"/><path class="cls-27" d="M1298.51,481.23c-1-1.07-2.11-2.13-3.16-3.19Z" transform="translate(-497.5 -202.26)"/><path class="cls-9" d="M1231.69,449.14l3.71-1.95,56.17,55.06a14.06,14.06,0,0,0,.39,1.55c-.19,1.71-.39,3.41-.58,5.11Z" transform="translate(-497.5 -202.26)"/><path class="cls-9" d="M1238.38,444.26l5.6-1.94,47.61,48.1,2.2,3.11-.27,6.41-1.7-.26a88.61,88.61,0,0,0-6.23-7.87Q1262.07,467.94,1238.38,444.26Z" transform="translate(-497.5 -202.26)"/><path class="cls-10" d="M1231.69,449.14l59.69,59.77a3.4,3.4,0,0,1,.4,1.42c-.06,1.28-.12,2.56-.17,3.84-.52,0-1-.06-1.56-.11-17.44-17.74-35-35.42-52.27-53.29-4-4.12-7.29-8.91-10.91-13.39Z" transform="translate(-497.5 -202.26)"/><path class="cls-8" d="M1291.82,499.68l1.7.26,32.86,32.9-2,2-32.41-31a14.06,14.06,0,0,1-.39-1.55C1291.65,501.39,1291.74,500.53,1291.82,499.68Z" transform="translate(-497.5 -202.26)"/><path class="cls-12" d="M1288.18,518.72l1.72.7,6.93,8.26-8.22-4.46-.6-2C1288.06,520.41,1288.12,519.57,1288.18,518.72Z" transform="translate(-497.5 -202.26)"/><path class="cls-12" d="M1303.56,536.18l8.67,8.63Z" transform="translate(-497.5 -202.26)"/><path class="cls-12" d="M1296.77,527.61l6.9,8.68Z" transform="translate(-497.5 -202.26)"/><path class="cls-10" d="M1291.59,490.42,1244,442.32l-.24,0,5,.28,3.13,3.07,39.71,41Z" transform="translate(-497.5 -202.26)"/><path class="cls-10" d="M1291.82,499.68c-.08.85-.17,1.71-.25,2.57l-56.17-55.06,3-2.93Q1262,468,1285.59,491.81A88.61,88.61,0,0,1,1291.82,499.68Z" transform="translate(-497.5 -202.26)"/><path class="cls-10" d="M1212.86,455.63,1218,461l-5.92-3.38C1212.37,456.93,1212.61,456.28,1212.86,455.63Z" transform="translate(-497.5 -202.26)"/><path class="cls-9" d="M1248.76,442.57l-5-.28Z" transform="translate(-497.5 -202.26)"/><path class="cls-19" d="M1173.57,447.24l-3.44,0,0-3.53C1171.29,444.91,1172.43,446.07,1173.57,447.24Z" transform="translate(-497.5 -202.26)"/><path class="cls-10" d="M1219.71,464.37l13.74,12Z" transform="translate(-497.5 -202.26)"/><path class="cls-10" d="M1233.41,476.34q4.29,4.31,8.59,8.59Q1237.71,480.64,1233.41,476.34Z" transform="translate(-497.5 -202.26)"/><path class="cls-10" d="M1242,484.91l10.29,10.29Z" transform="translate(-497.5 -202.26)"/><path class="cls-10" d="M1213.81,470.18l-8.11-6.75,1.85-2.22q3.77,3.94,7.54,7.87Z" transform="translate(-497.5 -202.26)"/><path class="cls-10" d="M1252.24,495.18l6.26,4.77-4.55.38Z" transform="translate(-497.5 -202.26)"/><path class="cls-10" d="M1215.09,469.08l2,3.23c-.39.3-.77.61-1.15.92-.72-1-1.44-2-2.17-3.05Z" transform="translate(-497.5 -202.26)"/><path class="cls-10" d="M1218,461l1.73,3.46Z" transform="translate(-497.5 -202.26)"/><path class="cls-9" d="M1221.44,481.45l3.56,2.1Z" transform="translate(-497.5 -202.26)"/><path class="cls-9" d="M1219.74,479.74l1.76,1.76Z" transform="translate(-497.5 -202.26)"/><path class="cls-10" d="M1256,486.32l10,9.26-2.18,2q-4.34-5.1-8.66-10.21C1255.35,487,1255.65,486.67,1256,486.32Z" transform="translate(-497.5 -202.26)"/><path class="cls-10" d="M1224.54,458.07l-5.42-4.77,1.59-1.87,5.55,4.86C1225.69,456.88,1225.12,457.48,1224.54,458.07Z" transform="translate(-497.5 -202.26)"/><path class="cls-10" d="M1233,466.54l-6.47-5.68c.59-.65,1.19-1.3,1.79-1.94q2.88,3.25,5.77,6.52C1233.72,465.8,1233.36,466.17,1233,466.54Z" transform="translate(-497.5 -202.26)"/><path class="cls-10" d="M1276.49,506.86l6.86,6.9c-.33.28-.67.56-1,.82l-6.75-6.8C1275.89,507.48,1276.19,507.17,1276.49,506.86Z" transform="translate(-497.5 -202.26)"/><path class="cls-10" d="M1249.9,482.13l-6.82-5.17,1.47-1.87,6.32,6.1Z" transform="translate(-497.5 -202.26)"/><path class="cls-10" d="M1235.8,467.14l6.75,5.4-1.45,1.79-6.43-6.06C1235.05,467.9,1235.43,467.52,1235.8,467.14Z" transform="translate(-497.5 -202.26)"/><path class="cls-10" d="M1252.52,482.92l3.43,3.4c-.3.35-.6.7-.89,1.07q-1.71-1.77-3.41-3.56Z" transform="translate(-497.5 -202.26)"/><path class="cls-10" d="M1268.38,501c1,.67.49.33,0,0Z" transform="translate(-497.5 -202.26)"/><path class="cls-10" d="M1283.35,513.76l1.55,2.33-1.07.72c-.49-.75-1-1.49-1.49-2.23C1282.68,514.32,1283,514,1283.35,513.76Z" transform="translate(-497.5 -202.26)"/><path class="cls-10" d="M1288.18,518.72c-.06.85-.12,1.69-.17,2.54l-3-3.44Z" transform="translate(-497.5 -202.26)"/><path class="cls-10" d="M1250.87,481.19l1.65,1.73-.87.91-1.75-1.71Z" transform="translate(-497.5 -202.26)"/><path class="cls-10" d="M1272,505l-.49-.52c.17-.16.35-.45.52-.44s.32.31.49.48Z" transform="translate(-497.5 -202.26)"/><path class="cls-10" d="M1275.58,507.78c-.32-.42-.64-.84-1.77-2.29l2.68,1.37C1276.19,507.17,1275.89,507.48,1275.58,507.78Z" transform="translate(-497.5 -202.26)"/><path class="cls-10" d="M1234.09,465.44l1.71,1.71-1.13,1.12c-.56-.58-1.11-1.16-1.67-1.73C1233.36,466.17,1233.72,465.8,1234.09,465.44Z" transform="translate(-497.5 -202.26)"/><path class="cls-28" d="M1099.33,650.55c-6.82-5.76-11-14.86-9.87-23.72s7.81-17,16.53-18.88,18.67,3.33,21.32,11.85c1.45-16.43,3.13-33.54,11.87-47.53,7.91-12.67,21.6-21.73,36.45-23.35s30.47,4.5,39.73,16.22,11.52,28.75,5,42.2c-4.78,9.91-13.58,17.28-22.8,23.28a147.12,147.12,0,0,1-100.62,22Z" transform="translate(-497.5 -202.26)"/><path class="cls-29" d="M717.53,279.87A311.45,311.45,0,0,0,674,323.06" transform="translate(-497.5 -202.26)"/><path class="cls-28" d="M863.13,649c9.36-7.91,15-20.4,13.55-32.57S866,593.07,854,590.48s-25.64,4.57-29.28,16.27c-2-22.56-4.31-46.07-16.3-65.28-10.86-17.4-29.68-29.85-50.07-32.07s-41.85,6.18-54.57,22.27-15.82,39.49-6.92,58c6.56,13.61,18.65,23.74,31.31,32a202.07,202.07,0,0,0,138.21,30.24" transform="translate(-497.5 -202.26)"/><path class="cls-29" d="M770,561.8a334.55,334.55,0,0,1,36.34,53.78" transform="translate(-497.5 -202.26)"/><path class="cls-28" d="M1073.88,653.45H850.54V424.3A88.53,88.53,0,0,1,939,335.88h46.5a88.52,88.52,0,0,1,88.42,88.42Z" transform="translate(-497.5 -202.26)"/><path class="cls-30" d="M1027.38,653.45H850.54V424.3a87.81,87.81,0,0,1,16.89-52c.41-.55.81-1.1,1.23-1.64a88.33,88.33,0,0,1,18.82-18.26c.4-.3.81-.58,1.22-.87A88,88,0,0,1,908,341.48l1.23-.46a88.22,88.22,0,0,1,19-4.49l1.23-.14a90.34,90.34,0,0,1,19,0l1.23.14a88.27,88.27,0,0,1,19,4.49l1.23.46a87.67,87.67,0,0,1,19,9.92l1.23.86a88.91,88.91,0,0,1,11.25,9.52,87.85,87.85,0,0,1,7.78,8.91c.42.53.83,1.08,1.23,1.63a87.74,87.74,0,0,1,16.89,52Z" transform="translate(-497.5 -202.26)"/><polygon class="cls-31" points="558.08 444.33 550.58 444.33 547.01 415.39 558.09 415.39 558.08 444.33"/><path class="cls-32" d="M1042.72,644.44h14.47v9.11h-23.57a9.1,9.1,0,0,1,9.1-9.11Z" transform="translate(-497.5 -202.26)"/><polygon class="cls-31" points="595.41 444.33 587.91 444.33 584.34 415.39 595.41 415.39 595.41 444.33"/><path class="cls-32" d="M1080.05,644.44h14.47v9.11h-23.58a9.11,9.11,0,0,1,9.11-9.11Z" transform="translate(-497.5 -202.26)"/><path class="cls-31" d="M1018,543.11a6.57,6.57,0,0,1,1.75-9.13,6.7,6.7,0,0,1,1-.57l25.5-70.28,12.55,6.85-29.11,67.16a6.61,6.61,0,0,1-11.7,6Z" transform="translate(-497.5 -202.26)"/><path class="cls-31" d="M1089.08,556.31a6.58,6.58,0,0,1-2.44-9,7.76,7.76,0,0,1,.67-1l-7.9-74.35,14.28.66,3.28,73.13a6.6,6.6,0,0,1-7.89,10.48Z" transform="translate(-497.5 -202.26)"/><circle class="cls-31" cx="568.8" cy="232.82" r="15.03"/><path class="cls-33" d="M1043.67,539.41l.06-.36c.08-.52,8.07-52.89,2.18-70a7.22,7.22,0,0,1,3.71-8.92h0c8.43-4,24.6-8.86,38.26,3a17.29,17.29,0,0,1,5.78,14.32l-4.68,62" transform="translate(-497.5 -202.26)"/><path class="cls-33" d="M1052.38,493.9l-20.4-4.14,9.56-22.66a8.56,8.56,0,0,1,16.58,4.29Z" transform="translate(-497.5 -202.26)"/><path class="cls-32" d="M1045.25,637c-3.29-40.4-6.49-75.09-1.22-97.9l43.44-3.06c7.29,27.76,8.09,63.07,6.12,101.57l-9.79-1.22L1066.06,563l-9.79,74.65" transform="translate(-497.5 -202.26)"/><path class="cls-32" d="M1076.2,446.7c-2.8,3-8,1.38-8.38-2.7a5,5,0,0,1,0-.95c.19-1.81,1.23-3.45,1-5.36a2.71,2.71,0,0,0-.51-1.31c-2.24-3-7.48,1.34-9.59-1.37-1.29-1.66.23-4.28-.76-6.13-1.31-2.45-5.19-1.25-7.62-2.59-2.71-1.49-2.55-5.64-.77-8.17,2.17-3.08,6-4.72,9.75-5a26.18,26.18,0,0,1,11,2.15c4,1.56,8,3.7,10.41,7.21,3,4.27,3.27,10,1.78,15C1081.59,440.55,1078.49,444.26,1076.2,446.7Z" transform="translate(-497.5 -202.26)"/><path class="cls-29" d="M978.73,587.06H899.19a4,4,0,0,1-4-3.93V405.59a4,4,0,0,1,4-3.93h79.54a4,4,0,0,1,4,3.93V583.13A4,4,0,0,1,978.73,587.06Z" transform="translate(-497.5 -202.26)"/><line class="cls-30" x1="397.71" y1="256.85" x2="485.21" y2="256.85"/><line class="cls-30" x1="398.02" y1="326.67" x2="485.52" y2="326.67"/><line class="cls-30" x1="426.47" y1="199.4" x2="426.47" y2="385.41"/><line class="cls-30" x1="457.06" y1="199.4" x2="457.06" y2="385.41"/></svg>