<svg xmlns="http://www.w3.org/2000/svg" viewBox="0 0 275.16 39.3"><defs><style>.cls-1{fill:#fff;}</style></defs><g id="Layer_2" data-name="Layer 2"><g id="Layer_1-2" data-name="Layer 1"><path class="cls-1" d="M90.64,25.45c0,2.91,0,5.63,0,8.34,0,2.45-.88,4.26-3.55,4.29s-3.57-1.78-3.56-4.24c0-9.48,0-19,0-28.43C83.5,2.41,85,1,87.82,1c4.11,0,8.24-.08,12.34.17,4.57.29,8.16,2.48,9.83,6.87,1.75,4.6,1.34,9.1-1.95,13-1.17,1.38-2.81,2.27-1.92,4.69.28.73-1,2.74-2,3.06-1.16.38-3.49.06-4-.74C97.84,24,94.35,25.41,90.64,25.45Zm.11-6.33c3.34-.2,6.31-.18,9.21-.61a4.17,4.17,0,0,0,3.52-5.27c-.4-1.83-2.06-4.33-3.65-4.77-2.83-.77-6-.21-9.08-.21Z"/><path class="cls-1" d="M257.24,8.46v7.68c3.38,0,6.6,0,9.81,0,2.66,0,5.46.11,5.39,3.56s-3,3.44-5.55,3.42c-3.11,0-6.21,0-9.57,0V31c4,0,8.06-.07,12.11,0,1.32,0,2.94.14,3.84.9a4,4,0,0,1,1.17,3.49A4.5,4.5,0,0,1,271.37,38,167.45,167.45,0,0,1,253,38c-1.25-.08-3.29-2.55-3.33-4-.3-9.62-.2-19.24-.13-28.86,0-2.7,1.65-4.06,4.34-4.1,1.87,0,3.75,0,5.62,0,2.36,0,4.34.72,4.43,3.46.11,3-1.89,3.78-4.44,3.81C258.9,8.27,258.29,8.37,257.24,8.46Z"/><path class="cls-1" d="M223.23,30.77c2.27.16,3.93-.12,5.16.48a5.65,5.65,0,0,1,2.06,1.57,3.13,3.13,0,0,1,.82,1.61,3.12,3.12,0,0,1-.88,2.38,4.09,4.09,0,0,1-2,1.12c-1.46.42-2.5.42-7.08.36-7.32-.11-1.9-.07-3.46-.09a11,11,0,0,1-2.17-.12c-.42-.09-2.22-.42-2.9-1.47-.8-1.22-.61-3,.74-4.9,4.69-6.48,9.53-12.84,14.3-19.25.86-1.16,1.68-2.34,3-4.2-4.77,0-8.71,0-12.65,0-2.46,0-4.69-.42-4.81-3.42C213.22,1.6,215.53,1,218.14,1c6.25,0,12.5-.14,18.74.09,1.5.06,3.69,1,4.23,2.14s-.11,3.43-1,4.67C234.76,15.41,229.18,22.77,223.23,30.77Z"/><path class="cls-1" d="M135.59,29.25a12.88,12.88,0,0,1-2.24,0c-4.87-.78-8.41.41-9.83,5.76-.64,2.36-2.59,4-5.18,2.79-2.77-1.28-2.46-3.66-1.3-6.06,4.36-9.1,8.61-18.26,13.13-27.28a6,6,0,0,1,4-3.08c1.16-.09,3,1.64,3.64,3,3.17,6.21,6.12,12.54,9,18.89,1.66,3.66.28,5.8-3.72,6C140.59,29.34,138.09,29.25,135.59,29.25Zm3-6.41L134,13.1c-1.75,3.75-3.08,6.59-4.56,9.74Z"/><path class="cls-1" d="M7.34,19.06A12.87,12.87,0,0,0,17.51,31.9a31.48,31.48,0,0,1,3.61.83,3.43,3.43,0,0,1,1.46.84,3.14,3.14,0,0,1,.73,2.58,4,4,0,0,1-2.56,2.72,5.66,5.66,0,0,1-2.55.29,17,17,0,0,1-5.1-1,22.37,22.37,0,0,1-9.18-6.94A19.21,19.21,0,0,1,5.17,6.44C11.49-.39,22.31-2,30.16,2.69,32.28,4,34.31,5.43,33,8.33c-1.49,3.17-3.83,1.89-6,.91-8.79-3.92-16.73-1-19.07,7.11A21.61,21.61,0,0,0,7.34,19.06Z"/><path class="cls-1" d="M194.62,15.35a12,12,0,0,1,3.13-4,4,4,0,0,1,2.37-1.14,3.3,3.3,0,0,1,1.86.45c1.33.87,2.27,3.23,1.44,4.29-4.54,5.78-5.44,12.3-5,19.33a3.41,3.41,0,0,1-3.72,3.81c-2.49,0-4-1.77-3.56-3.89,1.88-10-3.82-17.06-8.74-24.52-2.92-4.43-3.16-6.91-.71-8,4-1.86,5.15,1.63,6.74,4C190.46,8.77,192.43,11.92,194.62,15.35Z"/><path class="cls-1" d="M57.12.12A19.65,19.65,0,0,1,77,19.38,19.85,19.85,0,0,1,57.3,39.3,19.52,19.52,0,0,1,37.82,19.75,19.3,19.3,0,0,1,57.12.12ZM74,19.65A16.7,16.7,0,1,0,57.41,36.37,16.68,16.68,0,0,0,74,19.65Z"/><path class="cls-1" d="M164.89,30.79a6.36,6.36,0,0,1,3.75.31c.25.1,3.25,1.39,3.22,3.49,0,1.84-2.32,3-3.2,3.43a15.34,15.34,0,0,1-7.41,0c-1.37-.35-3.27-2.3-3.3-3.57-.28-9.87-.18-19.74-.15-29.62,0-2.41,1.33-3.78,3.75-3.65s3.34,1.86,3.34,4.14V30.79Z"/><path class="cls-1" d="M112.56,35.36a3.46,3.46,0,0,1-6.81-.75,3.46,3.46,0,0,1,6.81-.86,2.72,2.72,0,0,1,.12.86A3.36,3.36,0,0,1,112.56,35.36Z"/><path class="cls-1" d="M210.09,5.39A3.63,3.63,0,0,1,206,8a3.6,3.6,0,0,1-2.88-3.26,3.61,3.61,0,0,1,2.77-3.34,3.63,3.63,0,0,1,4.14,2.44Z"/><path class="cls-1" d="M152.34,35.28a3.59,3.59,0,0,1-7-.6,3.6,3.6,0,0,1,7-1,2.84,2.84,0,0,1,.13.89A2.71,2.71,0,0,1,152.34,35.28Z"/><path class="cls-1" d="M33.72,32.21a3.34,3.34,0,1,1-3.3-3.48A3.37,3.37,0,0,1,33.72,32.21Z"/><path class="cls-1" d="M242.56,35.19a3.48,3.48,0,0,1-4,2.69,3.4,3.4,0,0,1-.34-6.52,3.49,3.49,0,0,1,4.23,2.25,2.65,2.65,0,0,1,.17.9A2.55,2.55,0,0,1,242.56,35.19Z"/><path class="cls-1" d="M183.28,35.54a3.74,3.74,0,0,1-7.22-1.06,3.73,3.73,0,0,1,7.28-.53,3,3,0,0,1,.09.75A2.82,2.82,0,0,1,183.28,35.54Z"/><path class="cls-1" d="M275,5.52A3.46,3.46,0,0,1,270.94,8a3.44,3.44,0,0,1-2.53-3.44,3.47,3.47,0,0,1,2.7-3.17,3.5,3.5,0,0,1,4,2.57,3,3,0,0,1-.05,1.6Z"/><path class="cls-1" d="M57.24,4.21A15.45,15.45,0,1,1,41.85,19.82,15.51,15.51,0,0,1,57.24,4.21Zm-.05,2.63c-5.8.06-11.54,4.81-12.19,9.64a7.72,7.72,0,0,0,.64,2.63c.68-.53,1.74-.94,2-1.62,1.5-4.69,4.64-7.17,9.47-7.8C57.76,9.6,58.33,8.59,59,8ZM68.06,26.78c-1.07-.65-2-1.38-2.1-1.26a31.25,31.25,0,0,0-2.66,2.85c.51.41,1.33,1.29,1.49,1.18A33.25,33.25,0,0,0,68.06,26.78Z"/></g></g></svg>